<svg version="1.2" xmlns="http://www.w3.org/2000/svg" viewBox="0 0 480 464" width="480" height="464">
	<title>Entity Control - All Entities – 1-svg</title>
	<defs>
		<clipPath clipPathUnits="userSpaceOnUse" id="cp1">
			<path d="m-711-216h1920v1020h-1920z"/>
		</clipPath>
		<clipPath clipPathUnits="userSpaceOnUse" id="cp2">
			<path d="m-71.37-19.82h640.74v477.5h-640.74z"/>
		</clipPath>
		<clipPath clipPathUnits="userSpaceOnUse" id="cp3">
			<path d="m-71.37-19.82h640.74v477.5h-640.74z"/>
		</clipPath>
		<clipPath clipPathUnits="userSpaceOnUse" id="cp4">
			<path d="m292.69 27.66h177.26v8.44h-177.26z"/>
		</clipPath>
		<clipPath clipPathUnits="userSpaceOnUse" id="cp5">
			<path d="m292.69 41.5h177.26v8.44h-177.26z"/>
		</clipPath>
		<clipPath clipPathUnits="userSpaceOnUse" id="cp6">
			<path d="m292.69 55.35h177.26v8.44h-177.26z"/>
		</clipPath>
		<clipPath clipPathUnits="userSpaceOnUse" id="cp7">
			<path d="m292.69 69.19h177.26v8.44h-177.26z"/>
		</clipPath>
		<clipPath clipPathUnits="userSpaceOnUse" id="cp8">
			<path d="m292.69 83.03h177.26v8.44h-177.26z"/>
		</clipPath>
		<clipPath clipPathUnits="userSpaceOnUse" id="cp9">
			<path d="m292.69 96.88h177.26v8.44h-177.26z"/>
		</clipPath>
		<clipPath clipPathUnits="userSpaceOnUse" id="cp10">
			<path d="m16.37 27.66h177.26v8.44h-177.26z"/>
		</clipPath>
		<clipPath clipPathUnits="userSpaceOnUse" id="cp11">
			<path d="m16.37 32.42h177.26v8.44h-177.26z"/>
		</clipPath>
		<clipPath clipPathUnits="userSpaceOnUse" id="cp12">
			<path d="m16.37 37.19h177.26v8.44h-177.26z"/>
		</clipPath>
		<clipPath clipPathUnits="userSpaceOnUse" id="cp13">
			<path d="m16.37 41.95h177.26v8.44h-177.26z"/>
		</clipPath>
		<clipPath clipPathUnits="userSpaceOnUse" id="cp14">
			<path d="m16.37 46.71h177.26v8.44h-177.26z"/>
		</clipPath>
		<clipPath clipPathUnits="userSpaceOnUse" id="cp15">
			<path d="m16.37 51.47h177.26v8.44h-177.26z"/>
		</clipPath>
		<clipPath clipPathUnits="userSpaceOnUse" id="cp16">
			<path d="m-71.37-19.82h640.74v477.5h-640.74z"/>
		</clipPath>
		<clipPath clipPathUnits="userSpaceOnUse" id="cp17">
			<path d="m-71.37-19.82h640.74v477.5h-640.74z"/>
		</clipPath>
		<clipPath clipPathUnits="userSpaceOnUse" id="cp18">
			<path d="m62.4 103.8h310.56v209.84h-310.56z"/>
		</clipPath>
		<clipPath clipPathUnits="userSpaceOnUse" id="cp19">
			<path d="m-71.37-19.82h640.74v477.5h-640.74z"/>
		</clipPath>
		<clipPath clipPathUnits="userSpaceOnUse" id="cp20">
			<path d="m375.41 407.35h11.17v12.82h-11.17z"/>
		</clipPath>
		<clipPath clipPathUnits="userSpaceOnUse" id="cp21">
			<path d="m351.59 190.56h37.7v227.13h-37.7z"/>
		</clipPath>
		<clipPath clipPathUnits="userSpaceOnUse" id="cp22">
			<path d="m352.3 218.02h9.43v79.85h-9.43z"/>
		</clipPath>
		<clipPath clipPathUnits="userSpaceOnUse" id="cp23">
			<path d="m375.52 121.99h21.61v30.87h-21.61z"/>
		</clipPath>
		<clipPath clipPathUnits="userSpaceOnUse" id="cp24">
			<path d="m357.35 388.38h15.43v16.12h-15.43z"/>
		</clipPath>
		<clipPath clipPathUnits="userSpaceOnUse" id="cp25">
			<path d="m315.75 190.56h57.03v210.68h-57.03z"/>
		</clipPath>
		<clipPath clipPathUnits="userSpaceOnUse" id="cp26">
			<path d="m325.89 117.76h23.33v33.51h-23.33z"/>
		</clipPath>
		<clipPath clipPathUnits="userSpaceOnUse" id="cp27">
			<path d="m338.72 187.33h47.61v5.19h-47.61z"/>
		</clipPath>
	</defs>
	<style>
		tspan { white-space:pre } 
		.s0 { fill: #ffffff } 
		.s1 { fill: none;stroke: #e8eff7 } 
		.s2 { fill: #f2f2f2 } 
		.t3 { font-size: 21px;fill: #000000;font-weight: 700;font-family: "Poppins-Bold", "Poppins" } 
		.t4 { font-size: 18px;fill: #000000;font-weight: 700;font-family: "Poppins-Bold", "Poppins" } 
		.s5 { fill: #ebebeb } 
		.s6 { fill: #e6e6e6 } 
		.s7 { fill: #f0f0f0 } 
		.s8 { fill: #fafafa } 
		.s9 { fill: #f5f5f5 } 
		.s10 { fill: #e0e0e0 } 
		.s11 { fill: #407bff } 
		.s12 { fill: #005f83 } 
		.s13 { fill: #ffb573 } 
		.s14 { fill: #263238 } 
		.s15 { fill: #ff5652 } 
		.s16 { fill: #000000 } 
		.t17 { font-size: 41px;fill: #005f83;font-weight: 700;font-family: "Poppins-Bold", "Poppins" } 
		.t18 { font-size: 20px;fill: #005f83;font-weight: 300;font-family: "Poppins-Light", "Poppins" } 
	</style>
	<g id="Clip-Path: Entity_Control_-_All_Entities_1" clip-path="url(#cp1)">
		<g id="Entity_Control_-_All_Entities_1">
			<path id="Layer" class="s0" d="m-711-216h1920v1020h-1920z"/>
			<path id="Line_18" class="s1" d="m-711-163h1920"/>
			<g id="Group_2771">
				<g id="Group_2770">
					<g id="Layer">
						<path id="Rectangle_732-2" class="s0" d="m-711-216h1920v53h-1920z"/>
					</g>
				</g>
				<path id="Rectangle_1498" class="s2" d="m1161-202h23v23h-23z"/>
				<path id="Rectangle_1499" class="s2" d="m1134-202h23v23h-23z"/>
				<path id="Line_18-2" class="s1" d="m-711-216h1920"/>
				<path id="Line_18-3" class="s1" d="m-711-216h1920"/>
				<text id="Entity Control" style="transform: matrix(1,0,0,1,-654,-183)" >
					<tspan x="0" y="0" class="t3">Entity Control
</tspan>
				</text>
				<text id="-    X" style="transform: matrix(1,0,0,1,1141,-184)" >
					<tspan x="0" y="0" class="t4">-    X
</tspan>
				</text>
			</g>
			<g id="Group_3057">
				<g id="Clip-Path: Group_3056" clip-path="url(#cp2)">
					<g id="Group_3056">
						<path id="Rectangle_1577" class="s5" d="m-71.4 399.8h640.8v0.3h-640.8z"/>
						<path id="Rectangle_1578" class="s5" d="m462.7 420.4h42.5v0.3h-42.5z"/>
						<path id="Rectangle_1579" class="s5" d="m341.9 423.9h11.2v0.3h-11.2z"/>
						<path id="Rectangle_1580" class="s5" d="m436.8 408.5h24.6v0.3h-24.6z"/>
						<path id="Rectangle_1581" class="s5" d="m-4.1 410.7h55.3v0.3h-55.3z"/>
						<path id="Rectangle_1582" class="s5" d="m62.6 410.7h8.1v0.3h-8.1z"/>
						<path id="Rectangle_1583" class="s5" d="m97.1 416.1h120.1v0.3h-120.1z"/>
						<g id="Group_3019">
							<g id="Clip-Path: Group_3018" clip-path="url(#cp3)">
								<g id="Group_3018">
									<path id="Path_1370" fill-rule="evenodd" class="s5" d="m232.4 342.6h-247.5q-1.5 0-2.8-0.5-1.3-0.6-2.4-1.6-1-1-1.6-2.4-0.5-1.3-0.5-2.8v-347.8q0-1.5 0.5-2.8 0.6-1.3 1.6-2.4 1.1-1 2.4-1.6 1.3-0.5 2.8-0.5h247.5q1.4 0 2.8 0.5 1.3 0.6 2.3 1.6 1.1 1.1 1.6 2.4 0.6 1.3 0.6 2.8v347.8q0 1.5-0.6 2.8-0.5 1.4-1.6 2.4-1 1-2.3 1.6-1.4 0.5-2.8 0.5zm-247.5-362.1q-1.4 0-2.7 0.5-1.3 0.6-2.2 1.5-1 1-1.6 2.3-0.5 1.3-0.5 2.7v347.8q0 1.4 0.5 2.7 0.6 1.3 1.6 2.3 0.9 1 2.2 1.5 1.3 0.5 2.7 0.5h247.5q1.3 0 2.6-0.5 1.3-0.5 2.3-1.5 1-1 1.5-2.3 0.5-1.3 0.6-2.7v-347.8q-0.1-1.4-0.6-2.7-0.5-1.3-1.5-2.3-1-0.9-2.3-1.5-1.3-0.5-2.6-0.5z"/>
									<path id="Path_1371" fill-rule="evenodd" class="s5" d="m509.5 342.6h-247.4q-1.5 0-2.8-0.5-1.4-0.6-2.4-1.6-1-1-1.6-2.4-0.5-1.3-0.5-2.8v-347.8q0-1.5 0.5-2.8 0.6-1.3 1.6-2.4 1-1 2.4-1.6 1.3-0.5 2.8-0.5h247.4q1.5 0 2.8 0.5 1.4 0.6 2.4 1.6 1 1.1 1.6 2.4 0.6 1.3 0.6 2.8v347.8q0 1.5-0.6 2.8-0.6 1.4-1.6 2.4-1 1-2.4 1.6-1.3 0.5-2.8 0.5zm-247.4-362.1q-1.4 0-2.7 0.5-1.3 0.6-2.3 1.5-0.9 1-1.5 2.3-0.5 1.3-0.5 2.7v347.8q0 1.4 0.5 2.7 0.6 1.3 1.5 2.3 1 1 2.3 1.5 1.3 0.5 2.7 0.5h247.4q1.4 0 2.7-0.5 1.3-0.5 2.3-1.5 1-1 1.5-2.3 0.5-1.3 0.5-2.7v-347.8q0-1.4-0.5-2.7-0.5-1.3-1.5-2.3-1-0.9-2.3-1.5-1.3-0.5-2.7-0.5z"/>
									<path id="Rectangle_1584" class="s6" d="m299.9 17.2h176.5v115.6h-176.5z"/>
									<path id="Rectangle_1585" class="s7" d="m294.5 17.2h179.4v115.6h-179.4z"/>
									<path id="Rectangle_1586" class="s6" d="m299.9 132.8h176.5v22.7h-176.5z"/>
									<path id="Rectangle_1587" class="s7" d="m285.5 132.8h179.4v22.7h-179.4z"/>
									<path id="Rectangle_1588" class="s8" d="m302 24.7h164.4v100.6h-164.4z"/>
									<path id="Path_1372" class="s0" d="m396.6 125.3l-21-100.6h32.7l21 100.6z"/>
									<path id="Path_1373" class="s7" d="m462.7 117.7q-0.1 0-0.2-0.1-0.1-0.1-0.1-0.2-0.1-0.1-0.1-0.2v-87.6q0-0.2 0.2-0.3 0.2-0.2 0.4-0.2 0.2 0 0.4 0.2 0.1 0.1 0.1 0.3v87.6q0 0.1 0 0.2-0.1 0.1-0.1 0.2-0.1 0.1-0.2 0.1-0.1 0.1-0.2 0.1-0.1 0-0.2-0.1z"/>
									<path id="Path_1374" class="s0" d="m376.8 125.3l-21.1-100.6h12.8l21 100.6z"/>
									<path id="Rectangle_1589" class="s6" d="m302 24.7h1v100.6h-1z"/>
									<g id="Group_2984" style="opacity: .6">
										<g id="Group_2983">
											<g id="Clip-Path: Group_2982" clip-path="url(#cp4)">
												<g id="Group_2982">
													<path id="Path_1375" class="s5" d="m293.4 27.7h176.6l-0.7 8.4h-176.6z"/>
												</g>
											</g>
										</g>
									</g>
									<g id="Group_2987" style="opacity: .6">
										<g id="Group_2986">
											<g id="Clip-Path: Group_2985" clip-path="url(#cp5)">
												<g id="Group_2985">
													<path id="Path_1376" class="s5" d="m293.4 41.5h176.6l-0.7 8.4h-176.6z"/>
												</g>
											</g>
										</g>
									</g>
									<g id="Group_2990" style="opacity: .6">
										<g id="Group_2989">
											<g id="Clip-Path: Group_2988" clip-path="url(#cp6)">
												<g id="Group_2988">
													<path id="Path_1377" class="s5" d="m293.4 55.4h176.6l-0.7 8.4h-176.6z"/>
												</g>
											</g>
										</g>
									</g>
									<g id="Group_2993" style="opacity: .6">
										<g id="Group_2992">
											<g id="Clip-Path: Group_2991" clip-path="url(#cp7)">
												<g id="Group_2991">
													<path id="Path_1378" class="s5" d="m293.4 69.2h176.6l-0.7 8.4h-176.6z"/>
												</g>
											</g>
										</g>
									</g>
									<g id="Group_2996" style="opacity: .6">
										<g id="Group_2995">
											<g id="Clip-Path: Group_2994" clip-path="url(#cp8)">
												<g id="Group_2994">
													<path id="Path_1379" class="s5" d="m293.4 83h176.6l-0.7 8.5h-176.6z"/>
												</g>
											</g>
										</g>
									</g>
									<g id="Group_2999" style="opacity: .6">
										<g id="Group_2998">
											<g id="Clip-Path: Group_2997" clip-path="url(#cp9)">
												<g id="Group_2997">
													<path id="Path_1380" class="s5" d="m293.4 96.9h176.6l-0.7 8.4h-176.6z"/>
												</g>
											</g>
										</g>
									</g>
									<path id="Rectangle_1596" class="s6" d="m414.1 315.7h37v7.3h-37z"/>
									<path id="Rectangle_1597" class="s6" d="m344.2 231.8h6.9v168h-6.9z"/>
									<path id="Rectangle_1598" class="s9" d="m320.6 315.7h93.5v7.3h-93.5z"/>
									<path id="Rectangle_1599" class="s6" d="m414.1 355.7h37v7.2h-37z"/>
									<path id="Rectangle_1600" class="s9" d="m320.6 355.7h93.5v7.2h-93.5z"/>
									<path id="Rectangle_1601" class="s6" d="m414.1 235.8h37v7.3h-37z"/>
									<path id="Rectangle_1602" class="s9" d="m320.6 235.8h93.5v7.3h-93.5z"/>
									<path id="Rectangle_1603" class="s6" d="m414.1 275.8h37v7.3h-37z"/>
									<path id="Rectangle_1604" class="s9" d="m320.6 275.8h93.5v7.3h-93.5z"/>
									<path id="Rectangle_1605" class="s6" d="m437.7 231.8h6.9v168h-6.9z"/>
									<path id="Rectangle_1606" class="s9" d="m407.2 231.8h6.9v168h-6.9z"/>
									<path id="Rectangle_1607" class="s9" d="m320.6 231.8h6.8v168h-6.8z"/>
									<path id="Rectangle_1608" class="s6" d="m12.4 264.1h69.9v135.7h-69.9z"/>
									<path id="Path_1381" class="s8" d="m31.1 399.8h-18.7v-18.7h38.3z"/>
									<path id="Rectangle_1609" class="s6" d="m203.1 264.1h69.9v135.7h-69.9z"/>
									<path id="Rectangle_1610" class="s8" d="m12.4 264.1h207v129.3h-207z"/>
									<path id="Path_1382" class="s8" d="m181.1 381.1h38.3v18.7h-18.7z"/>
									<path id="Rectangle_1611" class="s7" d="m26.9 312.3h178v32.3h-178z"/>
									<path id="Rectangle_1612" class="s7" d="m26.9 351.5h178v32.4h-178z"/>
									<path id="Path_1383" class="s8" d="m58.5 315.3q-1.1-0.5-1.9-1.3-0.8-0.8-1.3-1.9-0.4-1.1-0.4-2.2v-0.4h122v0.4q0 1.1-0.4 2.2-0.5 1.1-1.3 1.9-0.8 0.8-1.9 1.3-1.1 0.4-2.2 0.4h-110.4q-1.1 0-2.2-0.4z"/>
									<path id="Rectangle_1613" class="s7" d="m26.9 273h178v32.4h-178z"/>
									<path id="Path_1384" class="s8" d="m58.5 276q-1.1-0.4-1.9-1.3-0.8-0.8-1.3-1.9-0.4-1-0.4-2.2v-0.4h122v0.4q0 1.2-0.4 2.2-0.5 1.1-1.3 1.9-0.8 0.9-1.9 1.3-1.1 0.5-2.2 0.5h-110.4q-1.1 0-2.2-0.5z"/>
									<path id="Path_1385" class="s8" d="m58.5 354.5q-1.1-0.4-1.9-1.2-0.8-0.9-1.3-1.9-0.4-1.1-0.4-2.3v-0.4h122v0.4q0 1.2-0.4 2.3-0.5 1-1.3 1.9-0.8 0.8-1.9 1.2-1.1 0.5-2.2 0.5h-110.4q-1.1 0-2.2-0.5z"/>
									<path id="Rectangle_1614" class="s6" d="m23.5 17.2h176.6v115.6h-176.6z"/>
									<path id="Rectangle_1615" class="s7" d="m18.2 17.2h179.4v115.6h-179.4z"/>
									<path id="Rectangle_1616" class="s6" d="m23.5 132.8h176.6v22.7h-176.6z"/>
									<path id="Rectangle_1617" class="s7" d="m9.2 132.8h179.4v22.7h-179.4z"/>
									<path id="Rectangle_1618" class="s8" d="m25.7 24.7h164.3v100.6h-164.3z"/>
									<path id="Path_1386" class="s0" d="m120.2 125.3l-21-100.6h32.8l21 100.6z"/>
									<path id="Path_1387" class="s7" d="m186.4 117.7q-0.1 0-0.2-0.1-0.1-0.1-0.1-0.2-0.1-0.1-0.1-0.2v-87.6q0-0.2 0.2-0.3 0.1-0.2 0.4-0.2 0.2 0 0.3 0.2 0.2 0.1 0.2 0.3v87.6q0 0.1 0 0.2-0.1 0.1-0.2 0.2 0 0.1-0.1 0.1-0.1 0.1-0.2 0.1-0.1 0-0.2-0.1z"/>
									<path id="Path_1388" class="s0" d="m100.4 125.3l-21-100.6h12.8l21 100.6z"/>
									<path id="Rectangle_1619" class="s6" d="m25.7 24.7h1v100.6h-1z"/>
									<g id="Group_3002" style="opacity: .6">
										<g id="Group_3001">
											<g id="Clip-Path: Group_3000" clip-path="url(#cp10)">
												<g id="Group_3000">
													<path id="Path_1389" class="s5" d="m17.1 27.7h176.5l-0.7 8.4h-176.5z"/>
												</g>
											</g>
										</g>
									</g>
									<g id="Group_3005" style="opacity: .6">
										<g id="Group_3004">
											<g id="Clip-Path: Group_3003" clip-path="url(#cp11)">
												<g id="Group_3003">
													<path id="Path_1390" class="s5" d="m17.1 32.4h176.5l-0.7 8.5h-176.5z"/>
												</g>
											</g>
										</g>
									</g>
									<g id="Group_3008" style="opacity: .6">
										<g id="Group_3007">
											<g id="Clip-Path: Group_3006" clip-path="url(#cp12)">
												<g id="Group_3006">
													<path id="Path_1391" class="s5" d="m17.1 37.2h176.5l-0.7 8.4h-176.5z"/>
												</g>
											</g>
										</g>
									</g>
									<g id="Group_3011" style="opacity: .6">
										<g id="Group_3010">
											<g id="Clip-Path: Group_3009" clip-path="url(#cp13)">
												<g id="Group_3009">
													<path id="Path_1392" class="s5" d="m17.1 41.9h176.5l-0.7 8.5h-176.5z"/>
												</g>
											</g>
										</g>
									</g>
									<g id="Group_3014" style="opacity: .6">
										<g id="Group_3013">
											<g id="Clip-Path: Group_3012" clip-path="url(#cp14)">
												<g id="Group_3012">
													<path id="Path_1393" class="s5" d="m17.1 46.7h176.5l-0.7 8.4h-176.5z"/>
												</g>
											</g>
										</g>
									</g>
									<g id="Group_3017" style="opacity: .6">
										<g id="Group_3016">
											<g id="Clip-Path: Group_3015" clip-path="url(#cp15)">
												<g id="Group_3015">
													<path id="Path_1394" class="s5" d="m17.1 51.5h176.5l-0.7 8.4h-176.5z"/>
												</g>
											</g>
										</g>
									</g>
									<path id="Rectangle_1626" class="s9" d="m51.7 191.9h6.1v68.1h-6.1z"/>
									<path id="Rectangle_1627" class="s8" d="m52.5 191.9h1.7v68h-1.7z"/>
									<path id="Rectangle_1628" class="s8" d="m54.9 191.9h0.7v68h-0.7z"/>
									<path id="Path_1395" class="s7" d="m32.6 261.9q0.4-1 1.2-1.8 0.8-0.8 1.8-1.3 1.1-0.4 2.2-0.4h33.8q1.2 0 2.2 0.4 1 0.5 1.8 1.3 0.8 0.8 1.3 1.8 0.4 1.1 0.4 2.2h-45.2q0-1.1 0.5-2.2z"/>
									<path id="Path_1396" class="s7" d="m43.1 234q-0.3-0.1-0.6-0.4-0.2-0.2-0.4-0.5-0.1-0.4-0.1-0.7v-44.6c0-0.5 0.2-0.9 0.5-1.2 0.4-0.3 0.8-0.5 1.2-0.5 0.5 0 0.9 0.2 1.3 0.5 0.3 0.3 0.5 0.7 0.5 1.2v44.6q0 0.3-0.1 0.7-0.2 0.3-0.4 0.5-0.3 0.3-0.6 0.4-0.3 0.2-0.7 0.2-0.3 0-0.6-0.2z"/>
									<path id="Path_1397" class="s10" d="m33.7 169.9h42.1l6.2 38.2h-54.6z"/>
								</g>
							</g>
						</g>
						<g id="Group_3021">
							<g id="Clip-Path: Group_3020" clip-path="url(#cp16)">
								<g id="Group_3020">
									<path id="Path_1398" class="s9" d="m497.5 443.2c0 8-111.3 14.5-248.5 14.5-137.2 0-248.5-6.5-248.5-14.5 0-8 111.3-14.5 248.5-14.5 137.2 0 248.5 6.5 248.5 14.5z"/>
								</g>
							</g>
						</g>
						<path id="Rectangle_1631" class="s11" d="m60.8 169.2l1.3-0.1 1.7 23.6-1.3 0.1z"/>
						<path id="Rectangle_1632" class="s11" d="m63.4 205l1.2-0.1 0.7 8.9-1.3 0.1z"/>
						<g id="Group_3026">
							<g id="Clip-Path: Group_3025" clip-path="url(#cp17)">
								<g id="Group_3025">
									<path id="Path_1399" class="s11" d="m361.4 313.6h-274.4c-1.6 0-3.1-0.3-4.5-0.9-1.4-0.5-2.6-1.4-3.8-2.4-1.1-1-2-2.2-2.6-3.6-0.7-1.4-1.1-2.8-1.2-4.4l-13.5-187.2c-0.1-1.5 0-2.9 0.5-4.3 0.5-1.4 1.2-2.6 2.2-3.7 1-1 2.2-1.9 3.5-2.5 1.4-0.5 2.8-0.8 4.3-0.8h274.4c1.5 0 3 0.3 4.4 0.9 1.4 0.6 2.7 1.4 3.8 2.4 1.1 1.1 2 2.3 2.7 3.6 0.7 1.4 1.1 2.9 1.2 4.4l13.5 187.3c0.1 1.4-0.1 2.9-0.5 4.2-0.5 1.4-1.3 2.7-2.3 3.7-0.9 1.1-2.1 1.9-3.5 2.5-1.3 0.6-2.7 0.9-4.2 0.8z"/>
									<path id="Path_1400" class="s11" d="m362.5 313.6h-274.5c-1.5 0-3-0.3-4.4-0.9-1.4-0.5-2.7-1.4-3.8-2.4-1.1-1-2-2.2-2.7-3.6-0.6-1.4-1.1-2.8-1.2-4.4l-13.5-187.2c-0.1-1.5 0.1-2.9 0.6-4.3 0.4-1.4 1.2-2.6 2.2-3.7 0.9-1 2.1-1.9 3.5-2.5 1.3-0.5 2.8-0.8 4.2-0.8h274.4c1.6 0 3.1 0.3 4.5 0.9 1.4 0.6 2.7 1.4 3.8 2.4 1.1 1.1 2 2.3 2.6 3.6 0.7 1.4 1.1 2.9 1.2 4.4l13.5 187.2c0.2 1.5 0 2.9-0.5 4.3-0.5 1.4-1.2 2.7-2.2 3.7-1 1.1-2.2 1.9-3.5 2.5-1.4 0.6-2.8 0.9-4.2 0.8z"/>
									<g id="Group_3024">
										<g id="Group_3023">
											<g id="Clip-Path: Group_3022" clip-path="url(#cp18)">
												<g id="Group_3022">
													<path id="Path_1401" class="s12" d="m362.5 313.6h-274.5c-1.5 0-3-0.3-4.4-0.9-1.4-0.5-2.7-1.4-3.8-2.4-1.1-1-2-2.2-2.7-3.6-0.6-1.4-1.1-2.8-1.2-4.4l-13.5-187.2c-0.1-1.5 0.1-2.9 0.6-4.3 0.4-1.4 1.2-2.6 2.2-3.7 0.9-1 2.1-1.9 3.5-2.5 1.3-0.5 2.8-0.8 4.2-0.8h274.4c1.6 0 3.1 0.3 4.5 0.9 1.4 0.6 2.7 1.4 3.8 2.4 1.1 1.1 2 2.3 2.6 3.6 0.7 1.4 1.1 2.9 1.2 4.4l13.5 187.2c0.2 1.5 0 2.9-0.5 4.3-0.5 1.4-1.2 2.7-2.2 3.7-1 1.1-2.2 1.9-3.5 2.5-1.4 0.6-2.8 0.9-4.2 0.8z"/>
												</g>
											</g>
										</g>
									</g>
									<path id="Path_1402" class="s0" d="m348.7 109.5c7.1 0.6 7.2 11.2 0.1 11.2h-274.9c-7.1 0-8.5-10.6-1.5-11.2q0.4-0.1 0.9-0.1h274.4q0.5 0 1 0.1z"/>
									<path id="Path_1403" class="s12" d="m80.5 115.1q0 0.5-0.2 1-0.1 0.4-0.5 0.8-0.3 0.4-0.8 0.6-0.4 0.2-0.9 0.2-0.6 0-1.1-0.2-0.4-0.2-0.8-0.6-0.4-0.3-0.6-0.8-0.3-0.5-0.3-1-0.1-0.5 0.1-1 0.2-0.5 0.5-0.8 0.4-0.4 0.8-0.6 0.5-0.2 1-0.2 0.5 0 1 0.2 0.5 0.2 0.9 0.6 0.4 0.3 0.6 0.8 0.2 0.5 0.3 1z"/>
									<path id="Path_1404" class="s12" d="m89.3 115.1q0 0.5-0.2 1-0.1 0.4-0.5 0.8-0.3 0.4-0.8 0.6-0.4 0.2-0.9 0.2-0.6 0-1.1-0.2-0.4-0.2-0.8-0.6-0.4-0.3-0.6-0.8-0.3-0.5-0.3-1-0.1-0.5 0.1-1 0.2-0.5 0.5-0.8 0.4-0.4 0.8-0.6 0.5-0.2 1-0.2 0.5 0 1 0.2 0.5 0.2 0.9 0.6 0.4 0.3 0.6 0.8 0.2 0.5 0.3 1z"/>
									<path id="Path_1405" class="s12" d="m98.1 115.1q0 0.5-0.2 1-0.1 0.4-0.5 0.8-0.3 0.4-0.8 0.6-0.4 0.2-0.9 0.2-0.6 0-1.1-0.2-0.4-0.2-0.8-0.6-0.4-0.3-0.6-0.8-0.3-0.5-0.3-1-0.1-0.5 0.1-1 0.2-0.5 0.5-0.8 0.4-0.4 0.8-0.6 0.5-0.2 1-0.2 0.5 0 1 0.2 0.5 0.2 0.9 0.6 0.4 0.3 0.6 0.8 0.2 0.5 0.3 1z"/>
									<path id="Path_1406" class="s0" d="m355.2 294.9h-262.6q-0.8 0-1.6-0.3-0.8-0.3-1.4-0.9-0.6-0.5-1-1.3-0.3-0.7-0.4-1.5l-11.1-154q0-0.8 0.2-1.6 0.3-0.8 0.8-1.3 0.6-0.6 1.3-0.9 0.7-0.3 1.5-0.3h262.6q0.8 0 1.6 0.3 0.8 0.3 1.4 0.9 0.6 0.5 1 1.3 0.3 0.7 0.4 1.6l11.1 154q0 0.7-0.2 1.5-0.3 0.8-0.8 1.3-0.6 0.6-1.3 0.9-0.7 0.4-1.5 0.3z"/>
									<path id="Path_1407" class="s0" d="m196.5 236.3l-4.8-67.2h35.6l13 7.8 4.3 59.4z"/>
									<path id="Path_1408" fill-rule="evenodd" class="s12" d="m244.6 236.9h-48.1q-0.1 0-0.2 0-0.1-0.1-0.2-0.2-0.1 0-0.1-0.2-0.1-0.1-0.1-0.2l-4.8-67.1q0-0.2 0-0.3 0.1-0.1 0.1-0.2 0.1-0.1 0.2-0.1 0.2-0.1 0.3-0.1h35.6q0.1 0 0.1 0 0.1 0 0.1 0 0 0 0.1 0.1 0 0 0 0l13 7.8q0.1 0 0.1 0.1 0.1 0 0.1 0.1 0 0.1 0.1 0.1 0 0.1 0 0.2l4.3 59.3q0 0.2-0.1 0.3 0 0.1-0.1 0.2-0.1 0.1-0.2 0.2-0.1 0-0.2 0zm-47.5-1.2h46.8l-4.2-58.4-12.5-7.5h-34.8z"/>
									<path id="Path_1409" class="s5" d="m232.1 179.5l-4.8-10.4 13 7.8z"/>
									<path id="Path_1410" fill-rule="evenodd" class="s12" d="m232.1 180.1q-0.1 0-0.2 0-0.1-0.1-0.2-0.1 0-0.1-0.1-0.1 0-0.1-0.1-0.2l-4.7-10.3q-0.1-0.2-0.1-0.4 0.1-0.2 0.2-0.3 0.2-0.2 0.4-0.2 0.2 0 0.3 0.1l13 7.8q0.2 0.1 0.2 0.3 0.1 0.1 0.1 0.3 0 0.2-0.1 0.3-0.2 0.2-0.3 0.2l-8.2 2.6q-0.1 0-0.1 0 0 0 0 0-0.1 0-0.1 0 0 0 0 0zm-3.4-9.4l3.7 8 6.4-2z"/>
									<path id="Path_1411" class="s12" d="m211.8 199.4q0 0.5-0.1 1-0.2 0.5-0.6 0.9-0.3 0.4-0.8 0.6-0.5 0.2-1 0.2-0.6 0-1.1-0.2-0.5-0.2-0.9-0.6-0.4-0.4-0.6-0.9-0.3-0.5-0.3-1-0.1-0.5 0.1-1 0.2-0.5 0.5-0.9 0.4-0.4 0.9-0.6 0.5-0.2 1-0.2 0.5 0 1.1 0.2 0.5 0.2 0.9 0.6 0.4 0.3 0.6 0.8 0.2 0.5 0.3 1.1z"/>
									<path id="Path_1412" class="s12" d="m229.4 199.4q0 0.5-0.1 1-0.2 0.5-0.6 0.9-0.3 0.4-0.8 0.6-0.5 0.2-1 0.2-0.6 0-1.1-0.2-0.5-0.2-0.9-0.6-0.4-0.4-0.6-0.9-0.3-0.5-0.3-1-0.1-0.5 0.1-1 0.2-0.5 0.5-0.9 0.4-0.4 0.9-0.6 0.5-0.2 1-0.2 0.5 0 1.1 0.2 0.5 0.2 0.9 0.6 0.4 0.3 0.6 0.8 0.3 0.5 0.3 1.1z"/>
									<path id="Path_1413" class="s12" d="m234.4 217q-0.2 0-0.3-0.1-0.1 0-0.2-0.1 0-0.1-0.1-0.2 0-0.1-0.1-0.2c-0.3-4.4-7.1-7.9-15.2-7.9-5.4 0-10.2 1.6-12.6 4.2q-0.3 0.3-0.6 0.7-0.3 0.5-0.5 0.9-0.2 0.5-0.3 1-0.1 0.5 0 1 0 0.3-0.2 0.5-0.2 0.2-0.4 0.2-0.3 0-0.5-0.2-0.1-0.1-0.2-0.4 0-0.6 0.1-1.3 0.1-0.6 0.3-1.2 0.3-0.6 0.6-1.1 0.4-0.5 0.8-1c2.6-2.8 7.8-4.6 13.5-4.6 8.9 0 16.1 4 16.5 9.1q0 0.1 0 0.3-0.1 0.1-0.2 0.2 0 0.1-0.2 0.1-0.1 0.1-0.2 0.1c0 0 0 0 0 0z"/>
									<path id="Path_1414" class="s12" d="m201.8 193.9q-0.2 0-0.3-0.1-0.2-0.1-0.3-0.3 0-0.2 0-0.3 0-0.2 0.1-0.4l2.8-2.9q0.1-0.2 0.4-0.2 0.2 0 0.4 0.2 0.2 0.2 0.2 0.4 0 0.3-0.1 0.5l-2.8 2.9q0 0 0 0.1-0.1 0-0.2 0 0 0.1-0.1 0.1 0 0-0.1 0z"/>
									<path id="Path_1415" class="s12" d="m233.1 193.9q-0.1 0-0.1 0-0.1 0-0.1-0.1-0.1 0-0.1 0-0.1 0-0.1-0.1l-3.2-2.9q-0.2-0.2-0.2-0.4 0-0.3 0.2-0.5 0.2-0.2 0.4-0.2 0.3 0 0.5 0.2l3.1 2.9q0.2 0.1 0.2 0.3 0 0.2 0 0.4-0.1 0.2-0.3 0.3-0.1 0.1-0.3 0.1z"/>
									<path id="Path_1416" class="s12" d="m187.8 249.5h2.9l4.2 5.6-0.4-5.6h2.9l0.7 10.1h-2.9l-4.1-5.5 0.4 5.5h-3z"/>
									<path id="Path_1417" fill-rule="evenodd" class="s12" d="m199.5 254.6q-0.2-1.1 0-2.1 0.3-1 1-1.7 0.7-0.8 1.7-1.2 1-0.3 2.1-0.2 0.5-0.1 1 0 0.6 0.1 1.1 0.3 0.5 0.1 0.9 0.4 0.5 0.3 0.9 0.6 0.4 0.4 0.7 0.8 0.3 0.5 0.5 0.9 0.2 0.5 0.3 1 0.1 0.6 0.1 1.1 0.1 0.4 0.1 0.7 0 0.4-0.1 0.8 0 0.3-0.1 0.7-0.1 0.3-0.2 0.7-0.2 0.3-0.3 0.5-0.2 0.3-0.4 0.5-0.2 0.2-0.4 0.4-0.3 0.2-0.5 0.3-0.3 0.2-0.7 0.3-0.3 0.1-0.7 0.2-0.3 0.1-0.7 0.1-0.3 0.1-0.7 0.1-0.3 0-0.7-0.1-0.4 0-0.7-0.1-0.4 0-0.7-0.1-0.4-0.1-0.7-0.3-0.3-0.1-0.6-0.3-0.3-0.2-0.5-0.4-0.2-0.2-0.5-0.5-0.2-0.2-0.3-0.5-0.3-0.3-0.4-0.7-0.2-0.3-0.3-0.7-0.1-0.4-0.2-0.8 0-0.3 0-0.7zm3.1 0q0 0.3 0 0.6 0 0.3 0.1 0.5 0.1 0.3 0.3 0.6 0.1 0.2 0.3 0.5 0.1 0.1 0.3 0.3 0.2 0.1 0.4 0.2 0.2 0.1 0.4 0.1 0.2 0 0.5 0 0.2 0 0.4 0 0.2 0 0.4-0.1 0.2-0.1 0.4-0.2 0.1-0.2 0.3-0.3 0.1-0.3 0.2-0.6 0.1-0.3 0.1-0.6 0.1-0.2 0.1-0.6 0-0.3-0.1-0.6 0-0.2 0-0.5-0.1-0.3-0.1-0.5-0.1-0.3-0.3-0.6-0.1-0.2-0.3-0.4-0.1-0.2-0.3-0.3-0.2-0.1-0.4-0.2-0.2-0.1-0.4-0.1-0.3-0.1-0.5-0.1-0.2 0-0.4 0.1-0.2 0-0.4 0.1-0.2 0.1-0.3 0.2-0.2 0.1-0.3 0.3-0.2 0.2-0.3 0.5-0.1 0.3-0.1 0.6-0.1 0.2-0.1 0.5 0 0.3 0.1 0.6z"/>
									<path id="Path_1418" fill-rule="evenodd" class="s12" d="m215.9 249.5h4.6q0.3 0 0.6 0.1 0.2 0 0.5 0 0.3 0.1 0.6 0.1 0.2 0.1 0.5 0.2 0.2 0.1 0.4 0.2 0.2 0.1 0.4 0.3 0.2 0.1 0.4 0.3 0.1 0.1 0.3 0.3 0.1 0.2 0.3 0.3 0.1 0.2 0.2 0.4 0.1 0.2 0.2 0.5 0.1 0.2 0.2 0.4 0.1 0.2 0.1 0.5 0.1 0.2 0.1 0.4 0.1 0.3 0.1 0.5 0.1 0.3 0.1 0.5 0 0.3 0 0.7 0 0.3 0 0.6 0 0.3-0.1 0.6 0 0.3-0.1 0.6-0.1 0.2-0.2 0.4-0.1 0.2-0.2 0.4-0.1 0.2-0.2 0.4-0.2 0.2-0.3 0.3-0.2 0.2-0.3 0.3-0.2 0.1-0.3 0.2-0.2 0.1-0.4 0.2-0.2 0.1-0.4 0.1-0.2 0.1-0.4 0.1-0.2 0.1-0.5 0.1-0.2 0.1-0.4 0.1-0.3 0-0.5 0h-4.6zm3.3 2.3l0.4 5.5h0.7q0.2 0 0.4 0 0.1 0 0.3-0.1 0.2 0 0.4-0.1 0.1 0 0.3-0.1 0.1 0 0.2-0.1 0.1-0.1 0.2-0.2 0-0.1 0.1-0.2 0-0.1 0.1-0.2 0-0.2 0.1-0.4 0-0.3 0-0.5 0-0.2 0-0.4 0-0.2 0-0.5 0-0.3-0.1-0.5 0-0.3-0.1-0.6-0.1-0.3-0.2-0.5-0.1-0.3-0.3-0.5-0.2-0.2-0.4-0.3-0.2-0.1-0.4-0.2-0.2-0.1-0.5-0.1-0.2-0.1-0.5 0z"/>
									<path id="Path_1419" fill-rule="evenodd" class="s12" d="m232.9 257.9h-3.5l-0.4 1.7h-3.1l3-10.1h3.4l4.5 10.1h-3.3zm-0.8-2.2l-1.3-3.6-0.9 3.6z"/>
									<path id="Path_1420" class="s12" d="m235.4 249.5h9.4l0.2 2.5h-3.2l0.6 7.6h-3.1l-0.6-7.6h-3.1z"/>
									<path id="Path_1421" fill-rule="evenodd" class="s12" d="m252 257.9h-3.5l-0.4 1.7h-3.1l3-10.1h3.4l4.5 10.1h-3.2zm-0.8-2.2l-1.4-3.6-0.9 3.6z"/>
								</g>
							</g>
						</g>
						<g id="Group_3055">
							<g id="Clip-Path: Group_3054" clip-path="url(#cp19)">
								<g id="Group_3054">
									<path id="Path_1422" class="s13" d="m381.9 131.6c1.1-0.6 2.5-1.4 3.7-2q2-1.1 3.9-2.3c2.5-1.5 5-3 7.4-4.7q1.8-1.3 3.6-2.6 1.7-1.3 3.4-2.7 1.7-1.4 3.3-2.8 1.6-1.5 3.2-3c0.5-0.5 1-1.1 1.5-1.6l0.7-0.8 0.4-0.3 0.2-0.2q0-0.1 0-0.1l-0.1 0.1c-0.2 0.4 0 0.2 0.1-0.1q0-0.2 0-0.3 0.1-0.2 0.1-0.4 0-0.2 0-0.3 0-0.2 0-0.4 0-1 0-2-0.1-1-0.2-2.1-0.1-1-0.3-2-0.2-1-0.4-2c-1.1-5.7-2.9-11.6-4.6-17.4l5-2.2q1.2 2.1 2.3 4.2 1 2.1 2 4.3 1 2.2 1.9 4.4 0.9 2.2 1.7 4.5 0.4 1.2 0.7 2.5 0.4 1.2 0.7 2.5 0.2 1.3 0.4 2.5 0.2 1.3 0.3 2.6 0.1 0.4 0.1 0.8 0 0.4 0 0.8 0 0.4-0.1 0.8 0 0.4-0.1 0.8 0 0.6-0.2 1.2-0.1 0.5-0.3 1-0.2 0.6-0.5 1.1-0.2 0.5-0.5 0.9l-0.2 0.3-0.2 0.3-0.2 0.2-0.4 0.5-0.8 0.9c-0.5 0.7-1 1.3-1.6 1.9q-1.6 1.9-3.4 3.6-1.7 1.7-3.5 3.3-1.9 1.7-3.8 3.2-1.9 1.5-3.9 2.9c-2.6 2-5.3 3.8-8 5.4q-2.1 1.3-4.2 2.4c-1.5 0.8-2.8 1.5-4.5 2.3z"/>
									<path id="Path_1423" fill-rule="evenodd" class="s12" d="m369.9 432.8q-0.2 0-0.5-0.1-0.3 0-0.5-0.1-0.2-0.2-0.5-0.3-0.1-0.1-0.2-0.3-0.1-0.2-0.2-0.3 0-0.2 0-0.4 0-0.2 0-0.4 0-0.1 0.1-0.2 0-0.1 0.1-0.2 0-0.1 0.1-0.2 0.1 0 0.2-0.1c1.3-0.6 4.5 1.6 4.9 1.8q0.1 0 0.1 0.1 0 0.1 0 0.2 0 0-0.1 0.1 0 0-0.1 0.1-0.3 0-0.7 0.1-0.3 0.1-0.7 0.1-0.3 0.1-0.7 0.1-0.4 0-0.7 0-0.3 0.1-0.6 0zm-1.2-2.1q0 0-0.1 0 0 0.1 0 0.1-0.1 0.1-0.1 0.1 0 0.1 0 0.1 0 0.1 0 0.2 0 0.2 0 0.3 0.1 0.1 0.1 0.2 0.1 0.1 0.2 0.2c0.5 0.5 1.9 0.6 3.8 0.2-1.3-0.8-3.2-1.7-3.9-1.4z"/>
									<path id="Path_1424" fill-rule="evenodd" class="s12" d="m373.2 432.5q0 0 0 0 0-0.1 0-0.1-0.1 0-0.1 0c-1-0.6-2.9-2.9-2.7-4.1q0-0.1 0.1-0.3 0.1-0.1 0.2-0.2 0.1-0.1 0.3-0.1 0.1-0.1 0.3-0.1 0.1 0 0.2 0 0.2 0 0.3 0.1 0.2 0 0.3 0.1 0.1 0.1 0.2 0.2c1.2 1 1.2 4.1 1.2 4.2q0 0 0 0.1 0 0 0 0 0 0.1-0.1 0.1 0 0 0 0 0 0 0 0-0.1 0-0.1 0.1 0 0 0 0 0 0 0 0-0.1 0-0.1 0zm-1.8-4.4q0 0 0 0 0 0-0.1 0 0 0 0 0c-0.3 0.1-0.4 0.2-0.4 0.3-0.2 0.8 1.1 2.5 2.1 3.3-0.1-1-0.3-2.8-1-3.4q-0.1 0-0.1-0.1-0.1 0-0.2 0 0-0.1-0.1-0.1-0.1 0-0.2 0 0 0 0 0z"/>
									<path id="Path_1425" class="s13" d="m372.3 99.5c-1.2 6.4-3.9 19.3 0.6 23.5 0 0-1.8 6.5-13.6 6.5-13 0-6.2-6.5-6.2-6.5 7.1-1.7 6.9-6.9 5.7-11.9z"/>
									<path id="Path_1426" class="s12" d="m350.6 125.6c-2 0.3-0.3-5 0.5-5.6 1.9-1.2 26.7-3 26.6 0-0.1 1.3-0.7 3.8-1.8 4.7-1.1 0.8-7.5-1.8-25.3 0.9z"/>
									<path id="Path_1427" class="s12" d="m354.6 123.8c-1.6 0.6-1.4-4.8-0.9-5.4 1.3-1.5 21.4-6.7 22-3.7 0.2 1.2 0.3 3.7-0.4 4.7-0.7 1-6.6-0.6-20.7 4.4z"/>
									<path id="Path_1428" class="s14" d="m347.2 88q-0.1 0-0.1 0-0.1 0-0.2 0 0 0-0.1-0.1 0 0 0-0.1-0.3-0.3-0.7-0.6-0.4-0.3-0.8-0.5-0.5-0.3-0.9-0.4-0.5-0.1-1 0-0.2 0-0.3-0.2-0.2-0.1-0.2-0.3 0-0.2 0.1-0.3 0.1-0.2 0.3-0.2 0.6-0.1 1.2 0 0.6 0.2 1.2 0.4 0.5 0.3 1 0.6 0.5 0.4 0.8 0.9 0.1 0.1 0.1 0.3 0.1 0.1 0 0.2 0 0.2-0.2 0.2-0.1 0.1-0.2 0.1z"/>
									<path id="Path_1429" class="s15" d="m345.3 100.4q-0.4 0.1-0.8 0.2-0.4 0-0.8 0-0.4-0.1-0.8-0.2-0.4-0.1-0.7-0.3 0.4-0.7 0.7-1.4 0.4-0.7 0.7-1.4 0.3-0.7 0.6-1.5 0.3-0.7 0.5-1.5z"/>
									<path id="Path_1430" class="s14" d="m345.3 92.7c0.1 0.9-0.3 1.6-0.8 1.7-0.6 0.1-1.1-0.6-1.2-1.5-0.1-0.8 0.3-1.6 0.8-1.6 0.6-0.1 1.1 0.6 1.2 1.4z"/>
									<path id="Path_1431" class="s14" d="m344.4 91.3l-2.1-0.4c0 0 1.2 1.5 2.1 0.4z"/>
									<path id="Path_1432" class="s13" d="m385.7 432.2h-10.7l0.8-24.9h10.8z"/>
									<path id="Path_1433" class="s14" d="m374.2 431h12q0.2 0 0.3 0 0.2 0.1 0.3 0.2 0.1 0.1 0.2 0.2 0 0.1 0.1 0.3l1.3 9.5q0.1 0.4 0 0.8-0.1 0.3-0.4 0.6-0.2 0.2-0.6 0.4-0.3 0.1-0.7 0.1c-4.2 0-6.2-0.3-11.5-0.3-3.3 0-8 0.4-12.5 0.4-4.5 0-4.8-4.5-2.9-4.9 8.4-1.8 9.7-4.3 12.6-6.7q0.1-0.1 0.4-0.3 0.2-0.1 0.4-0.2 0.2 0 0.5-0.1 0.2 0 0.5 0z"/>
									<g id="Group_3029" style="opacity: .2">
										<g id="Group_3028">
											<g id="Clip-Path: Group_3027" clip-path="url(#cp20)">
												<g id="Group_3027">
													<path id="Path_1434" class="s16" d="m386.2 420.2h-10.8l0.4-12.8h10.8z"/>
												</g>
											</g>
										</g>
									</g>
									<path id="Path_1435" class="s13" d="m343 137.9q-2.4-0.9-4.9-2-2.4-1-4.8-2.1-2.4-1-4.8-2.2-2.4-1.1-4.8-2.3-2.4-1.2-4.8-2.5-2.3-1.3-4.6-2.7-2.4-1.4-4.6-2.9-2.2-1.6-4.4-3.2-0.6-0.4-1.2-0.9-0.5-0.5-1.1-1-0.5-0.5-1.1-1-0.5-0.5-1-1c-0.4-0.4-0.7-0.8-1.1-1.2q-0.1-0.2-0.3-0.3-0.1-0.2-0.2-0.4-0.2-0.2-0.3-0.4-0.2-0.2-0.3-0.3-0.3-0.6-0.6-1.1-0.3-0.6-0.5-1.2-0.2-0.5-0.4-1.1-0.1-0.6-0.2-1.3-0.1-0.6 0-1.1 0-0.6 0-1.2 0.1-0.6 0.3-1.2 0.1-0.6 0.3-1.1 0.2-0.5 0.4-0.9 0.2-0.4 0.4-0.8 0.2-0.5 0.5-0.9 0.2-0.4 0.5-0.7 0.5-0.7 1-1.3 0.5-0.6 1-1.1 0.6-0.6 1.2-1.1 0.6-0.6 1.2-1.1 1.1-0.8 2.2-1.6 1.1-0.8 2.3-1.6 1.2-0.7 2.4-1.4 1.2-0.7 2.4-1.3 2.4-1.3 4.9-2.3c1.6-0.7 3.2-1.4 5-2l2.3 4.9c-5.6 3.5-11.4 7.4-15.7 11.8q-0.3 0.3-0.7 0.7-0.3 0.4-0.6 0.8-0.3 0.4-0.6 0.8-0.3 0.4-0.6 0.9c-0.6 1-0.6 1.7-0.5 1.7 0.1 0 0-0.1 0.2 0.1l0.5 0.5c0.2 0.3 0.5 0.5 0.7 0.7q0.4 0.4 0.8 0.8 0.4 0.3 0.9 0.7 0.4 0.3 0.9 0.7 0.4 0.3 0.9 0.6 0.9 0.7 2 1.4 1 0.6 2 1.3 1 0.6 2.1 1.2 1 0.6 2.1 1.2 4.3 2.4 8.9 4.6c6 2.9 12.3 5.7 18.4 8.2z"/>
									<path id="Path_1436" class="s13" d="m327.4 87.1q-0.6 0.8-1.3 1.3-0.8 0.6-1.7 1-0.9 0.4-1.8 0.5c-3-3.5-0.5-11-0.5-11l8.1 2.8-1.8 3.8q-0.4 0.9-1 1.6z"/>
									<path id="Path_1437" class="s13" d="m330.2 81.7l-8.1-2.8 1.6-7.4 6.5 1.8z"/>
									<path id="Path_1438" class="s13" d="m410.4 84.8c-4.4-1.4-4.3-9.8-4.3-9.8l8.3-2-0.9 9z"/>
									<path id="Path_1439" class="s13" d="m414.4 73l-8.3 2-1.1-5.7 5.4-2.5z"/>
									<path id="Path_1440" class="s13" d="m374 86.9c0.4 10.7 0.8 15.2-4 21.1-7.3 9-20.4 7.1-24-3.2-3.2-9.3-3.3-25.1 6.6-30.3 2.2-1.2 4.7-1.8 7.2-1.7 2.4 0 4.9 0.7 7 1.9 2.1 1.3 3.9 3.1 5.2 5.2 1.2 2.1 1.9 4.6 2 7z"/>
									<path id="Path_1441" class="s14" d="m352.1 93.5c-5.1-5.6-14.8-14.9-4.5-23.6 5.9-5 15.8-0.6 19.8-3.5 4-3 13.6-1.6 16.4 12.7 2.9 14.9-4 24.4-14.4 28.9-10.3 4.4-14.3-8.3-17.3-14.5z"/>
									<path id="Path_1442" class="s12" d="m367.4 61.3c4.8-3.4 11.5-1.9 15.1 3.2 3.5 5.1 2.4 11.9-2.4 15.2-4.8 3.4-11.6 1.9-15.1-3.2-3.5-5.1-2.5-11.9 2.4-15.2z"/>
									<path id="Path_1443" class="s14" d="m367.7 67.4c-1.5-8.6 6.6-15.2 17.5-12 10.9 3.2 5.1 12.8 2.9 20.5-2.2 7.7 3.6 15 6.1 9.2 2.4-5.9-1.7-7.7-1.7-7.7 0 0 11.5 3 0.8 16-10.7 13-20.4-1.4-17.8-9.8 2.1-6.9-6.3-8.1-7.8-16.2z"/>
									<path id="Path_1444" class="s14" d="m352 83.9l-14.6-1c0 0-0.9-5.1 1.3-8.9 4.8-8 13.2-6 18.2-3.4z"/>
									<path id="Path_1445" class="s14" d="m335.6 80.4q0 0-0.1 0-0.1 0-0.1-0.1 0 0-0.1-0.1 0-0.1 0-0.1c0-0.2 0.4-5.4 3.5-8.6 7.5-7.8 16.3-1.4 18.9 0.8q0.1 0.1 0.1 0.2 0 0.2-0.1 0.3-0.1 0.1-0.2 0.1-0.2 0-0.3-0.1c-2.4-2.1-10.8-8.3-17.9-0.9-3 3.1-3.3 8.2-3.3 8.2q0 0.1-0.1 0.1 0 0.1 0 0.1-0.1 0.1-0.1 0.1-0.1 0-0.2 0z"/>
									<path id="Path_1446" class="s13" d="m353.9 93.1q0 0.7-0.2 1.4-0.1 0.8-0.4 1.5-0.3 0.7-0.7 1.3-0.3 0.7-0.8 1.2c-1.8 2.1-3.8 1.1-4.3-1.2-0.4-2.1 0-5.6 2.2-6.9 2.2-1.2 4.2 0.3 4.2 2.7z"/>
									<path id="Path_1447" class="s14" d="m383.7 190.6c13.9 19.4-3.4 35.1 3.3 119 2.7 33.2 1.3 108.1 1.3 108.1h-14.7c0 0-9.6-77.6-14.9-111.1-6.4-41.5-7.1-116-7.1-116z"/>
									<g id="Group_3032" style="opacity: .1">
										<g id="Group_3031">
											<g id="Clip-Path: Group_3030" clip-path="url(#cp21)">
												<g id="Group_3030">
													<path id="Path_1448" class="s0" d="m383.7 190.6c13.9 19.4-3.4 35.1 3.3 119 2.7 33.2 1.3 108.1 1.3 108.1h-14.7c0 0-9.6-77.6-14.9-111.1-6.4-41.5-7.1-116-7.1-116z"/>
												</g>
											</g>
										</g>
									</g>
									<g id="Group_3035" style="opacity: .3">
										<g id="Group_3034">
											<g id="Clip-Path: Group_3033" clip-path="url(#cp22)">
												<g id="Group_3033">
													<path id="Path_1449" class="s16" d="m359.3 224.4c5.1 22.5 1 57.9-1.8 73.5-3-23.7-4.5-54.4-5.2-76.9 2.7-4.3 5.2-4.6 7 3.4z"/>
												</g>
											</g>
										</g>
									</g>
									<path id="Path_1450" class="s12" d="m371.5 410.8l19.7 0.6-0.9 6.6h-18.7z"/>
									<path id="Path_1451" class="s11" d="m376.9 127.7c1.8-3.5 11.2-5.7 16.4-5.7l3.8 17.1c0 0-10.2 15.3-14.5 13.6-5.1-1.9-9.4-17.6-5.7-25z"/>
									<g id="Group_3038">
										<g id="Group_3037">
											<g id="Clip-Path: Group_3036" clip-path="url(#cp23)">
												<g id="Group_3036">
													<path id="Path_1452" class="s12" d="m376.9 127.7c1.8-3.5 11.2-5.7 16.4-5.7l3.8 17.1c0 0-10.2 15.3-14.5 13.6-5.1-1.9-9.4-17.6-5.7-25z"/>
												</g>
											</g>
										</g>
									</g>
									<path id="Path_1453" fill-rule="evenodd" class="s12" d="m366.1 413.8q0 0 0 0 0 0-0.1 0 0 0 0 0c-1.2 1.3-3.4 3.5-5 3.3q-0.1 0-0.3-0.1-0.2 0-0.3-0.1-0.1-0.1-0.3-0.2-0.1-0.2-0.2-0.3 0-0.1-0.1-0.2 0-0.1 0-0.2 0-0.1 0-0.2 0-0.1 0.1-0.2c0.6-1.4 5.4-2.1 5.9-2.2q0.1 0 0.1 0 0 0 0.1 0 0 0 0 0.1 0.1 0 0.1 0 0 0.1 0 0.1 0 0 0 0.1 0 0 0 0 0 0.1 0 0.1 0 0 0 0zm-5.7 2q0 0 0 0 0 0 0 0 0 0-0.1 0 0 0 0 0.1 0 0 0 0.1 0 0 0 0.1 0.1 0 0.1 0 0 0.1 0.1 0.2 0.1 0.1 0.2 0.2 0.1 0 0.2 0.1 0.1 0 0.2 0c0.9 0.1 2.4-0.9 4-2.6-1.8 0.4-4.3 1-4.7 1.8q0 0 0 0z"/>
									<path id="Path_1454" fill-rule="evenodd" class="s12" d="m366 413.8q0 0 0 0.1 0 0 0 0-0.1 0-0.1 0c-1.4 0.3-4.8-0.1-5.3-1.2-0.2-0.3-0.2-0.7 0.3-1.1q0.2-0.2 0.3-0.3 0.2-0.1 0.4-0.1 0.1-0.1 0.3-0.1 0.2 0 0.4 0c1.8 0.1 3.7 2.3 3.7 2.4q0.1 0 0.1 0 0 0.1 0 0.1 0 0 0 0.1 0 0 0 0 0 0 0 0 0 0.1 0 0.1 0 0 0 0 0 0 0 0 0 0-0.1 0zm-5-1.6q0 0.1 0 0.1 0 0.1 0 0.1 0 0 0 0.1c0.3 0.6 2.8 1.1 4.3 1-0.6-0.6-1.9-1.8-3-1.9q-0.2 0-0.3 0-0.1 0-0.3 0.1-0.1 0-0.2 0.1-0.1 0-0.3 0.1 0 0.1 0 0.1 0 0-0.1 0.1 0 0 0 0 0 0-0.1 0.1 0 0 0 0z"/>
									<path id="Path_1455" class="s13" d="m377.3 409.2l-9.9 4.4-4.3-9.1-5.8-11.9-0.6-1.4 9.8-4.4 0.7 1.6 5.6 11.5z"/>
									<g id="Group_3041" style="opacity: .2">
										<g id="Group_3040">
											<g id="Clip-Path: Group_3039" clip-path="url(#cp24)">
												<g id="Group_3039">
													<path id="Path_1456" class="s16" d="m372.8 399.9l-9.7 4.6-5.8-11.9 9.9-4.2z"/>
												</g>
											</g>
										</g>
									</g>
									<path id="Path_1457" class="s14" d="m372.8 190.6c0 34.4-28.5 79.7-24.1 111.7 2.3 16.5 23.3 92.3 23.3 92.3l-13.1 6.6c0 0-34-62.8-41.7-96-8.5-36.7 22.9-114.6 22.9-114.6z"/>
									<g id="Group_3044" style="opacity: .1">
										<g id="Group_3043">
											<g id="Clip-Path: Group_3042" clip-path="url(#cp25)">
												<g id="Group_3042">
													<path id="Path_1458" class="s0" d="m372.8 190.6c0 34.4-28.5 79.7-24.1 111.7 2.3 16.5 23.3 92.3 23.3 92.3l-13.1 6.6c0 0-34-62.8-41.7-96-8.5-36.7 22.9-114.6 22.9-114.6z"/>
												</g>
											</g>
										</g>
									</g>
									<path id="Path_1459" class="s14" d="m365.7 412.2l9.7-7.1q0.2-0.1 0.3-0.1 0.2 0 0.3 0 0.2 0 0.3 0 0.2 0.1 0.3 0.2l6.7 6.9q0.2 0.3 0.3 0.7 0.2 0.3 0.1 0.7 0 0.3-0.2 0.7-0.2 0.3-0.5 0.5c-3.4 2.4-5.2 3.4-9.5 6.5-2.6 1.9-7.9 6.2-11.5 8.8-3.6 2.6-6.5-0.8-5.2-2.2 5.7-6.4 6.9-10.4 7.8-14q0.1-0.2 0.2-0.4 0.1-0.3 0.2-0.5 0.2-0.2 0.3-0.3 0.2-0.2 0.4-0.4z"/>
									<path id="Path_1460" class="s12" d="m354.6 397.6l18.2-8.2 2.2 6.9-17 7.7z"/>
									<path id="Path_1461" class="s11" d="m340.3 151.2c-4.4 1.2-14.4-13.2-14.4-13.2l2.7-20.2c6.1 1.4 18.4 5.4 19.8 9 3 7.8-2.9 23-8.1 24.4z"/>
									<g id="Group_3047">
										<g id="Group_3046">
											<g id="Clip-Path: Group_3045" clip-path="url(#cp26)">
												<g id="Group_3045">
													<path id="Path_1462" class="s12" d="m340.3 151.2c-4.4 1.2-14.4-13.2-14.4-13.2l2.7-20.2c6.1 1.4 18.4 5.4 19.8 9 3 7.8-2.9 23-8.1 24.4z"/>
												</g>
											</g>
										</g>
									</g>
									<path id="Path_1463" class="s12" d="m353.1 123q2.5-0.2 4.9-0.2 2.5-0.1 5-0.1 2.5 0 4.9 0.1 2.5 0 5 0.2 2.3 0.2 4.6 0.4 2.4 0.2 4.7 0.5 2.3 0.3 4.6 0.7 2.3 0.4 4.6 0.9c-8.5 36.4-8.5 47.3-7.7 65.1h-43.6c-10.3-63-5.2-64.8-5.2-64.8 0 0 9.7-2 18.2-2.8z"/>
									<path id="Path_1465" class="s11" d="m384.3 188l2 3.9c0.1 0.3-0.2 0.6-0.7 0.6h-45.7c-0.4 0-0.8-0.2-0.8-0.4l-0.4-3.9c0-0.3 0.3-0.5 0.8-0.5h44.1q0.1 0 0.2 0 0.1 0 0.2 0 0.1 0.1 0.2 0.2 0.1 0 0.1 0.1z"/>
									<g id="Group_3053">
										<g id="Group_3052">
											<g id="Clip-Path: Group_3051" clip-path="url(#cp27)">
												<g id="Group_3051">
													<path id="Path_1466" class="s12" d="m384.3 187.7l2 4.2c0.1 0.3-0.2 0.6-0.7 0.6h-45.7c-0.4 0-0.8-0.2-0.8-0.5l-0.4-4.1c0-0.3 0.3-0.6 0.8-0.6h44.1q0.1 0 0.2 0 0.1 0.1 0.2 0.1 0.1 0.1 0.2 0.1 0.1 0.1 0.1 0.2z"/>
												</g>
											</g>
										</g>
									</g>
									<path id="Path_1467" class="s0" d="m377.9 192.7l-0.5-5.1c0-0.1 0.1-0.3 0.4-0.3h1.2c0.2 0 0.4 0.2 0.4 0.3l0.6 5.1c0 0.1-0.2 0.2-0.4 0.2h-1.2c-0.2 0-0.4-0.1-0.5-0.2z"/>
									<path id="Path_1468" class="s0" d="m349.3 192.7l-0.6-5.1c0-0.1 0.2-0.3 0.4-0.3h1.2c0.2 0 0.4 0.2 0.5 0.3l0.5 5.1c0 0.1-0.1 0.2-0.4 0.2h-1.2c-0.2 0-0.4-0.1-0.4-0.2z"/>
								</g>
							</g>
						</g>
					</g>
				</g>
			</g>
			<text id="No Data Found" style="transform: matrix(1,0,0,1,83.626,564.821)" >
				<tspan x="0" y="0" class="t17">No Data Found
</tspan>
			</text>
			<text id="Please Try Again Later" style="transform: matrix(1,0,0,1,139.626,600.821)" >
				<tspan x="0" y="0" class="t18">Please Try Again Later
</tspan>
			</text>
		</g>
	</g>
</svg>