<svg xmlns="http://www.w3.org/2000/svg" width="91.848" height="91.884" viewBox="0 0 91.848 91.884">
  <g id="Group_1" data-name="Group 1" transform="translate(-5049.831 -2933.1)">
    <path id="Path_1" data-name="Path 1" d="M5098.455,3024.984h-5.381c-1.593-.2-3.2-.337-4.777-.611a44.3,44.3,0,0,1-24.428-12.362c-12.308-12.354-16.579-27.188-12.591-44.156a43.7,43.7,0,0,1,18.183-26.389,45.893,45.893,0,0,1,71.5,29.609c.282,1.638.477,3.291.712,4.938v6.278a6.407,6.407,0,0,0-.174.672c-.283,1.914-.449,3.852-.852,5.74a45.876,45.876,0,0,1-36.8,35.553C5102.064,3024.573,5100.253,3024.745,5098.455,3024.984Zm-31.071-14.342c.608-.356,1.215-.733,1.841-1.076,4.057-2.218,8.11-4.442,12.181-6.635a4.126,4.126,0,0,0,2.332-3.92c0-1.2.042-2.394-.021-3.586a2.825,2.825,0,0,0-.446-1.385,33.683,33.683,0,0,1-4.491-9.21,4.24,4.24,0,0,0-.819-1.433,5.746,5.746,0,0,1-1.557-3.528q-.1-3.18-.088-6.362a6.174,6.174,0,0,1,1.2-3.772,1.613,1.613,0,0,0,.289-.9c.013-2.63.068-5.263-.029-7.891a13.188,13.188,0,0,1,7.852-12.575,24.573,24.573,0,0,1,9.949-1.886,23.433,23.433,0,0,1,10.383,1.928c4.667,2.222,7.382,5.9,7.712,11.09.188,2.947.01,5.915.058,8.873a5.952,5.952,0,0,0,.478,1.645,12.274,12.274,0,0,1,.893,2.766c.154,2.142.129,4.3.1,6.449a6.1,6.1,0,0,1-2.845,5.2,3.021,3.021,0,0,0-.924,1.113c-.989,1.968-1.645,4.176-2.953,5.893a10.689,10.689,0,0,0-2.177,7.8,4.215,4.215,0,0,0,2.346,3.816q7.679,3.844,15.392,7.694a42.515,42.515,0,1,0-56.659-.1Z" fill="#006caa"/>
  </g>
</svg>
