<svg xmlns="http://www.w3.org/2000/svg" xmlns:xlink="http://www.w3.org/1999/xlink" width="38" height="38" viewBox="0 0 38 38">
  <defs>
    <clipPath id="clip-path">
      <circle id="Ellipse_476" data-name="Ellipse 476" cx="19" cy="19" r="19" transform="translate(1462 499)" fill="#fff" stroke="#00638a" stroke-width="1"/>
    </clipPath>
    <clipPath id="clip-path-2">
      <rect id="Rectangle_1541" data-name="Rectangle 1541" width="27.513" height="32.436" fill="#006186"/>
    </clipPath>
  </defs>
  <g id="Group_2986" data-name="Group 2986" transform="translate(-1462 -499)">
    <g id="Ellipse_475" data-name="Ellipse 475" transform="translate(1462 499)" fill="#fff" stroke="#00638a" stroke-width="1">
      <circle cx="19" cy="19" r="19" stroke="none"/>
      <circle cx="19" cy="19" r="18.5" fill="none"/>
    </g>
    <g id="Mask_Group_47" data-name="Mask Group 47" clip-path="url(#clip-path)">
      <g id="Group_2988" data-name="Group 2988" transform="translate(1467.244 508)">
        <g id="Group_2987" data-name="Group 2987" clip-path="url(#clip-path-2)">
          <path id="Path_1372" data-name="Path 1372" d="M.895,180.26A1.418,1.418,0,0,1,0,178.73c.046-1.677-.012-3.359.078-5.032a9.882,9.882,0,0,1,1.894-5.219,10.723,10.723,0,0,1,5.405-4.041,11.24,11.24,0,0,1,3.606-.567c1.847-.012,3.695-.015,5.542,0A10.723,10.723,0,0,1,25,167.776a9.758,9.758,0,0,1,2.358,5.327c.138,1.3.108,2.611.142,3.917.015.57-.025,1.142.009,1.71a1.389,1.389,0,0,1-.892,1.53Z" transform="translate(0 -147.825)" fill="#006186"/>
          <path id="Path_1373" data-name="Path 1373" d="M70.544,0a7.595,7.595,0,1,1-7.615,7.563A7.6,7.6,0,0,1,70.544,0" transform="translate(-56.77 0)" fill="#006186"/>
        </g>
      </g>
    </g>
  </g>
</svg>
