<svg xmlns="http://www.w3.org/2000/svg" width="236.774" height="236.774" viewBox="0 0 236.774 236.774">
  <path id="user-svgrepo-com_1_" data-name="user-svgrepo-com (1)" d="M236.774,118.387A118.387,118.387,0,1,0,38.426,205.6l-.112.1,3.84,3.237c.25.211.521.383.771.59,2.041,1.692,4.154,3.3,6.307,4.852.7.5,1.395,1.007,2.105,1.5q3.448,2.376,7.069,4.512c.525.31,1.055.611,1.584.913,2.639,1.5,5.334,2.919,8.093,4.219.2.095.409.181.611.276a117.321,117.321,0,0,0,28.632,9.062l.792.142c3.117.538,6.268.969,9.458,1.257.387.034.775.056,1.167.09,3.177.263,6.389.43,9.643.43,3.224,0,6.406-.168,9.566-.422.4-.034.8-.056,1.2-.09q4.746-.433,9.376-1.236c.267-.047.538-.095.805-.146a117.317,117.317,0,0,0,28.228-8.847c.327-.151.659-.293.986-.448q3.984-1.873,7.8-4.029.949-.536,1.89-1.089c2.316-1.365,4.593-2.79,6.806-4.3.8-.542,1.576-1.115,2.363-1.683,1.89-1.36,3.745-2.764,5.549-4.232.4-.323.831-.6,1.223-.934l3.939-3.289-.116-.1A118.081,118.081,0,0,0,236.774,118.387Zm-228.164,0a109.777,109.777,0,1,1,182.579,82.066,32.269,32.269,0,0,0-3.844-2.312l-36.45-18.223a9.542,9.542,0,0,1-5.3-8.58v-12.73c.844-1.042,1.735-2.221,2.656-3.517a87.727,87.727,0,0,0,11.262-22.054,15.624,15.624,0,0,0,8.976-14.159V103.617a15.663,15.663,0,0,0-3.819-10.2V73.327c.224-2.234,1.016-14.844-8.106-25.244-7.934-9.058-20.776-13.642-38.172-13.642S88.149,39.025,80.215,48.078c-9.122,10.4-8.33,23.01-8.106,25.244V93.414a15.686,15.686,0,0,0-3.819,10.2v15.261a15.66,15.66,0,0,0,5.769,12.144,80.891,80.891,0,0,0,13.315,27.5v12.459a9.6,9.6,0,0,1-5,8.429L48.332,197.977a31.118,31.118,0,0,0-3.237,2.049A109.513,109.513,0,0,1,8.61,118.387Zm174.175,88.82c-1.507,1.093-3.039,2.152-4.593,3.164-.715.465-1.425.93-2.152,1.382-2.032,1.257-4.1,2.454-6.208,3.573-.465.245-.934.478-1.4.719a109.7,109.7,0,0,1-15.016,6.354c-.181.06-.362.125-.547.185q-4.049,1.343-8.2,2.376c-.009,0-.017,0-.026,0-2.79.689-5.614,1.261-8.455,1.731-.077.013-.155.03-.232.043-2.673.435-5.368.749-8.072.986-.478.043-.956.073-1.438.108-2.673.2-5.36.331-8.059.331-2.729,0-5.45-.133-8.158-.336-.469-.034-.938-.065-1.4-.108-2.729-.241-5.446-.564-8.136-1l-.362-.065a109.367,109.367,0,0,1-16.746-4.18l-.508-.172q-4.062-1.382-8.016-3.069L75,219.205c-2.488-1.072-4.929-2.26-7.34-3.513-.314-.164-.633-.319-.943-.486-2.2-1.175-4.352-2.445-6.475-3.771q-.943-.594-1.873-1.2c-1.954-1.279-3.883-2.609-5.76-4.017-.194-.146-.379-.3-.573-.448l.413-.232L86.491,186.97a18.2,18.2,0,0,0,9.492-15.989l0-15.507-.99-1.2a71.879,71.879,0,0,1-12.919-26.76l-.392-1.7-1.468-.951a7.134,7.134,0,0,1-3.311-5.993V103.608a7.03,7.03,0,0,1,2.4-5.265l1.421-1.283V73.081l-.039-.564a25.929,25.929,0,0,1,6.01-18.77c6.225-7.095,16.893-10.7,31.7-10.7,14.749,0,25.382,3.573,31.624,10.616,7.284,8.227,6.092,18.774,6.083,18.86l-.039,24.543,1.421,1.283a7.039,7.039,0,0,1,2.4,5.265v15.261a7.19,7.19,0,0,1-5.084,6.78l-2.14.659-.689,2.131a79.642,79.642,0,0,1-10.745,21.663c-1.128,1.593-2.226,3-3.168,4.085l-1.068,1.218v15.924a18.1,18.1,0,0,0,10.065,16.281l36.45,18.223c.232.116.461.237.689.357C183.724,206.549,183.25,206.872,182.785,207.207Z" fill="#005f83"/>
</svg>
