<svg xmlns="http://www.w3.org/2000/svg" width="33" height="24.2" viewBox="0 4.4 33 24.2"><g data-name="credit-card-svgrepo-com"><path d="M30.68 4.4H2.32A2.322 2.322 0 0 0 0 6.72v19.56c0 1.28 1.04 2.32 2.32 2.32h28.36c1.28 0 2.32-1.04 2.32-2.32V6.72c0-1.28-1.04-2.32-2.32-2.32Zm1.22 21.88a1.22 1.22 0 0 1-1.22 1.22H2.32a1.22 1.22 0 0 1-1.22-1.22V6.72c0-.673.547-1.22 1.22-1.22h28.36c.673 0 1.22.547 1.22 1.22v19.56Z" fill="#bababa" fill-rule="evenodd" data-name="Path 1339"/><path d="M2.75 24.75H8.8v-4.4H2.75v4.4Zm1.1-3.3H7.7v2.2H3.85v-2.2Z" fill="#bababa" fill-rule="evenodd" data-name="Path 1340"/><path d="M9.9 24.75h6.05v-4.4H9.9v4.4Zm1.1-3.3h3.85v2.2H11v-2.2Z" fill="#bababa" fill-rule="evenodd" data-name="Path 1341"/><path d="M17.05 24.75h6.05v-4.4h-6.05v4.4Zm1.1-3.3H22v2.2h-3.85v-2.2Z" fill="#bababa" fill-rule="evenodd" data-name="Path 1342"/><path d="M24.2 24.75h6.05v-4.4H24.2v4.4Zm1.1-3.3h3.85v2.2H25.3v-2.2Z" fill="#bababa" fill-rule="evenodd" data-name="Path 1343"/><path d="M3.99 15.4h7.42c.683 0 1.24-.557 1.24-1.24V8.94c0-.683-.557-1.24-1.24-1.24H3.99c-.683 0-1.24.557-1.24 1.24v5.22c0 .683.557 1.24 1.24 1.24Zm2.06-3.3h-2.2V11h2.2v1.1Zm-2.2 2.06v-.96h2.2v.96c0 .048.009.093.014.14H3.99a.14.14 0 0 1-.14-.14Zm7.7-2.06h-2.2v-.96a.14.14 0 0 1 .14-.14h1.92c.048 0 .093-.009.14-.014V12.1Zm-.14 2.2H9.336c.005-.047.014-.092.014-.14v-.96h2.2v.96a.14.14 0 0 1-.14.14Zm0-5.5a.14.14 0 0 1 .14.14v.82a.14.14 0 0 1-.14.14H9.49c-.683 0-1.24.557-1.24 1.24v3.02a.14.14 0 0 1-.14.14h-.82a.14.14 0 0 1-.14-.14V8.94a.14.14 0 0 1 .14-.14h4.12Zm-7.42 0h2.074c-.005.047-.014.092-.014.14v.96h-2.2v-.96a.14.14 0 0 1 .14-.14Z" fill="#bababa" fill-rule="evenodd" data-name="Path 1344"/><path d="M17.6 8.8h4.95a.55.55 0 1 0 0-1.1H17.6a.55.55 0 1 0 0 1.1Z" fill="#bababa" fill-rule="evenodd" data-name="Path 1345"/><path d="M29.7 7.7h-4.95a.55.55 0 1 0 0 1.1h4.95a.55.55 0 1 0 0-1.1Z" fill="#bababa" fill-rule="evenodd" data-name="Path 1346"/><path d="M17.6 11.55h.55a.55.55 0 1 0 0-1.1h-.55a.55.55 0 1 0 0 1.1Z" fill="#bababa" fill-rule="evenodd" data-name="Path 1347"/><path d="M20.35 10.45a.55.55 0 1 0 0 1.1h1.1a.55.55 0 1 0 0-1.1h-1.1Z" fill="#bababa" fill-rule="evenodd" data-name="Path 1348"/><path d="M24.75 11a.55.55 0 0 0-.55-.55h-.55a.55.55 0 1 0 0 1.1h.55a.55.55 0 0 0 .55-.55Z" fill="#bababa" fill-rule="evenodd" data-name="Path 1349"/><path d="M27.5 11.55a.55.55 0 1 0 0-1.1h-1.1a.55.55 0 1 0 0 1.1h1.1Z" fill="#bababa" fill-rule="evenodd" data-name="Path 1350"/><path d="M29.31 10.61a.576.576 0 0 0-.16.39c0 .143.06.286.16.39.103.1.241.16.39.16.143 0 .286-.06.39-.16a.578.578 0 0 0 .16-.39.578.578 0 0 0-.16-.39.576.576 0 0 0-.78 0Z" fill="#bababa" fill-rule="evenodd" data-name="Path 1351"/></g></svg>