<svg xmlns="http://www.w3.org/2000/svg" width="33" height="18.886" viewBox="0 6.057 33 18.886"><g data-name="cash-svgrepo-com"><path d="M32.322 6.057H4.175a.678.678 0 0 0-.678.679v1.07h-1.07a.678.678 0 0 0-.678.678v1.07H.679a.678.678 0 0 0-.679.678v14.032c0 .375.304.679.678.679h28.146a.678.678 0 0 0 .679-.679v-1.07h1.07a.678.678 0 0 0 .678-.678v-1.07h1.07a.678.678 0 0 0 .679-.678V6.736a.678.678 0 0 0-.678-.679ZM3.342 10.91a2.76 2.76 0 0 1-1.985 1.986V10.91h1.986Zm24.804 1.986a2.76 2.76 0 0 1-1.986-1.986h1.986v1.986Zm-3.37-1.986a4.116 4.116 0 0 0 3.37 3.371v5.934a4.115 4.115 0 0 0-3.37 3.371H4.727a4.115 4.115 0 0 0-3.371-3.37V14.28a4.116 4.116 0 0 0 3.37-3.37h20.048ZM1.355 21.6a2.76 2.76 0 0 1 1.987 1.986H1.357V21.6Zm24.804 1.986a2.76 2.76 0 0 1 1.986-1.986v1.986H26.16Zm3.734-1.748h-.391V10.232a.678.678 0 0 0-.679-.678H3.105v-.392h26.79v12.676Zm1.75-1.749h-.393V8.484a.678.678 0 0 0-.678-.679H4.853v-.391h26.79v12.675Z" fill="#bababa" fill-rule="evenodd" data-name="Path 1337"/><path d="M11.538 21.25c.844 1.138 1.985 1.765 3.213 1.765 1.229 0 2.37-.627 3.214-1.765.799-1.077 1.239-2.498 1.239-4.002 0-1.503-.44-2.925-1.24-4.002-.843-1.138-1.984-1.764-3.213-1.764-1.228 0-2.369.626-3.213 1.764-.799 1.077-1.239 2.499-1.239 4.002 0 1.504.44 2.925 1.24 4.002Zm3.214.408c-.647 0-1.248-.284-1.745-.77a1.76 1.76 0 0 1 1.745-1.543 1.76 1.76 0 0 1 1.744 1.544c-.497.485-1.098.769-1.744.769Zm0-3.698a1.04 1.04 0 0 1 0-2.078 1.04 1.04 0 0 1 0 2.078Zm0-5.121c1.706 0 3.095 1.978 3.095 4.41 0 .818-.158 1.584-.432 2.241a3.139 3.139 0 0 0-.898-.951c.391-.427.63-.995.63-1.618a2.399 2.399 0 0 0-2.395-2.396 2.399 2.399 0 0 0-2.396 2.396c0 .623.239 1.191.63 1.618-.362.25-.67.574-.898.951a5.857 5.857 0 0 1-.432-2.242c0-2.431 1.389-4.41 3.096-4.41Z" fill="#bababa" fill-rule="evenodd" data-name="Path 1338"/></g></svg>