<svg xmlns="http://www.w3.org/2000/svg" width="38.077" height="26.802" viewBox="1 12.698 38.077 26.802"><g data-name="check-svgrepo-com"><path d="M36.426 12.698H3.643C2.185 12.698 1 13.933 1 15.453v21.292c0 1.52 1.185 2.755 2.643 2.755h32.79c1.459 0 2.644-1.235 2.644-2.755V15.453c0-1.52-1.193-2.755-2.651-2.755Zm0 24.665H3.643a.605.605 0 0 1-.592-.618V17.342h33.975v19.403a.612.612 0 0 1-.6.618Zm-24.228-5.6a2.832 2.832 0 0 1-1.466.984c-.258.073-.367.211-.359.487.008.268 0 .545 0 .813 0 .244-.117.374-.35.374-.282.008-.562.008-.843 0-.242-.008-.359-.147-.367-.398 0-.195 0-.399-.007-.594-.008-.439-.016-.455-.421-.52-.515-.081-1.022-.211-1.498-.447-.374-.187-.405-.284-.304-.69.078-.301.156-.602.25-.903.101-.35.195-.39.499-.227.522.284 1.076.439 1.653.52.374.049.74.008 1.084-.146.647-.293.749-1.073.203-1.544a2.715 2.715 0 0 0-.616-.382c-.57-.26-1.162-.455-1.693-.797-.865-.544-1.419-1.284-1.356-2.39.07-1.242.748-2.023 1.848-2.437.452-.17.452-.163.46-.658v-.504c.008-.374.07-.439.42-.447h.328c.757 0 .757 0 .757.788 0 .56 0 .56.538.65a4.72 4.72 0 0 1 1.177.366c.21.097.289.244.226.48-.093.34-.187.682-.288 1.015-.101.317-.195.366-.491.22a3.543 3.543 0 0 0-1.864-.382 1.342 1.342 0 0 0-.499.105c-.561.26-.655.902-.18 1.309.242.203.523.35.812.471.499.211.998.423 1.473.7 1.529.869 1.934 2.843.874 4.184Zm20.25-9.508v1.317c0 .219-.17.39-.373.39H15.933a.383.383 0 0 1-.374-.39v-1.317c0-.22.171-.39.374-.39h16.142c.202 0 .374.179.374.39Zm-16.897 4.803V25.74c0-.219.171-.39.374-.39h9.272c.21 0 .374.18.374.39v1.317c0 .22-.171.39-.374.39h-9.264c-.21.008-.382-.17-.382-.39Zm16.68 2.982a.65.65 0 0 1-.016.512.865.865 0 0 1-.21.35c-.118.106-.242.227-.422.309-.647.268-1.349.536-2.113.674-.64.114-1.185-.065-1.583-.504l-.226.106c-.343.154-.67.293-.983.463-.382.212-.756.431-1.13.65-.289.171-.585.342-.874.504-.25.138-.514.252-.787.333a.981.981 0 0 1-1.022-.268 1.061 1.061 0 0 1-.257-.78c0-.049.008-.09.015-.138-.577.471-1.161.943-1.746 1.406-.336.268-.694.512-1.037.748-.195.13-.398.195-.538.227-.554.146-1.084-.195-1.217-.788-.086-.366.008-.7.055-.894.023-.098.054-.203.085-.3-.413.552-.818 1.12-1.224 1.681l-.296.415c-.125.17-.226.333-.304.48a2.15 2.15 0 0 0-.133.308l-.07.163-.016.048a.64.64 0 0 1-.6.447c-.047 0-.086-.008-.133-.016a.683.683 0 0 1-.522-.748 2.83 2.83 0 0 1 .023-.146c.102-.447.305-.812.5-1.154.959-1.65 1.816-2.942 2.705-4.08.289-.373.609-.706.92-1.032l.032-.032c.163-.179.39-.309.623-.374a.9.9 0 0 1 .944.26c.18.203.257.48.234.764-.023.268-.078.52-.156.756-.117.333-.234.666-.35 1.008-.087.243-.18.487-.258.731.288-.252.577-.512.865-.764.406-.357.811-.715 1.217-1.064.226-.196.468-.342.702-.488l.109-.073c.226-.138.468-.138.569-.138.25 0 .491.105.663.292a.946.946 0 0 1 .242.7 4.614 4.614 0 0 1-.11.739l-.023.097c.14-.09.28-.187.421-.276.242-.155.476-.317.718-.472.631-.406 1.177-.69 1.723-.893.476-.187.897-.155 1.255.073.172.113.328.26.46.439.04.056.055.056.117.056.032 0 .063 0 .094-.008.335-.057.67-.195 1.03-.333l.147-.057c.078-.032.156-.065.234-.105.125-.057.242-.114.375-.155.171-.065.343-.09.475-.106.024 0 .086-.008.11-.008.171 0 .304.065.358.098a.67.67 0 0 1 .335.357Z" fill="#bababa" fill-rule="evenodd" data-name="Path 1336"/></g></svg>