<svg xmlns="http://www.w3.org/2000/svg" width="33" height="24.2" viewBox="515 4735.4 33 24.2"><g data-name="credit-card-svgrepo-com"><path d="M545.68 4735.4h-28.36a2.322 2.322 0 0 0-2.32 2.32v19.56c0 1.28 1.04 2.32 2.32 2.32h28.36c1.28 0 2.32-1.04 2.32-2.32v-19.56c0-1.28-1.04-2.32-2.32-2.32Zm1.22 21.88a1.22 1.22 0 0 1-1.22 1.22h-28.36a1.22 1.22 0 0 1-1.22-1.22v-19.56c0-.673.547-1.22 1.22-1.22h28.36c.673 0 1.22.547 1.22 1.22v19.56Z" fill="#bababa" fill-rule="evenodd" data-name="Path 1339"/><path d="M517.75 4755.75h6.05v-4.4h-6.05v4.4Zm1.1-3.3h3.85v2.2h-3.85v-2.2Z" fill="#bababa" fill-rule="evenodd" data-name="Path 1340"/><path d="M524.9 4755.75h6.05v-4.4h-6.05v4.4Zm1.1-3.3h3.85v2.2H526v-2.2Z" fill="#bababa" fill-rule="evenodd" data-name="Path 1341"/><path d="M532.05 4755.75h6.05v-4.4h-6.05v4.4Zm1.1-3.3H537v2.2h-3.85v-2.2Z" fill="#bababa" fill-rule="evenodd" data-name="Path 1342"/><path d="M539.2 4755.75h6.05v-4.4h-6.05v4.4Zm1.1-3.3h3.85v2.2h-3.85v-2.2Z" fill="#bababa" fill-rule="evenodd" data-name="Path 1343"/><path d="M518.99 4746.4h7.42c.683 0 1.24-.557 1.24-1.24V4739.94c0-.683-.557-1.24-1.24-1.24h-7.42c-.683 0-1.24.557-1.24 1.24v5.22c0 .683.557 1.24 1.24 1.24Zm2.06-3.3h-2.2v-1.1h2.2v1.1Zm-2.2 2.06v-.96h2.2v.96c0 .048.009.093.014.14h-2.074a.14.14 0 0 1-.14-.14Zm7.7-2.06h-2.2v-.96a.14.14 0 0 1 .14-.14h1.92c.048 0 .093-.009.14-.014v1.114Zm-.14 2.2h-2.074c.005-.047.014-.092.014-.14v-.96h2.2v.96a.14.14 0 0 1-.14.14Zm0-5.5a.14.14 0 0 1 .14.14v.82a.14.14 0 0 1-.14.14h-1.92c-.683 0-1.24.557-1.24 1.24v3.02a.14.14 0 0 1-.14.14h-.82a.14.14 0 0 1-.14-.14v-5.22a.14.14 0 0 1 .14-.14h4.12Zm-7.42 0h2.074c-.005.047-.014.092-.014.14v.96h-2.2v-.96a.14.14 0 0 1 .14-.14Z" fill="#bababa" fill-rule="evenodd" data-name="Path 1344"/><path d="M532.6 4739.8h4.95a.55.55 0 1 0 0-1.1h-4.95a.55.55 0 1 0 0 1.1Z" fill="#bababa" fill-rule="evenodd" data-name="Path 1345"/><path d="M544.7 4738.7h-4.95a.55.55 0 1 0 0 1.1h4.95a.55.55 0 1 0 0-1.1Z" fill="#bababa" fill-rule="evenodd" data-name="Path 1346"/><path d="M532.6 4742.55h.55a.55.55 0 1 0 0-1.1h-.55a.55.55 0 1 0 0 1.1Z" fill="#bababa" fill-rule="evenodd" data-name="Path 1347"/><path d="M535.35 4741.45a.55.55 0 1 0 0 1.1h1.1a.55.55 0 1 0 0-1.1h-1.1Z" fill="#bababa" fill-rule="evenodd" data-name="Path 1348"/><path d="M539.75 4742a.55.55 0 0 0-.55-.55h-.55a.55.55 0 1 0 0 1.1h.55a.55.55 0 0 0 .55-.55Z" fill="#bababa" fill-rule="evenodd" data-name="Path 1349"/><path d="M542.5 4742.55a.55.55 0 1 0 0-1.1h-1.1a.55.55 0 1 0 0 1.1h1.1Z" fill="#bababa" fill-rule="evenodd" data-name="Path 1350"/><path d="M544.31 4741.61a.576.576 0 0 0-.16.39c0 .143.06.286.16.39.103.1.241.16.39.16.143 0 .286-.06.39-.16a.578.578 0 0 0 .16-.39.578.578 0 0 0-.16-.39.576.576 0 0 0-.78 0Z" fill="#bababa" fill-rule="evenodd" data-name="Path 1351"/></g></svg>