<svg xmlns="http://www.w3.org/2000/svg" width="50.395" height="50.549" viewBox="208.5 771.226 50.395 50.549"><g data-name="Group 2756" transform="rotate(133 -43.285 453.543)" clip-path="url(&quot;#a&quot;)"><path d="M14.1 6.85c.055-.266.104-.44.126-.616.107-.845-.114-1.593-.71-2.21A671.096 671.096 0 0 0 9.89.3c-.384-.391-.765-.395-1.157-.032-.407.378-.81.763-1.208 1.151-.358.35-.392.788-.097 1.098.294.31.735.295 1.103-.042.246-.226.485-.459.655-.62.747.702 1.475 1.378 2.192 2.066.363.35.712.715 1.056 1.084.494.53.501 1.19-.015 1.694a1049.69 1049.69 0 0 1-5.766 5.593c-.449.433-1.098.488-1.512.078C4 11.243 2.9 10.079 1.816 8.965l2.007-2.093c.153-.159.32-.304.463-.47a.734.734 0 0 0-.004-.988.722.722 0 0 0-1.014-.037c-.319.284-.614.594-.918.893-.672.664-1.345 1.326-2.014 1.992-.442.44-.448.792-.02 1.239 1.165 1.214 2.33 2.426 3.499 3.635 1.012 1.048 2.108 1.226 3.405.563.033-.017.072-.022.031-.01.706.705 1.329 1.44 2.062 2.041 2.155 1.764 4.598 2.182 7.293 1.51 1.03-.256 2.114-.366 3.178-.407 1.705-.066 3.415-.043 5.122-.009 1.217.025 2.282-.231 3.085-1.398.878.914 1.715 1.794 2.563 2.664a44.118 44.118 0 0 0 1.546 1.527c.909.846 2 1.079 3.17.755 1.898-.524 2.642-2.877 1.37-4.416a438.326 438.326 0 0 0-6.129-7.216c-.867-1.004-2.012-1.565-3.337-1.589-3.27-.06-6.543-.048-9.814-.097-1.069-.015-2.136-.13-3.26-.203m-5.653 5.835c.058-.073.085-.116.121-.15 1.46-1.41 2.92-2.823 4.39-4.222.1-.094.3-.13.445-.116.85.078 1.695.237 2.545.259 2.106.054 4.214.05 6.321.067 1.436.01 2.871.013 4.306.024 1.354.011 2.416.558 3.274 1.627 1.214 1.511 2.502 2.964 3.759 4.442.61.719 1.227 1.434 1.832 2.16.379.455.485.968.219 1.516-.26.535-.71.744-1.296.74a1.889 1.889 0 0 1-1.384-.586c-1.401-1.398-2.807-2.79-4.222-4.174a1.254 1.254 0 0 1-.403-.794c-.157-1.271-1.28-2.396-2.541-2.437-1.796-.057-3.594-.026-5.392-.02-.41.002-.683.3-.697.685-.015.41.245.705.672.752.128.014.259.01.388.01 1.526 0 3.052-.006 4.578.002.762.004 1.296.368 1.506.993.326.973-.376 1.889-1.472 1.894-1.876.008-3.75.008-5.626 0a13.226 13.226 0 0 0-3.564.457c-.92.252-1.856.362-2.802.219-2.167-.328-3.694-1.614-4.957-3.348" fill="#275e80" fill-rule="evenodd" data-name="Path 1331"/><path d="M13.638 26.424c.032 4.3 3.5 7.75 7.763 7.725 4.258-.026 7.707-3.515 7.677-7.768a7.708 7.708 0 0 0-7.796-7.676c-4.224.037-7.676 3.522-7.644 7.72m7.717-6.262c3.455-.007 6.28 2.812 6.274 6.261-.006 3.425-2.804 6.249-6.202 6.26-3.51.011-6.334-2.791-6.333-6.284.002-3.426 2.818-6.23 6.261-6.237" fill="#275e80" fill-rule="evenodd" data-name="Path 1332"/><path d="M5.89 4.656a.747.747 0 0 0 .721-.755c-.016-.396-.363-.715-.773-.71a.722.722 0 0 0-.712.753c.012.403.35.719.764.712" fill="#275e80" fill-rule="evenodd" data-name="Path 1333"/><path d="M17.507 12.369a.719.719 0 0 0 .727-.738c-.012-.402-.343-.71-.765-.71-.41 0-.74.336-.727.74.011.403.342.71.765.708" fill="#275e80" fill-rule="evenodd" data-name="Path 1334"/><path d="M23.572 28.59c.03-.368-.026-.711-.37-.843-.213-.081-.522-.08-.72.02-.167.084-.32.359-.33.557-.02.367-.136.622-.47.77-.36.157-.689.044-.986-.159-.315-.216-.434-.546-.394-.915.038-.34.304-.499.595-.597.18-.061.376-.087.567-.112 1.664-.212 2.768-1.703 2.37-3.221-.218-.827-.774-1.354-1.561-1.646-.19-.07-.29-.175-.397-.358-.12-.202-.383-.375-.616-.436-.295-.077-.527.117-.692.388-.09.148-.224.303-.375.376-.916.441-1.564 1.519-1.492 2.528.028.41.296.684.685.702.393.017.686-.229.75-.63.012-.077.014-.155.026-.232.153-1.031.89-1.389 1.807-.877.53.295.689.994.253 1.411-.26.251-.643.393-.991.53-.308.123-.661.133-.966.26-.851.358-1.406.972-1.426 1.937-.02 1.002.403 1.774 1.305 2.248.198.104.35.19.406.45.063.296.31.466.631.481.317.015.53-.133.7-.396.102-.155.245-.31.406-.396.753-.404 1.3-.937 1.285-1.84" fill="#275e80" fill-rule="evenodd" data-name="Path 1335"/></g><defs><clipPath id="a"><path d="M0 0h37.272v34.149H0V0z" data-name="Rectangle 1513"/></clipPath></defs></svg>