<svg xmlns="http://www.w3.org/2000/svg" width="19.953" height="19.949" viewBox="0.047 0 19.953 19.949"><g data-name="Group 2512"><path d="M9.396 0h1.248c.127.015.254.032.382.046 1.402.155 2.731.549 3.948 1.269 2.738 1.619 4.378 4.001 4.908 7.14.049.286.079.575.118.862v1.326c-.029.237-.053.474-.088.71-.28 1.899-.995 3.615-2.264 5.06-2.526 2.876-5.709 3.989-9.475 3.37-1.758-.29-3.323-1.055-4.659-2.238C.931 15.258-.202 12.373.092 8.942a9.152 9.152 0 0 1 1.327-4.029C3.053 2.242 5.415.63 8.514.118c.292-.049.588-.079.882-.118m.617 18.405a8.406 8.406 0 0 0 8.433-8.408c.02-4.661-3.745-8.436-8.419-8.442a8.413 8.413 0 0 0-8.433 8.408 8.41 8.41 0 0 0 8.419 8.442" fill="#fff" fill-rule="evenodd" data-name="Path 1207"/><path d="M10.057 10.971c-.062.094-.093.163-.143.213-.656.659-1.312 1.316-1.971 1.971-.294.292-.621.362-.938.212-.498-.237-.6-.856-.199-1.272.375-.388.762-.763 1.143-1.145l1.014-1.017c-.05-.054-.096-.106-.144-.154L6.833 7.796c-.211-.21-.327-.452-.257-.754.138-.597.828-.821 1.28-.408.302.276.584.574.873.864l1.329 1.335c.064-.059.116-.105.165-.153.658-.656 1.317-1.311 1.972-1.97.234-.235.504-.345.829-.25.579.168.743.86.308 1.311-.347.36-.706.708-1.06 1.062-.354.354-.708.707-1.061 1.062-.008.008-.013.021-.072.085.063.036.136.062.185.111.665.659 1.329 1.318 1.987 1.982.424.428.328 1.064-.186 1.297-.315.143-.63.079-.906-.196-.664-.66-1.325-1.322-1.986-1.984-.05-.05-.09-.111-.176-.219" fill="#fff" fill-rule="evenodd" data-name="Path 1211"/></g></svg>