<svg xmlns="http://www.w3.org/2000/svg" width="26.866" height="31"><g data-name="Group 2828"><path d="M5.699 23.767h-.005a.515.515 0 0 0-.514.516.52.52 0 0 0 1.035 0 .517.517 0 0 0-.516-.516Z" fill="#3f5c7a" fill-rule="evenodd" data-name="Path 1357"/><path d="M8.799 23.767h-.005a.515.515 0 0 0-.514.516.52.52 0 0 0 1.035 0 .517.517 0 0 0-.516-.516Z" fill="#3f5c7a" fill-rule="evenodd" data-name="Path 1358"/><path d="M12.917 16.533H8.783a.516.516 0 1 0 0 1.034h4.134a.517.517 0 1 0 0-1.034Z" fill="#3f5c7a" fill-rule="evenodd" data-name="Path 1359"/><path d="M10.85 19.633H8.783a.517.517 0 1 0 0 1.034h2.067a.517.517 0 1 0 0-1.034Z" fill="#3f5c7a" fill-rule="evenodd" data-name="Path 1360"/><path d="M19.633 18.083c-.57 0-1.033-.463-1.033-1.033a.516.516 0 1 0-1.033 0c0 .96.66 1.762 1.55 1.993v.074a.517.517 0 1 0 1.033 0v-.074a2.064 2.064 0 0 0 1.55-1.993c0-1.14-.927-2.067-2.067-2.067a1.034 1.034 0 0 1 0-2.066c.57 0 1.034.463 1.034 1.033a.517.517 0 1 0 1.033 0c0-.96-.66-1.762-1.55-1.993v-.074a.516.516 0 1 0-1.033 0v.074a2.064 2.064 0 0 0-1.55 1.993c0 1.14.926 2.067 2.066 2.067a1.034 1.034 0 0 1 0 2.066Z" fill="#3f5c7a" fill-rule="evenodd" data-name="Path 1361"/><path d="M18.099 23.767h-.005a.515.515 0 0 0-.515.516.52.52 0 0 0 1.036 0 .517.517 0 0 0-.516-.516Z" fill="#3f5c7a" fill-rule="evenodd" data-name="Path 1362"/><path d="M24.299 24.8a.517.517 0 0 0 0-1.033h-.005a.515.515 0 0 0-.515.516.52.52 0 0 0 .52.517Z" fill="#3f5c7a" fill-rule="evenodd" data-name="Path 1363"/><path d="M21.199 23.767h-.005a.515.515 0 0 0-.515.516.52.52 0 0 0 1.036 0 .517.517 0 0 0-.516-.516Z" fill="#3f5c7a" fill-rule="evenodd" data-name="Path 1364"/><path d="M19.117 6.2h2.066a.517.517 0 1 0 0-1.033h-2.066a.517.517 0 1 0 0 1.033Z" fill="#3f5c7a" fill-rule="evenodd" data-name="Path 1365"/><path d="M11.899 23.767h-.005a.515.515 0 0 0-.514.516.52.52 0 0 0 1.035 0 .517.517 0 0 0-.516-.516Z" fill="#3f5c7a" fill-rule="evenodd" data-name="Path 1366"/><path d="M5.683 17.567h1.034a.517.517 0 1 0 0-1.034H5.683a.516.516 0 1 0 0 1.034Z" fill="#3f5c7a" fill-rule="evenodd" data-name="Path 1367"/><path d="M5.683 20.667h1.034a.517.517 0 1 0 0-1.034H5.683a.517.517 0 1 0 0 1.034Z" fill="#3f5c7a" fill-rule="evenodd" data-name="Path 1368"/><path d="M26.35 0H.517A.517.517 0 0 0 0 .517v29.966a.517.517 0 0 0 .882.365l2.735-2.734 2.734 2.734a.516.516 0 0 0 .73 0l1.702-1.7 1.702 1.7a.516.516 0 0 0 .73 0l1.702-1.7.668.667a.516.516 0 0 0 .73 0l1.702-1.701 1.7 1.701a.516.516 0 0 0 .731 0l1.185-1.185 1.185 1.185a.516.516 0 0 0 .73 0l2.735-2.735 1.702 1.702a.361.361 0 0 0 .033.03.517.517 0 0 0 .367.12h.001a.516.516 0 0 0 .48-.514V.517A.516.516 0 0 0 26.35 0Zm-.517 27.17-1.185-1.185a.516.516 0 0 0-.73 0l-2.735 2.734L20 27.535a.516.516 0 0 0-.731 0l-1.185 1.184-1.701-1.701a.516.516 0 0 0-.73 0l-1.702 1.701-.668-.668a.516.516 0 0 0-.73 0l-1.702 1.702-1.701-1.702a.515.515 0 0 0-.731 0l-1.701 1.702-2.735-2.735a.516.516 0 0 0-.73 0l-2.219 2.218V1.033h24.8V27.17Z" fill="#3f5c7a" fill-rule="evenodd" data-name="Path 1369"/><path d="M2.599 24.8a.517.517 0 0 0 0-1.033h-.005a.515.515 0 0 0-.514.516.52.52 0 0 0 .519.517Z" fill="#3f5c7a" fill-rule="evenodd" data-name="Path 1370"/><path d="M5.683 14.467h1.034a.517.517 0 1 0 0-1.034H5.683a.517.517 0 1 0 0 1.034Z" fill="#3f5c7a" fill-rule="evenodd" data-name="Path 1371"/><path d="M14.999 24.8a.517.517 0 0 0 0-1.033h-.005a.515.515 0 0 0-.515.516.52.52 0 0 0 .52.517Z" fill="#3f5c7a" fill-rule="evenodd" data-name="Path 1372"/><path d="M8.783 11.367h3.1a.517.517 0 1 0 0-1.034h-3.1a.517.517 0 1 0 0 1.034Z" fill="#3f5c7a" fill-rule="evenodd" data-name="Path 1373"/><path d="M5.683 11.367h1.034a.517.517 0 1 0 0-1.034H5.683a.517.517 0 1 0 0 1.034Z" fill="#3f5c7a" fill-rule="evenodd" data-name="Path 1374"/><path d="M13.95 13.433H8.783a.517.517 0 1 0 0 1.034h5.167a.517.517 0 1 0 0-1.034Z" fill="#3f5c7a" fill-rule="evenodd" data-name="Path 1375"/><path d="M5.683 6.2h8.267a.517.517 0 1 0 0-1.033H5.683a.517.517 0 1 0 0 1.033Z" fill="#3f5c7a" fill-rule="evenodd" data-name="Path 1376"/></g></svg>