<svg xmlns="http://www.w3.org/2000/svg" width="26.866" height="31" viewBox="2.067 0 26.866 31"><g data-name="Group 2828"><path d="M7.766 23.767H7.76a.515.515 0 0 0-.514.516.52.52 0 0 0 1.036 0 .517.517 0 0 0-.516-.516Z" fill="#bababa" fill-rule="evenodd" data-name="Path 1357"/><path d="M10.866 23.767h-.006a.515.515 0 0 0-.514.516.52.52 0 0 0 1.036 0 .517.517 0 0 0-.516-.516Z" fill="#bababa" fill-rule="evenodd" data-name="Path 1358"/><path d="M14.983 16.533H10.85a.516.516 0 1 0 0 1.034h4.133a.517.517 0 1 0 0-1.034Z" fill="#bababa" fill-rule="evenodd" data-name="Path 1359"/><path d="M12.917 19.633H10.85a.517.517 0 1 0 0 1.034h2.067a.517.517 0 1 0 0-1.034Z" fill="#bababa" fill-rule="evenodd" data-name="Path 1360"/><path d="M21.7 18.083c-.57 0-1.033-.463-1.033-1.033a.516.516 0 1 0-1.034 0c0 .96.661 1.762 1.55 1.993v.074a.517.517 0 1 0 1.034 0v-.074a2.064 2.064 0 0 0 1.55-1.993c0-1.14-.927-2.067-2.067-2.067a1.034 1.034 0 0 1 0-2.066c.57 0 1.033.463 1.033 1.033a.517.517 0 1 0 1.034 0c0-.96-.661-1.762-1.55-1.993v-.074a.516.516 0 1 0-1.034 0v.074a2.064 2.064 0 0 0-1.55 1.993c0 1.14.927 2.067 2.067 2.067a1.034 1.034 0 0 1 0 2.066Z" fill="#bababa" fill-rule="evenodd" data-name="Path 1361"/><path d="M20.165 23.767h-.005a.515.515 0 0 0-.514.516.52.52 0 0 0 1.036 0 .517.517 0 0 0-.517-.516Z" fill="#bababa" fill-rule="evenodd" data-name="Path 1362"/><path d="M26.365 24.8a.517.517 0 0 0 0-1.033h-.005a.515.515 0 0 0-.514.516.52.52 0 0 0 .52.517Z" fill="#bababa" fill-rule="evenodd" data-name="Path 1363"/><path d="M23.265 23.767h-.005a.515.515 0 0 0-.514.516.52.52 0 0 0 1.036 0 .517.517 0 0 0-.517-.516Z" fill="#bababa" fill-rule="evenodd" data-name="Path 1364"/><path d="M21.183 6.2h2.067a.517.517 0 1 0 0-1.033h-2.067a.517.517 0 1 0 0 1.033Z" fill="#bababa" fill-rule="evenodd" data-name="Path 1365"/><path d="M13.966 23.767h-.006a.515.515 0 0 0-.514.516.52.52 0 0 0 1.036 0 .517.517 0 0 0-.516-.516Z" fill="#bababa" fill-rule="evenodd" data-name="Path 1366"/><path d="M7.75 17.567h1.033a.517.517 0 1 0 0-1.034H7.75a.516.516 0 1 0 0 1.034Z" fill="#bababa" fill-rule="evenodd" data-name="Path 1367"/><path d="M7.75 20.667h1.033a.517.517 0 1 0 0-1.034H7.75a.517.517 0 1 0 0 1.034Z" fill="#bababa" fill-rule="evenodd" data-name="Path 1368"/><path d="M28.417 0H2.583a.517.517 0 0 0-.516.517v29.966a.517.517 0 0 0 .882.365l2.734-2.734 2.735 2.734a.516.516 0 0 0 .73 0l1.702-1.7 1.701 1.7a.516.516 0 0 0 .73 0l1.702-1.7.668.667a.516.516 0 0 0 .73 0l1.702-1.701 1.702 1.701a.516.516 0 0 0 .73 0L21.7 28.63l1.185 1.185a.516.516 0 0 0 .73 0l2.735-2.735 1.701 1.702a.361.361 0 0 0 .033.03.517.517 0 0 0 .368.12.516.516 0 0 0 .481-.514V.517A.516.516 0 0 0 28.417 0ZM27.9 27.17l-1.185-1.185a.516.516 0 0 0-.73 0l-2.735 2.734-1.185-1.184a.516.516 0 0 0-.73 0l-1.185 1.184-1.701-1.701a.516.516 0 0 0-.73 0l-1.702 1.701-.668-.668a.516.516 0 0 0-.73 0l-1.702 1.702-1.702-1.702a.515.515 0 0 0-.73 0l-1.702 1.702-2.734-2.735a.516.516 0 0 0-.73 0L3.1 29.236V1.033h24.8V27.17Z" fill="#bababa" fill-rule="evenodd" data-name="Path 1369"/><path d="M4.666 24.8a.517.517 0 0 0 0-1.033H4.66a.515.515 0 0 0-.514.516.52.52 0 0 0 .52.517Z" fill="#bababa" fill-rule="evenodd" data-name="Path 1370"/><path d="M7.75 14.467h1.033a.517.517 0 1 0 0-1.034H7.75a.517.517 0 1 0 0 1.034Z" fill="#bababa" fill-rule="evenodd" data-name="Path 1371"/><path d="M17.066 24.8a.517.517 0 0 0 0-1.033h-.006a.515.515 0 0 0-.514.516.52.52 0 0 0 .52.517Z" fill="#bababa" fill-rule="evenodd" data-name="Path 1372"/><path d="M10.85 11.367h3.1a.517.517 0 1 0 0-1.034h-3.1a.517.517 0 1 0 0 1.034Z" fill="#bababa" fill-rule="evenodd" data-name="Path 1373"/><path d="M7.75 11.367h1.033a.517.517 0 1 0 0-1.034H7.75a.517.517 0 1 0 0 1.034Z" fill="#bababa" fill-rule="evenodd" data-name="Path 1374"/><path d="M16.017 13.433H10.85a.517.517 0 1 0 0 1.034h5.167a.517.517 0 1 0 0-1.034Z" fill="#bababa" fill-rule="evenodd" data-name="Path 1375"/><path d="M7.75 6.2h8.267a.517.517 0 1 0 0-1.033H7.75a.517.517 0 1 0 0 1.033Z" fill="#bababa" fill-rule="evenodd" data-name="Path 1376"/></g></svg>