<svg xmlns="http://www.w3.org/2000/svg" width="26.536" height="28.375" viewBox="1515.844 982.136 26.536 28.375"><g data-name="audio-microphone-record-sound-speaker-volume-svgrepo-com"><g data-name="Path 936"><path d="M1521.629 988.39c0-3.454 3.319-6.254 7.412-6.254 4.094 0 7.413 2.8 7.413 6.255v6.254c0 3.454-3.319 6.255-7.413 6.255-4.093 0-7.412-2.8-7.412-6.255v-6.254Zm7.412-3.752c-2.456 0-4.447 1.68-4.447 3.753v6.254c0 2.073 1.991 3.753 4.447 3.753 2.457 0 4.448-1.68 4.448-3.753v-6.254c0-2.073-1.991-3.753-4.448-3.753Z" fill-rule="evenodd"/><path d="M1521.629 988.39c0-3.454 3.319-6.254 7.412-6.254 4.094 0 7.413 2.8 7.413 6.255v6.254c0 3.454-3.319 6.255-7.413 6.255-4.093 0-7.412-2.8-7.412-6.255v-6.254Zm7.412-3.752c-2.456 0-4.447 1.68-4.447 3.753v6.254c0 2.073 1.991 3.753 4.447 3.753 2.457 0 4.448-1.68 4.448-3.753v-6.254c0-2.073-1.991-3.753-4.448-3.753Z" stroke-linejoin="round" stroke-linecap="round" stroke-width=".5" stroke="#fff" fill="transparent"/></g><g data-name="Path 937"><path d="M1526.618 1008.009c.56 0 1.014-.388 1.014-.867v-1.547c-6.18-.576-11.089-4.712-11.78-9.924-.092-.696.58-1.266 1.4-1.266.818 0 1.47.57 1.59 1.264.725 4.237 5.047 7.492 10.27 7.492 5.222 0 9.544-3.255 10.27-7.492.119-.693.771-1.264 1.59-1.264.818 0 1.491.57 1.399 1.266-.691 5.21-5.597 9.346-11.774 9.923v1.548c0 .479.454.867 1.013.867h2.827c.56 0 1.013.388 1.013.867v.768c0 .479-.453.867-1.013.867h-10.577c-.56 0-1.013-.388-1.013-.867v-.768c0-.479.454-.867 1.013-.867h2.758Z" fill-rule="evenodd"/><path d="M1526.618 1008.009c.56 0 1.014-.388 1.014-.867v-1.547c-6.18-.576-11.089-4.712-11.78-9.924-.092-.696.58-1.266 1.4-1.266.818 0 1.47.57 1.59 1.264.725 4.237 5.047 7.492 10.27 7.492 5.222 0 9.544-3.255 10.27-7.492.119-.693.771-1.264 1.59-1.264.818 0 1.491.57 1.399 1.266-.691 5.21-5.597 9.346-11.774 9.923v1.548c0 .479.454.867 1.013.867h2.827c.56 0 1.013.388 1.013.867v.768c0 .479-.453.867-1.013.867h-10.577c-.56 0-1.013-.388-1.013-.867v-.768c0-.479.454-.867 1.013-.867h2.758Z" stroke-linejoin="round" stroke-linecap="round" stroke-width=".5" stroke="#fff" fill="transparent"/></g></g></svg>