<svg xmlns="http://www.w3.org/2000/svg" width="48" height="48" viewBox="0 0 48 48">
  <g id="Group_2939" data-name="Group 2939" transform="translate(-1521.182 -660.182)">
    <g id="Ellipse_435" data-name="Ellipse 435" transform="translate(1521.182 660.182)" fill="#005f83" stroke="#005f83" stroke-width="1">
      <circle cx="24" cy="24" r="24" stroke="none"/>
      <circle cx="24" cy="24" r="23.5" fill="none"/>
    </g>
    <g id="calculator-svgrepo-com" transform="translate(1532.7 669.554)">
      <path id="Path_1000" data-name="Path 1000" d="M246.695,353.75h-3.737a.458.458,0,0,0-.458.458v3.737a.458.458,0,0,0,.458.458h3.737a.458.458,0,0,0,.458-.458v-3.737A.458.458,0,0,0,246.695,353.75Zm-.458,3.737h-2.822v-2.822h2.822Z" transform="translate(-229.535 -332.166)" fill="#fff"/>
      <path id="Path_1001" data-name="Path 1001" d="M155.445,353.75h-3.737a.458.458,0,0,0-.458.458v3.737a.458.458,0,0,0,.458.458h3.737a.458.458,0,0,0,.458-.458v-3.737A.458.458,0,0,0,155.445,353.75Zm-.458,3.737h-2.822v-2.822h2.822Z" transform="translate(-143.852 -332.166)" fill="#fff"/>
      <path id="Path_1002" data-name="Path 1002" d="M155.445,262.5h-3.737a.458.458,0,0,0-.458.458v3.737a.458.458,0,0,0,.458.458h3.737a.458.458,0,0,0,.458-.458v-3.737A.458.458,0,0,0,155.445,262.5Zm-.458,3.737h-2.822v-2.822h2.822Z" transform="translate(-143.852 -246.484)" fill="#fff"/>
      <path id="Path_1003" data-name="Path 1003" d="M64.195,353.75H60.458a.458.458,0,0,0-.458.458v3.737a.458.458,0,0,0,.458.458h3.737a.458.458,0,0,0,.458-.458v-3.737A.458.458,0,0,0,64.195,353.75Zm-.458,3.737H60.915v-2.822h2.822Z" transform="translate(-58.17 -332.166)" fill="#fff"/>
      <path id="Path_1004" data-name="Path 1004" d="M337.945,202.5h-3.737a.458.458,0,0,0-.458.458v1.83a.458.458,0,0,0,.458.458h3.737a.458.458,0,0,0,.458-.458v-1.83A.458.458,0,0,0,337.945,202.5Zm-.458,1.83h-2.822v-.915h2.822Z" transform="translate(-315.217 -190.145)" fill="#fff"/>
      <path id="Path_1005" data-name="Path 1005" d="M246.695,262.5h-3.737a.458.458,0,0,0-.458.458v3.737a.458.458,0,0,0,.458.458h3.737a.458.458,0,0,0,.458-.458v-3.737A.458.458,0,0,0,246.695,262.5Zm-.458,3.737h-2.822v-2.822h2.822Z" transform="translate(-229.535 -246.484)" fill="#fff"/>
      <path id="Path_1006" data-name="Path 1006" d="M64.195,262.5H60.458a.458.458,0,0,0-.458.458v3.737a.458.458,0,0,0,.458.458h3.737a.458.458,0,0,0,.458-.458v-3.737A.458.458,0,0,0,64.195,262.5Zm-.458,3.737H60.915v-2.822h2.822Z" transform="translate(-58.17 -246.484)" fill="#fff"/>
      <path id="Path_1007" data-name="Path 1007" d="M246.695,202.5h-3.737a.458.458,0,0,0-.458.458v1.83a.458.458,0,0,0,.458.458h3.737a.458.458,0,0,0,.458-.458v-1.83A.458.458,0,0,0,246.695,202.5Zm-.458,1.83h-2.822v-.915h2.822Z" transform="translate(-229.535 -190.145)" fill="#fff"/>
      <path id="Path_1008" data-name="Path 1008" d="M52.728,0H32.288A2.291,2.291,0,0,0,30,2.288v24.1a2.291,2.291,0,0,0,2.288,2.288h20.44a2.291,2.291,0,0,0,2.288-2.288V2.288A2.291,2.291,0,0,0,52.728,0ZM54.1,26.388a1.374,1.374,0,0,1-1.373,1.373H32.288a1.374,1.374,0,0,1-1.373-1.373V2.288A1.374,1.374,0,0,1,32.288.915h20.44A1.374,1.374,0,0,1,54.1,2.288Z" transform="translate(-30)" fill="#fff"/>
      <path id="Path_1009" data-name="Path 1009" d="M337.945,262.5h-3.737a.458.458,0,0,0-.458.458v9.3a.458.458,0,0,0,.458.458h3.737a.458.458,0,0,0,.458-.458v-5.644a.458.458,0,0,0-.915,0V271.8h-2.822v-8.389h2.822v1.373a.458.458,0,0,0,.915,0v-1.83A.458.458,0,0,0,337.945,262.5Z" transform="translate(-315.217 -246.484)" fill="#fff"/>
      <path id="Path_1010" data-name="Path 1010" d="M80.9,40H60.458a.458.458,0,0,0-.458.458v7.474a.458.458,0,0,0,.458.458h3.737a.458.458,0,1,0,0-.915H60.915V40.915H80.44v6.559H66.025a.458.458,0,1,0,0,.915H80.9a.458.458,0,0,0,.458-.458V40.458A.458.458,0,0,0,80.9,40Z" transform="translate(-58.17 -37.559)" fill="#fff"/>
      <path id="Path_1011" data-name="Path 1011" d="M335.458,70.915h1.83a.458.458,0,0,0,0-.915h-1.83a.458.458,0,0,0,0,.915Z" transform="translate(-316.391 -65.729)" fill="#fff"/>
      <path id="Path_1012" data-name="Path 1012" d="M335.458,130.915h1.83a.458.458,0,0,0,0-.915h-1.83a.458.458,0,0,0,0,.915Z" transform="translate(-316.391 -122.068)" fill="#fff"/>
      <path id="Path_1013" data-name="Path 1013" d="M335,91.678a.458.458,0,0,0,.915,0v-1.22a.458.458,0,0,0-.915,0Z" transform="translate(-316.391 -84.509)" fill="#fff"/>
    </g>
  </g>
</svg>
