<svg xmlns="http://www.w3.org/2000/svg" width="29.353" height="29.363" viewBox="1590.394 981.148 29.353 29.363"><path d="M1591.861 984.817v2.945c0 11.754 9.528 21.281 21.281 21.281h2.936a2.202 2.202 0 0 0 2.201-2.201v-3.765c0-.947-.606-1.789-1.505-2.088l-4.672-1.558a2.202 2.202 0 0 0-2.528.868l-1.07 1.605a2.201 2.201 0 0 1-2.528.867l-2.239-.746a7.238 7.238 0 0 1-4.694-4.962l-.92-3.375a2.201 2.201 0 0 1 1.428-2.668l.884-.294a1.982 1.982 0 0 0 1.328-2.206l-.677-4.065a2.202 2.202 0 0 0-2.172-1.84h-4.851a2.201 2.201 0 0 0-2.202 2.202Zm23.913-.733h-4.1a.734.734 0 0 1 0-1.468h5.871c.405 0 .734.328.734.734v5.87a.734.734 0 0 1-1.468 0v-4.099l-7.553 7.554a.734.734 0 0 1-1.038-1.038l7.554-7.553Zm-25.38.733a3.67 3.67 0 0 1 3.669-3.669h4.851a3.67 3.67 0 0 1 3.62 3.066l.677 4.064a3.45 3.45 0 0 1-2.312 3.84l-.884.295a.734.734 0 0 0-.476.889l.92 3.374a5.77 5.77 0 0 0 3.742 3.956l2.24.747a.734.734 0 0 0 .842-.29l1.07-1.604a3.67 3.67 0 0 1 4.213-1.446l4.672 1.557a3.67 3.67 0 0 1 2.509 3.481v3.765a3.67 3.67 0 0 1-3.67 3.67h-2.935c-12.563 0-22.748-10.186-22.748-22.75v-2.945Z" fill-rule="evenodd" data-name="call-out-svgrepo-com"/></svg>