<svg xmlns="http://www.w3.org/2000/svg" xmlns:xlink="http://www.w3.org/1999/xlink" width="47" height="47" viewBox="0 0 47 47">
  <defs>
    <filter id="Ellipse_22" x="0" y="0" width="47" height="47" filterUnits="userSpaceOnUse">
      <feOffset dy="3" input="SourceAlpha"/>
      <feGaussianBlur stdDeviation="3" result="blur"/>
      <feFlood flood-opacity="0.161"/>
      <feComposite operator="in" in2="blur"/>
      <feComposite in="SourceGraphic"/>
    </filter>
  </defs>
  <g id="Group_2995" data-name="Group 2995" transform="translate(-7528 -2000)">
    <g id="Group_2991" data-name="Group 2991" transform="translate(7537.281 2005.519)">
      <g transform="matrix(1, 0, 0, 1, -9.28, -5.52)" filter="url(#Ellipse_22)">
        <circle id="Ellipse_22-2" data-name="Ellipse 22" cx="14.5" cy="14.5" r="14.5" transform="translate(9 6)" fill="#fff"/>
      </g>
    </g>
    <g id="Group_2986" data-name="Group 2986" transform="translate(1417.189 1653.544)">
      <path id="Path_1380" data-name="Path 1380" d="M416.1,55.956c.134.129.274.252.4.386q1.528,1.6,3.054,3.2a.581.581,0,0,1,.174.432c-.006.907,0,1.813,0,2.72v.178c.207.063.414.112.61.189a4.484,4.484,0,0,1,2.973,3.531,4.587,4.587,0,0,1-8.034,3.735,4.946,4.946,0,0,1-.342-.465.234.234,0,0,0-.227-.121q-2.025.005-4.05,0a1.781,1.781,0,0,1-1.8-1.376,1.711,1.711,0,0,1-.048-.4q0-5.112,0-10.224a1.785,1.785,0,0,1,1.463-1.757.335.335,0,0,0,.068-.03Zm-1.009,8.655h-.2q-1.618,0-3.237,0a.934.934,0,0,1-.247-.026.3.3,0,0,1-.225-.252c-.04-.237.116-.4.395-.4q2,0,4,0a.435.435,0,0,0,.3-.106A4.451,4.451,0,0,1,418,62.863c.341-.056.689-.068,1.041-.1V60.2h-.214c-.62-.008-1.24,0-1.859-.028a1.41,1.41,0,0,1-1.3-1.329c-.024-.671-.011-1.344-.015-2.016,0-.061,0-.122,0-.189-.054-.006-.089-.012-.124-.012-1.621,0-3.242,0-4.863,0a1.333,1.333,0,0,0-.556.121,1.134,1.134,0,0,0-.63,1.128q0,4.972,0,9.944a1.563,1.563,0,0,0,.036.387,1.1,1.1,0,0,0,1.168.857q1.838,0,3.675,0c.045,0,.089-.006.15-.01a4.65,4.65,0,0,1-.195-2.751h-2.685a1.032,1.032,0,0,1-.171-.007.334.334,0,0,1-.285-.323.323.323,0,0,1,.277-.326,1.084,1.084,0,0,1,.2-.018c.912,0,1.824,0,2.737,0,.059,0,.148-.021.171-.061.18-.308.347-.624.528-.957m3.7,6.692a3.918,3.918,0,1,0-3.919-3.911,3.925,3.925,0,0,0,3.919,3.911m-2.472-14.172c0,.094,0,.14,0,.186,0,.474-.016.948.007,1.42a.792.792,0,0,0,.852.786c.411,0,.822,0,1.233,0,.048,0,.1-.005.171-.009l-2.264-2.383" transform="translate(5719 303)" fill="#00638a" stroke="#006792" stroke-width="0.25"/>
      <path id="Path_1381" data-name="Path 1381" d="M486.432,257.883c-.552,0-1.1,0-1.657,0a.324.324,0,0,1-.345-.255.315.315,0,0,1,.179-.374.62.62,0,0,1,.228-.038q1.6,0,3.205,0a.581.581,0,0,1,.292.079.288.288,0,0,1,.115.345.326.326,0,0,1-.328.24c-.391,0-.782,0-1.172,0h-.516" transform="translate(5645.759 108.047)" fill="#00638a" stroke="#006792" stroke-width="0.25"/>
      <path id="Path_1382" data-name="Path 1382" d="M717.151,346.189c0,.4,0,.792,0,1.188,0,.284-.226.459-.461.362a.376.376,0,0,1-.217-.4v-1.876c0-.162,0-.323,0-.484a.358.358,0,0,1,.34-.389.351.351,0,0,1,.337.392c0,.4,0,.8,0,1.2" transform="translate(5420.98 23.407)" fill="#00638a" stroke="#006792" stroke-width="0.25"/>
      <path id="Path_1383" data-name="Path 1383" d="M717.566,455.952a3.21,3.21,0,0,1-.028.363.33.33,0,0,1-.32.269.311.311,0,0,1-.315-.269,3.91,3.91,0,0,1,0-.682.307.307,0,0,1,.312-.254.321.321,0,0,1,.311.238,2.565,2.565,0,0,1,.037.334" transform="translate(5420.575 -83.909)" fill="#00638a" stroke="#006792" stroke-width="0.25"/>
    </g>
  </g>
</svg>
