<svg xmlns="http://www.w3.org/2000/svg" xmlns:xlink="http://www.w3.org/1999/xlink" width="55" height="54" viewBox="0 0 55 54">
  <defs>
    <filter id="Ellipse_22" x="0" y="0" width="55" height="54" filterUnits="userSpaceOnUse">
      <feOffset dy="3" input="SourceAlpha"/>
      <feGaussianBlur stdDeviation="3" result="blur"/>
      <feFlood flood-opacity="0.161"/>
      <feComposite operator="in" in2="blur"/>
      <feComposite in="SourceGraphic"/>
    </filter>
    <clipPath id="clip-path">
      <rect id="Rectangle_1862" data-name="Rectangle 1862" width="19.37" height="21.256" fill="none"/>
    </clipPath>
  </defs>
  <g id="Group_3350" data-name="Group 3350" transform="translate(-539 -403)">
    <g id="Group_1629" data-name="Group 1629" transform="translate(548.18 409.096)">
      <g id="Group_1628" data-name="Group 1628" transform="translate(0 0)">
        <g transform="matrix(1, 0, 0, 1, -9.18, -6.1)" filter="url(#Ellipse_22)">
          <ellipse id="Ellipse_22-2" data-name="Ellipse 22" cx="18.5" cy="18" rx="18.5" ry="18" transform="translate(9 6)" fill="#fff"/>
        </g>
      </g>
    </g>
    <g id="Group_3349" data-name="Group 3349" transform="translate(557 416)">
      <g id="Group_3348" data-name="Group 3348" transform="translate(0 0)" clip-path="url(#clip-path)">
        <path id="Path_1574" data-name="Path 1574" d="M9.653.128c.175.169.358.329.523.5q2,2.092,3.992,4.183a.756.756,0,0,1,.227.565c-.008,1.185,0,2.37,0,3.555v.233c.271.082.541.146.8.247a5.861,5.861,0,0,1,3.886,4.615,6,6,0,0,1-10.5,4.882,6.374,6.374,0,0,1-.447-.608.305.305,0,0,0-.3-.158q-2.647.006-5.293,0a2.328,2.328,0,0,1-2.353-1.8,2.2,2.2,0,0,1-.063-.523V2.461A2.333,2.333,0,0,1,2.037.164.448.448,0,0,0,2.126.125ZM8.334,11.44H3.842a1.222,1.222,0,0,1-.323-.034.392.392,0,0,1-.294-.329c-.052-.31.152-.523.516-.523H8.97a.567.567,0,0,0,.392-.139,5.817,5.817,0,0,1,2.775-1.26c.446-.073.9-.089,1.361-.131V5.675h-.28c-.81-.01-1.621,0-2.43-.037A1.844,1.844,0,0,1,9.089,3.9c-.031-.877-.014-1.757-.02-2.635V1.019A1.611,1.611,0,0,0,8.907,1H2.551a1.74,1.74,0,0,0-.727.158A1.48,1.48,0,0,0,1,2.636v13a2.056,2.056,0,0,0,.047.506,1.438,1.438,0,0,0,1.527,1.12h4.8c.059,0,.116-.008.2-.013a6.071,6.071,0,0,1-.255-3.6H3.81a1.421,1.421,0,0,1-.224-.009.437.437,0,0,1-.373-.422.423.423,0,0,1,.362-.426,1.462,1.462,0,0,1,.261-.024H7.414c.077,0,.193-.027.224-.08.235-.4.454-.816.69-1.251m4.836,8.747a5.121,5.121,0,1,0-5.122-5.12v.008a5.13,5.13,0,0,0,5.122,5.112M9.933,1.662v.243c0,.62-.021,1.239.009,1.856a1.035,1.035,0,0,0,1.04,1.03l.073,0h1.612c.063,0,.131-.007.224-.012L9.932,1.662" transform="translate(0.038 0.038)" fill="#00638a"/>
        <path id="Path_1575" data-name="Path 1575" d="M9.653.128c.175.169.358.329.523.5q2,2.092,3.992,4.183a.756.756,0,0,1,.227.565c-.008,1.185,0,2.37,0,3.555v.233c.271.082.541.146.8.247a5.861,5.861,0,0,1,3.886,4.615,6,6,0,0,1-10.5,4.882,6.374,6.374,0,0,1-.447-.608.305.305,0,0,0-.3-.158q-2.647.006-5.293,0a2.328,2.328,0,0,1-2.353-1.8,2.2,2.2,0,0,1-.063-.523V2.461A2.333,2.333,0,0,1,2.037.164.448.448,0,0,0,2.126.125ZM8.334,11.44H3.842a1.222,1.222,0,0,1-.323-.034.392.392,0,0,1-.294-.329c-.052-.31.152-.523.516-.523H8.97a.567.567,0,0,0,.392-.139,5.817,5.817,0,0,1,2.775-1.26c.446-.073.9-.089,1.361-.131V5.675h-.28c-.81-.01-1.621,0-2.43-.037A1.844,1.844,0,0,1,9.089,3.9c-.031-.877-.014-1.757-.02-2.635V1.019A1.611,1.611,0,0,0,8.907,1H2.551a1.74,1.74,0,0,0-.727.158A1.48,1.48,0,0,0,1,2.636v13a2.056,2.056,0,0,0,.047.506,1.438,1.438,0,0,0,1.527,1.12h4.8c.059,0,.116-.008.2-.013a6.071,6.071,0,0,1-.255-3.6H3.81a1.421,1.421,0,0,1-.224-.009.437.437,0,0,1-.373-.422.423.423,0,0,1,.362-.426,1.462,1.462,0,0,1,.261-.024H7.414c.077,0,.193-.027.224-.08.235-.4.454-.816.69-1.251m4.836,8.747a5.121,5.121,0,1,0-5.122-5.12v.008a5.13,5.13,0,0,0,5.122,5.112M9.933,1.662v.243c0,.62-.021,1.239.009,1.856a1.035,1.035,0,0,0,1.04,1.03l.073,0h1.612c.063,0,.131-.007.224-.012L9.932,1.662" transform="translate(0.038 0.038)" fill="none" stroke="#006792" stroke-width="0.25"/>
        <path id="Path_1576" data-name="Path 1576" d="M5.124,7.306H2.958a.423.423,0,0,1-.451-.333.412.412,0,0,1,.234-.489.8.8,0,0,1,.3-.05H7.229a.754.754,0,0,1,.382.1.377.377,0,0,1,.15.451.426.426,0,0,1-.429.314H5.126" transform="translate(0.765 1.975)" fill="#00638a"/>
        <path id="Path_1577" data-name="Path 1577" d="M5.124,7.306H2.958a.423.423,0,0,1-.451-.333.412.412,0,0,1,.234-.489.8.8,0,0,1,.3-.05H7.229a.754.754,0,0,1,.382.1.377.377,0,0,1,.15.451.426.426,0,0,1-.429.314H5.126" transform="translate(0.765 1.975)" fill="none" stroke="#006792" stroke-width="0.25"/>
        <path id="Path_1578" data-name="Path 1578" d="M10.538,9.484a.623.623,0,0,1,.081.047.205.205,0,0,1,.081.175c0,.128,0,.256,0,.378.14.03.276.051.408.086a1.681,1.681,0,0,1,.651.348.246.246,0,0,1,.073.274.279.279,0,0,1-.233.2.262.262,0,0,1-.213-.056,1.574,1.574,0,0,0-.616-.277l-.065-.01v.055c0,.365,0,.729,0,1.094a.059.059,0,0,0,.054.068,2.929,2.929,0,0,1,.72.28.994.994,0,0,1,.5.618,1.169,1.169,0,0,1-.707,1.421,1.865,1.865,0,0,1-.519.115l-.042.005c0,.061,0,.122,0,.18,0,.075,0,.149,0,.222a.2.2,0,0,1-.222.187.21.21,0,0,1-.2-.209c0-.123,0-.246,0-.369-.108-.014-.214-.025-.318-.044A1.975,1.975,0,0,1,9,13.8a.28.28,0,0,1-.022-.371.265.265,0,0,1,.361-.075c.059.038.112.084.17.124a1.754,1.754,0,0,0,.7.284c.017,0,.034,0,.059.005v-.056c0-.417,0-.835,0-1.252,0-.046-.017-.06-.056-.071a3.112,3.112,0,0,1-.71-.264.928.928,0,0,1-.494-.609,1.052,1.052,0,0,1,.35-1.091,1.486,1.486,0,0,1,.856-.337c.044,0,.054-.021.052-.061,0-.088,0-.176,0-.264a.25.25,0,0,1,.163-.28Zm.17,3.056v1.239a.814.814,0,0,0,.532-.246.532.532,0,0,0-.041-.775,1.368,1.368,0,0,0-.491-.218m-.437-1.92c-.09.021-.175.034-.256.061a.585.585,0,0,0-.35.288.432.432,0,0,0,.125.572,1.248,1.248,0,0,0,.22.114c.082.035.171.059.261.09Z" transform="translate(2.738 2.912)" fill="#00638a"/>
        <path id="Path_1579" data-name="Path 1579" d="M10.171,14.9h0a.219.219,0,0,1-.218-.218V9.7a.218.218,0,0,1,.437,0v4.977a.219.219,0,0,1-.218.218" transform="translate(3.056 2.912)" fill="#00638a"/>
      </g>
    </g>
  </g>
</svg>
