<svg id="color-bucket-svgrepo-com" xmlns="http://www.w3.org/2000/svg" width="19.961" height="19.992" viewBox="0 0 19.961 19.992">
  <path id="Path_1354" data-name="Path 1354" d="M12.979,2A2.681,2.681,0,0,0,10.5,4.542L2.02,13.026,9.8,20.8a3,3,0,0,0,4.243,0l4.243-4.243a3,3,0,0,0,0-4.243l-2.8-2.8V4.961A2.758,2.758,0,0,0,12.979,2Zm-.5,2.957V6.514l1,1V4.961a.507.507,0,1,0-1,0Zm0,5.914V9.342l4.391,4.391a1,1,0,0,1,0,1.414L12.627,19.39a1,1,0,0,1-1.414,0L4.849,13.026l5.63-5.63v3.48q0,.065,0,.128h2.01A.7.7,0,0,1,12.479,10.875Z" transform="translate(0.798 -2.004)" fill="#005f83" fill-rule="evenodd"/>
  <path id="Path_1355" data-name="Path 1355" d="M21.1,16.875a3,3,0,1,1-4.243,0l2.122-2.121Z" transform="translate(-15.98 -2.004)" fill="#005f83"/>
</svg>
