<svg xmlns="http://www.w3.org/2000/svg" xmlns:xlink="http://www.w3.org/1999/xlink" width="47" height="47" viewBox="0 0 47 47">
  <defs>
    <filter id="Ellipse_22" x="0" y="0" width="47" height="47" filterUnits="userSpaceOnUse">
      <feOffset dy="3" input="SourceAlpha"/>
      <feGaussianBlur stdDeviation="3" result="blur"/>
      <feFlood flood-opacity="0.161"/>
      <feComposite operator="in" in2="blur"/>
      <feComposite in="SourceGraphic"/>
    </filter>
  </defs>
  <g id="Group_2997" data-name="Group 2997" transform="translate(-7613 -2000)">
    <g id="Group_2993" data-name="Group 2993" transform="translate(7622.281 2005.519)">
      <g transform="matrix(1, 0, 0, 1, -9.28, -5.52)" filter="url(#Ellipse_22)">
        <circle id="Ellipse_22-2" data-name="Ellipse 22" cx="14.5" cy="14.5" r="14.5" transform="translate(9 6)" fill="#fff"/>
      </g>
    </g>
    <g id="Group_2989" data-name="Group 2989" transform="translate(1909.245 1443.426)">
      <g id="Group_2988" data-name="Group 2988" transform="translate(5719 568.579)">
        <path id="Path_1388" data-name="Path 1388" d="M166.624,270.672c-.051.262-.089.527-.156.785a4.547,4.547,0,0,1-1.448,2.328.368.368,0,0,0-.142.315c.008.537,0,1.075,0,1.612a.335.335,0,0,1-.193.356.348.348,0,0,1-.406-.108c-.352-.355-.71-.7-1.058-1.062a.228.228,0,0,0-.238-.068,7.056,7.056,0,0,1-3.19-.073,4.422,4.422,0,0,1-2.32-1.549,4.473,4.473,0,0,1-1-3.49,4.575,4.575,0,0,1,2.976-3.827,4.152,4.152,0,0,1,1.714-.31,9.258,9.258,0,0,1,1.652.093,4.572,4.572,0,0,1,3.673,3.485c.064.231.091.471.136.707Zm-2.42,4.292.035-.023c0-.349.012-.7,0-1.047a.568.568,0,0,1,.234-.5,4.509,4.509,0,0,0,.606-.6,3.874,3.874,0,0,0,.841-3.166,3.933,3.933,0,0,0-2.493-3.121,5.664,5.664,0,0,0-2.506-.278,3.867,3.867,0,0,0-1.4.326,4.029,4.029,0,0,0-2.376,4.325,3.953,3.953,0,0,0,1.833,2.789,3.832,3.832,0,0,0,2.051.62,6.46,6.46,0,0,0,1.983-.14.482.482,0,0,1,.548.149c.208.228.433.441.651.661" transform="translate(-150.113 -265.579)" fill="#006792" stroke="#006996" stroke-width="0.25"/>
        <path id="Path_1389" data-name="Path 1389" d="M5.643,415.361c-.242-.228-.486-.453-.724-.684-.22-.213-.431-.436-.654-.646a.337.337,0,0,0-.207-.086c-.591-.007-1.182,0-1.773,0A2.248,2.248,0,0,1,0,411.655q0-2.451,0-4.9a2.248,2.248,0,0,1,2.3-2.291c1.059,0,2.117,0,3.176,0a.33.33,0,0,1,.343.215.27.27,0,0,1-.084.335.547.547,0,0,1-.3.091c-1.037.006-2.074,0-3.112.006a1.563,1.563,0,0,0-1.5.917,1.73,1.73,0,0,0-.168.711c-.014,1.644-.013,3.289-.005,4.933a1.623,1.623,0,0,0,1.63,1.628c.666.007,1.333,0,2,0a.459.459,0,0,1,.372.175c.237.26.5.5.771.764,0-.194,0-.369,0-.543,0-.274.119-.393.391-.393H9.115a1.635,1.635,0,0,0,1.721-1.718c0-.7,0-1.4,0-2.1a.324.324,0,0,1,.26-.34.315.315,0,0,1,.353.19.478.478,0,0,1,.028.173c0,.752.007,1.5,0,2.257a2.246,2.246,0,0,1-1.894,2.146,3.053,3.053,0,0,1-.416.031c-.967,0-1.935,0-2.9,0h-.2c0,.17,0,.334,0,.5s-.009.334,0,.5a.4.4,0,0,1-.228.421Z" transform="translate(0.001 -398.852)" fill="#006792" stroke="#006996" stroke-width="0.25"/>
        <path id="Path_1390" data-name="Path 1390" d="M46.907,513.062h3.27a1.129,1.129,0,0,1,.161,0,.32.32,0,0,1,0,.634,1.176,1.176,0,0,1-.161,0H43.6a1.147,1.147,0,0,1-.161,0,.32.32,0,0,1,0-.634,1.175,1.175,0,0,1,.161,0h3.3" transform="translate(-41.424 -503.066)" fill="#006792" stroke="#006996" stroke-width="0.25"/>
        <path id="Path_1391" data-name="Path 1391" d="M46.251,557.773q1.362,0,2.724,0c.269,0,.444.2.343.422a.643.643,0,0,1-.254.214c-.039.025-.1.007-.159.007H43.6a1.121,1.121,0,0,1-.161-.005.32.32,0,0,1,0-.634,1.208,1.208,0,0,1,.161,0h2.644" transform="translate(-41.424 -545.971)" fill="#006792" stroke="#006996" stroke-width="0.25"/>
        <path id="Path_1392" data-name="Path 1392" d="M45.826,469H43.6a1.151,1.151,0,0,1-.161,0,.32.32,0,0,1,0-.634,1.024,1.024,0,0,1,.145,0H48.1a1.015,1.015,0,0,1,.145,0,.32.32,0,0,1,0,.634,1.175,1.175,0,0,1-.161,0H45.826" transform="translate(-41.424 -460.163)" fill="#006792" stroke="#006996" stroke-width="0.25"/>
        <path id="Path_1393" data-name="Path 1393" d="M211.956,558.448a.321.321,0,1,1,.326-.311.325.325,0,0,1-.326.311" transform="translate(-203.093 -546.004)" fill="#006792" stroke="#006996" stroke-width="0.25"/>
        <path id="Path_1394" data-name="Path 1394" d="M252.125,324.4c0-.107,0-.215,0-.322a.6.6,0,0,1,.479-.638.722.722,0,0,0,.546-.571.715.715,0,1,0-1.409-.239c-.007.053-.013.106-.025.158a.3.3,0,0,1-.357.264.323.323,0,0,1-.277-.353,1.363,1.363,0,0,1,2.669-.357,1.352,1.352,0,0,1-.825,1.671c-.112.039-.164.086-.155.212.012.182.006.365,0,.548a.34.34,0,0,1-.327.367.333.333,0,0,1-.32-.369c0-.123,0-.247,0-.371" transform="translate(-240.94 -319.119)" fill="#006792" stroke="#006996" stroke-width="0.25"/>
        <path id="Path_1395" data-name="Path 1395" d="M277.334,430.877a.313.313,0,0,1-.317-.313.327.327,0,0,1,.32-.33.341.341,0,0,1,.322.318.326.326,0,0,1-.326.325" transform="translate(-265.829 -423.584)" fill="#006792" stroke="#006996" stroke-width="0.25"/>
      </g>
    </g>
  </g>
</svg>
