<svg xmlns="http://www.w3.org/2000/svg" width="28.068" height="28.068" viewBox="0 0 28.068 28.068">
  <g id="happy-svgrepo-com" transform="translate(0.25 0.25)">
    <g id="Group_1726" data-name="Group 1726">
      <g id="Group_1725" data-name="Group 1725">
        <path id="Path_1029" data-name="Path 1029" d="M13.784,0A13.784,13.784,0,1,0,27.568,13.784,13.8,13.8,0,0,0,13.784,0Zm0,26.7A12.913,12.913,0,1,1,26.7,13.784,12.928,12.928,0,0,1,13.784,26.7Z" stroke="#000" stroke-width="0.5"/>
      </g>
    </g>
    <g id="Group_1728" data-name="Group 1728" transform="translate(6.674 7.255)">
      <g id="Group_1727" data-name="Group 1727">
        <path id="Path_1030" data-name="Path 1030" d="M126.424,134.737a2.467,2.467,0,1,0,2.467,2.467A2.469,2.469,0,0,0,126.424,134.737Zm0,4.063a1.6,1.6,0,1,1,1.6-1.6A1.6,1.6,0,0,1,126.424,138.8Z" transform="translate(-123.957 -134.737)" stroke="#000" stroke-width="0.5"/>
      </g>
    </g>
    <g id="Group_1730" data-name="Group 1730" transform="translate(15.96 7.255)">
      <g id="Group_1729" data-name="Group 1729">
        <path id="Path_1031" data-name="Path 1031" d="M298.889,134.737a2.467,2.467,0,1,0,2.467,2.467A2.469,2.469,0,0,0,298.889,134.737Zm0,4.063a1.6,1.6,0,1,1,1.6-1.6A1.6,1.6,0,0,1,298.889,138.8Z" transform="translate(-296.422 -134.737)" stroke="#000" stroke-width="0.5"/>
      </g>
    </g>
    <g id="Group_1732" data-name="Group 1732" transform="translate(5.223 15.38)">
      <g id="Group_1731" data-name="Group 1731">
        <path id="Path_1032" data-name="Path 1032" d="M97.011,285.642v.435a8.56,8.56,0,1,0,17.121,0v-.435H97.011Zm8.56,8.125a7.7,7.7,0,0,1-7.678-7.255h15.355A7.7,7.7,0,0,1,105.571,293.767Z" transform="translate(-97.011 -285.642)" stroke="#000" stroke-width="0.5"/>
      </g>
    </g>
  </g>
</svg>
