<svg xmlns="http://www.w3.org/2000/svg" width="32.013" height="32.013" viewBox="982.336 751 32.013 32.013"><g data-name="happy-svgrepo-com"><g data-name="Group 1726"><g data-name="Group 1725"><g data-name="Path 1029"><path d="M998.343 751c-8.826 0-16.007 7.18-16.007 16.007 0 8.826 7.18 16.006 16.007 16.006 8.826 0 16.006-7.18 16.006-16.006S1007.17 751 998.343 751Zm0 31.002c-8.27 0-14.996-6.727-14.996-14.995 0-8.269 6.727-14.996 14.996-14.996 8.268 0 14.995 6.727 14.995 14.996 0 8.268-6.727 14.995-14.995 14.995Z" fill="#199e52" fill-rule="evenodd"/><path d="M998.343 751c-8.826 0-16.007 7.18-16.007 16.007 0 8.826 7.18 16.006 16.007 16.006 8.826 0 16.006-7.18 16.006-16.006S1007.17 751 998.343 751Zm0 31.002c-8.27 0-14.996-6.727-14.996-14.995 0-8.269 6.727-14.996 14.996-14.996 8.268 0 14.995 6.727 14.995 14.996 0 8.268-6.727 14.995-14.995 14.995Z" stroke-linejoin="round" stroke-linecap="round" stroke-width=".5" stroke="#199e52" fill="transparent"/></g></g></g><g data-name="Group 1728"><g data-name="Group 1727"><g data-name="Path 1030"><path d="M992.95 759.425a2.868 2.868 0 0 0-2.864 2.864 2.868 2.868 0 0 0 2.865 2.864 2.868 2.868 0 0 0 2.864-2.864 2.868 2.868 0 0 0-2.864-2.864Zm0 4.717a1.856 1.856 0 0 1-1.853-1.853c0-1.022.832-1.854 1.854-1.854 1.022 0 1.853.832 1.853 1.854a1.855 1.855 0 0 1-1.853 1.853Z" fill="#199e52" fill-rule="evenodd"/><path d="M992.95 759.425a2.868 2.868 0 0 0-2.864 2.864 2.868 2.868 0 0 0 2.865 2.864 2.868 2.868 0 0 0 2.864-2.864 2.868 2.868 0 0 0-2.864-2.864Zm0 4.717a1.856 1.856 0 0 1-1.853-1.853c0-1.022.832-1.854 1.854-1.854 1.022 0 1.853.832 1.853 1.854a1.855 1.855 0 0 1-1.853 1.853Z" stroke-linejoin="round" stroke-linecap="round" stroke-width=".5" stroke="#199e52" fill="transparent"/></g></g></g><g data-name="Group 1730"><g data-name="Group 1729"><g data-name="Path 1031"><path d="M1003.734 759.425a2.868 2.868 0 0 0-2.864 2.864 2.868 2.868 0 0 0 2.864 2.864 2.868 2.868 0 0 0 2.865-2.864 2.868 2.868 0 0 0-2.865-2.864Zm0 4.717a1.856 1.856 0 0 1-1.853-1.853c0-1.022.831-1.854 1.853-1.854s1.854.832 1.854 1.854a1.856 1.856 0 0 1-1.854 1.853Z" fill="#199e52" fill-rule="evenodd"/><path d="M1003.734 759.425a2.868 2.868 0 0 0-2.864 2.864 2.868 2.868 0 0 0 2.864 2.864 2.868 2.868 0 0 0 2.865-2.864 2.868 2.868 0 0 0-2.865-2.864Zm0 4.717a1.856 1.856 0 0 1-1.853-1.853c0-1.022.831-1.854 1.853-1.854s1.854.832 1.854 1.854a1.856 1.856 0 0 1-1.854 1.853Z" stroke-linejoin="round" stroke-linecap="round" stroke-width=".5" stroke="#199e52" fill="transparent"/></g></g></g><g data-name="Group 1732"><g data-name="Group 1731"><g data-name="Path 1032"><path d="M988.402 768.86v.506c0 5.481 4.46 9.94 9.94 9.94 5.482 0 9.942-4.459 9.942-9.94v-.506h-19.882Zm9.94 9.436c-4.754 0-8.652-3.735-8.915-8.425h17.831c-.262 4.69-4.16 8.425-8.915 8.425Z" fill="#199e52" fill-rule="evenodd"/><path d="M988.402 768.86v.506c0 5.481 4.46 9.94 9.94 9.94 5.482 0 9.942-4.459 9.942-9.94v-.506h-19.882Zm9.94 9.436c-4.754 0-8.652-3.735-8.915-8.425h17.831c-.262 4.69-4.16 8.425-8.915 8.425Z" stroke-linejoin="round" stroke-linecap="round" stroke-width=".5" stroke="#199e52" fill="transparent"/></g></g></g></g></svg>