<svg xmlns="http://www.w3.org/2000/svg" width="36" height="36" viewBox="0 0 36 36">
  <g id="Group_2915" data-name="Group 2915" transform="translate(-1427 -532)">
    <g id="Ellipse_438" data-name="Ellipse 438" transform="translate(1427 532)" fill="#005f83" stroke="#186aa5" stroke-width="1">
      <circle cx="18" cy="18" r="18" stroke="none"/>
      <circle cx="18" cy="18" r="17.5" fill="none"/>
    </g>
    <g id="loading-process-svgrepo-com" transform="translate(1430.321 535.321)">
      <path id="Path_1018" data-name="Path 1018" d="M18.107,3.107a10.607,10.607,0,1,0-15,15,10.607,10.607,0,1,0,15-15Zm-7.5,1.008a6.493,6.493,0,1,1-6.493,6.493A6.5,6.5,0,0,1,10.607,4.114Zm6.818,13.311A9.643,9.643,0,0,1,.964,10.607H3.15A7.457,7.457,0,1,0,10.607,3.15c-.244,0-.485.012-.723.035V.991q.359-.026.723-.027a9.643,9.643,0,0,1,6.818,16.461Z" transform="translate(30.002 15.001) rotate(135)" fill="#fff"/>
    </g>
  </g>
</svg>
