<svg xmlns="http://www.w3.org/2000/svg" width="33" height="32" viewBox="0 0 33 32">
  <g id="Group_2599" data-name="Group 2599" transform="translate(0.775 0.451)">
    <g id="location-svgrepo-com_2_" data-name="location-svgrepo-com (2)" transform="translate(-0.486 -0.451)">
      <g id="Ellipse_434" data-name="Ellipse 434" transform="translate(-0.289 0)" fill="#005f83" stroke="#005f83" stroke-width="1">
        <ellipse cx="16.5" cy="16" rx="16.5" ry="16" stroke="none"/>
        <ellipse cx="16.5" cy="16" rx="16" ry="15.5" fill="none"/>
      </g>
      <g id="Group_1541" data-name="Group 1541" transform="translate(6.471 2.994)">
        <g id="Group_1540" data-name="Group 1540" transform="translate(0)">
          <path id="Path_942" data-name="Path 942" d="M50.732,0A9.64,9.64,0,0,0,41.1,9.629c0,5.141,8.778,15.757,9.152,16.206a.62.62,0,0,0,.954,0c.374-.449,9.152-11.066,9.152-16.206A9.64,9.64,0,0,0,50.732,0Zm0,24.454c-.778-.972-2.4-3.043-4-5.41-2.873-4.25-4.392-7.506-4.392-9.415a8.388,8.388,0,0,1,16.777,0c0,1.909-1.519,5.164-4.392,9.415C53.128,21.411,51.511,23.482,50.732,24.454Z" transform="translate(-41.103)" fill="#fff"/>
          <path id="Path_943" data-name="Path 943" d="M153.777,212.777a.62.62,0,0,0-.861.167c-.837,1.239-1.775,2.538-2.788,3.861a.62.62,0,1,0,.985.754c1.027-1.342,1.98-2.661,2.831-3.921A.62.62,0,0,0,153.777,212.777Z" transform="translate(-140.991 -195.076)" fill="#fff"/>
          <path id="Path_944" data-name="Path 944" d="M101.088,57.5a5.088,5.088,0,1,0,5.088,5.088A5.094,5.094,0,0,0,101.088,57.5Zm0,8.935a3.847,3.847,0,1,1,3.847-3.847A3.851,3.851,0,0,1,101.088,66.435Z" transform="translate(-91.458 -52.743)" fill="#fff"/>
        </g>
      </g>
    </g>
  </g>
</svg>
