<svg xmlns="http://www.w3.org/2000/svg" xmlns:xlink="http://www.w3.org/1999/xlink" width="55" height="55" viewBox="0 0 55 55">
  <defs>
    <filter id="Ellipse_22" x="0" y="0" width="55" height="55" filterUnits="userSpaceOnUse">
      <feOffset dy="3" input="SourceAlpha"/>
      <feGaussianBlur stdDeviation="3" result="blur"/>
      <feFlood flood-opacity="0.161"/>
      <feComposite operator="in" in2="blur"/>
      <feComposite in="SourceGraphic"/>
    </filter>
  </defs>
  <g id="Group_1638" data-name="Group 1638" transform="translate(9.18 6.429)">
    <g id="Group_1630" data-name="Group 1630" transform="translate(0 0)">
      <g id="Group_1628" data-name="Group 1628" transform="translate(0 0)">
        <g transform="matrix(1, 0, 0, 1, -9.18, -6.43)" filter="url(#Ellipse_22)">
          <circle id="Ellipse_22-2" data-name="Ellipse 22" cx="18.5" cy="18.5" r="18.5" transform="translate(9 6)" fill="#fff"/>
        </g>
      </g>
    </g>
    <g id="information-info-svgrepo-com_1_" data-name="information-info-svgrepo-com (1)" transform="translate(4.03 6.571)">
      <g id="Group_1579" data-name="Group 1579" transform="translate(2.791 0)">
        <g id="Group_1578" data-name="Group 1578" transform="translate(0 0)">
          <path id="Path_962" data-name="Path 962" d="M78.947,67.053A11.893,11.893,0,1,0,90.839,78.946,11.928,11.928,0,0,0,78.947,67.053Zm0,22.7A10.812,10.812,0,1,1,89.758,78.946,10.843,10.843,0,0,1,78.947,89.757Z" transform="translate(-67.054 -67.053)" fill="#005f83" stroke="#006186" stroke-width="0.1"/>
          <path id="Path_965" data-name="Path 965" d="M203.163,203.163h-1.622v-7.568a.511.511,0,0,0-.541-.54h-4.865a.511.511,0,0,0-.541.54v2.162a.511.511,0,0,0,.541.541h1.081v4.865h-1.622a.511.511,0,0,0-.54.54v2.162a.511.511,0,0,0,.54.541h7.568a.511.511,0,0,0,.541-.541V203.7A.511.511,0,0,0,203.163,203.163Zm-.541,2.162h-6.487v-1.081h1.622a.511.511,0,0,0,.541-.541v-5.946a.511.511,0,0,0-.541-.541h-1.081v-1.081h3.784V203.7a.511.511,0,0,0,.541.541h1.622v1.081Z" transform="translate(-186.945 -186.945)" fill="#005f83" stroke="#006186" stroke-width="0.1"/>
          <path id="Path_966" data-name="Path 966" d="M222.816,114.046a2.162,2.162,0,1,0-2.162-2.162A2.169,2.169,0,0,0,222.816,114.046Zm0-3.243a1.081,1.081,0,1,1-1.081,1.081A1.084,1.084,0,0,1,222.816,110.8Z" transform="translate(-210.924 -107.018)" fill="#005f83" stroke="#006186" stroke-width="0.1"/>
        </g>
      </g>
    </g>
  </g>
</svg>
