<svg xmlns="http://www.w3.org/2000/svg" width="25.2" height="14.967" viewBox="1115.483 756.017 25.2 14.967"><g data-name="Group 2976"><path d="M1140.22 762.924c-.22-.281-5.461-6.89-12.135-6.89-6.675 0-11.916 6.609-12.136 6.89l-.45.576.45.575c.22.281 5.46 6.891 12.136 6.891 6.674 0 11.915-6.61 12.135-6.891l.45-.575-.45-.576Zm-12.135 6.173c-4.695 0-8.792-4.064-10.17-5.597 1.379-1.534 5.476-5.597 10.17-5.597 4.693 0 8.79 4.064 10.169 5.597-1.38 1.533-5.476 5.597-10.17 5.597Z" fill="#005f83" fill-rule="evenodd" data-name="Path 1342"/><path d="M1128.084 758.386a5.12 5.12 0 0 0-5.114 5.114 5.12 5.12 0 0 0 5.114 5.114 5.12 5.12 0 0 0 5.114-5.114 5.12 5.12 0 0 0-5.114-5.114Zm0 8.359a3.249 3.249 0 0 1-3.245-3.245 3.248 3.248 0 0 1 3.245-3.245 3.248 3.248 0 0 1 3.245 3.245 3.249 3.249 0 0 1-3.245 3.245Z" fill="#005f83" fill-rule="evenodd" data-name="Path 1343"/></g></svg>