<svg xmlns="http://www.w3.org/2000/svg" width="32.013" height="32.014" viewBox="982.336 801.999 32.013 32.014"><g data-name="sad-svgrepo-com (1)"><path d="M998.343 834.013c-8.826 0-16.007-7.18-16.007-16.007 0-8.826 7.18-16.007 16.007-16.007 8.825 0 16.006 7.18 16.006 16.007 0 8.826-7.18 16.007-16.006 16.007Zm0-30.435c-7.956 0-14.428 6.472-14.428 14.428 0 7.955 6.472 14.428 14.428 14.428 7.955 0 14.428-6.473 14.428-14.428 0-7.956-6.473-14.428-14.428-14.428Z" fill="#005f83" fill-rule="evenodd" data-name="Path 1033"/><path d="M1003.081 827.637h-1.579c0-1.485-1.44-2.692-3.212-2.692-1.77 0-3.212 1.207-3.212 2.692H993.5c0-2.355 2.15-4.271 4.791-4.271 2.642 0 4.791 1.916 4.791 4.27Z" fill="#005f83" fill-rule="evenodd" data-name="Path 1034"/><path d="M990.793 820.212c-2.067 0-3.748-1.872-3.748-4.173h1.579c0 1.43.973 2.594 2.169 2.594 1.196 0 2.168-1.164 2.168-2.594h1.579c0 2.3-1.681 4.173-3.747 4.173Z" fill="#005f83" fill-rule="evenodd" data-name="Path 1035"/><path d="M1005.893 820.212c-2.067 0-3.747-1.872-3.747-4.173h1.578c0 1.43.973 2.594 2.169 2.594 1.196 0 2.169-1.164 2.169-2.594h1.578c0 2.3-1.68 4.173-3.747 4.173Z" fill="#005f83" fill-rule="evenodd" data-name="Path 1036"/></g></svg>