<svg id="sad-svgrepo-com" xmlns="http://www.w3.org/2000/svg" width="27.568" height="27.568" viewBox="0 0 27.568 27.568">
  <path id="Path_1037" data-name="Path 1037" d="M13.784,0A13.784,13.784,0,1,0,27.568,13.784,13.8,13.8,0,0,0,13.784,0Zm0,26.315A12.531,12.531,0,1,1,26.315,13.784,12.545,12.545,0,0,1,13.784,26.315Z" fill="#006caa"/>
  <path id="Path_1038" data-name="Path 1038" d="M17.518,24A7.527,7.527,0,0,0,10,31.518a.627.627,0,0,0,1.253,0,6.265,6.265,0,1,1,12.531,0,.627.627,0,0,0,1.253,0A7.527,7.527,0,0,0,17.518,24Z" transform="translate(-3.735 -8.963)" fill="#006caa"/>
  <path id="Path_1039" data-name="Path 1039" d="M11.133,13.253a1.882,1.882,0,0,1,1.88,1.88.627.627,0,1,0,1.253,0,3.133,3.133,0,1,0-6.265,0,.627.627,0,1,0,1.253,0A1.882,1.882,0,0,1,11.133,13.253Z" transform="translate(-2.988 -4.482)" fill="#006caa"/>
  <path id="Path_1040" data-name="Path 1040" d="M29.133,12A3.136,3.136,0,0,0,26,15.133a.627.627,0,0,0,1.253,0,1.88,1.88,0,1,1,3.759,0,.627.627,0,1,0,1.253,0A3.136,3.136,0,0,0,29.133,12Z" transform="translate(-9.71 -4.482)" fill="#006caa"/>
</svg>
