<svg xmlns="http://www.w3.org/2000/svg" width="32.013" height="32.013" viewBox="982.336 857.999 32.013 32.013"><g data-name="sad-svgrepo-com"><path d="M998.343 857.999c-8.827 0-16.007 7.18-16.007 16.007 0 8.826 7.18 16.006 16.007 16.006 8.826 0 16.006-7.18 16.006-16.006 0-8.827-7.18-16.007-16.006-16.007Zm0 30.558c-8.024 0-14.552-6.528-14.552-14.551 0-8.024 6.528-14.552 14.552-14.552 8.023 0 14.551 6.528 14.551 14.552 0 8.023-6.528 14.551-14.551 14.551Z" fill="#fd3b31" fill-rule="evenodd" data-name="Path 1037"/><path d="M998.343 875.46c-4.815 0-8.731 3.917-8.731 8.732a.727.727 0 1 0 1.455 0c0-4.012 3.264-7.276 7.276-7.276 4.011 0 7.275 3.264 7.275 7.276a.727.727 0 1 0 1.456 0c0-4.815-3.917-8.731-8.731-8.731Z" fill="#fd3b31" fill-rule="evenodd" data-name="Path 1038"/><path d="M991.794 868.185c1.204 0 2.183.98 2.183 2.183a.727.727 0 1 0 1.455 0 3.642 3.642 0 0 0-3.638-3.638 3.642 3.642 0 0 0-3.637 3.638.727.727 0 1 0 1.455 0c0-1.204.979-2.183 2.182-2.183Z" fill="#fd3b31" fill-rule="evenodd" data-name="Path 1039"/><path d="M1004.89 866.73a3.642 3.642 0 0 0-3.637 3.638.727.727 0 1 0 1.455 0c0-1.204.98-2.183 2.183-2.183 1.203 0 2.183.98 2.183 2.183a.727.727 0 1 0 1.455 0 3.642 3.642 0 0 0-3.638-3.638Z" fill="#fd3b31" fill-rule="evenodd" data-name="Path 1040"/></g></svg>