<svg xmlns="http://www.w3.org/2000/svg" width="27.568" height="27.568" viewBox="590.027 615.432 27.568 27.568"><g data-name="sad-svgrepo-com (1)"><path d="M603.81 643c-7.6 0-13.783-6.184-13.783-13.785 0-7.6 6.183-13.783 13.784-13.783 7.6 0 13.783 6.183 13.783 13.783 0 7.601-6.183 13.784-13.783 13.784Zm0-26.209c-6.85 0-12.424 5.574-12.424 12.424 0 6.851 5.574 12.425 12.425 12.425 6.85 0 12.424-5.574 12.424-12.425 0-6.85-5.573-12.424-12.424-12.424Z" fill-rule="evenodd" data-name="Path 1033"/><path d="M607.891 637.509h-1.36c0-1.278-1.24-2.318-2.765-2.318-1.526 0-2.767 1.04-2.767 2.318h-1.359c0-2.028 1.85-3.678 4.126-3.678 2.274 0 4.125 1.65 4.125 3.678Z" fill-rule="evenodd" data-name="Path 1034"/><path d="M597.31 631.115c-1.78 0-3.228-1.612-3.228-3.593h1.36c0 1.231.837 2.234 1.867 2.234s1.868-1.003 1.868-2.234h1.36c0 1.981-1.449 3.593-3.228 3.593Z" fill-rule="evenodd" data-name="Path 1035"/><path d="M610.312 631.115c-1.78 0-3.227-1.612-3.227-3.593h1.36c0 1.231.838 2.234 1.867 2.234 1.03 0 1.868-1.003 1.868-2.234h1.36c0 1.981-1.448 3.593-3.228 3.593Z" fill-rule="evenodd" data-name="Path 1036"/></g></svg>