<svg xmlns="http://www.w3.org/2000/svg" width="27.568" height="27.568" viewBox="627.027 615.432 27.568 27.568"><g data-name="sad-svgrepo-com"><path d="M640.811 615.432c-7.6 0-13.784 6.183-13.784 13.783 0 7.601 6.184 13.784 13.784 13.784 7.6 0 13.784-6.183 13.784-13.784 0-7.6-6.183-13.783-13.784-13.783Zm0 26.314c-6.91 0-12.53-5.621-12.53-12.53 0-6.91 5.62-12.531 12.53-12.531 6.91 0 12.53 5.621 12.53 12.53 0 6.91-5.62 12.531-12.53 12.531Z" fill-rule="evenodd" data-name="Path 1037"/><path d="M640.811 630.469c-4.146 0-7.518 3.372-7.518 7.518a.626.626 0 1 0 1.253 0 6.272 6.272 0 0 1 6.265-6.265 6.272 6.272 0 0 1 6.266 6.265.626.626 0 1 0 1.253 0c0-4.146-3.373-7.518-7.519-7.518Z" fill-rule="evenodd" data-name="Path 1038"/><path d="M635.172 624.203c1.037 0 1.88.843 1.88 1.88a.626.626 0 1 0 1.253 0 3.136 3.136 0 0 0-3.133-3.133 3.136 3.136 0 0 0-3.132 3.133.626.626 0 1 0 1.253 0c0-1.037.843-1.88 1.88-1.88Z" fill-rule="evenodd" data-name="Path 1039"/><path d="M646.45 622.95a3.136 3.136 0 0 0-3.133 3.133.626.626 0 1 0 1.253 0c0-1.037.844-1.88 1.88-1.88s1.88.843 1.88 1.88a.626.626 0 1 0 1.253 0 3.136 3.136 0 0 0-3.133-3.133Z" fill-rule="evenodd" data-name="Path 1040"/></g></svg>