<svg id="sad-svgrepo-com_1_" data-name="sad-svgrepo-com (1)" xmlns="http://www.w3.org/2000/svg" width="27.568" height="27.568" viewBox="0 0 27.568 27.568">
  <path id="Path_1033" data-name="Path 1033" d="M13.784,27.568A13.784,13.784,0,1,1,27.568,13.784,13.8,13.8,0,0,1,13.784,27.568Zm0-26.208A12.424,12.424,0,1,0,26.208,13.784,12.439,12.439,0,0,0,13.784,1.359Z" fill="#006caa"/>
  <path id="Path_1034" data-name="Path 1034" d="M50.678,84.884H49.319a2.809,2.809,0,0,0-5.532,0H42.427a4.153,4.153,0,0,1,8.251,0Z" transform="translate(-32.814 -62.806)" fill="#006caa"/>
  <path id="Path_1035" data-name="Path 1035" d="M21.125,56.952A3.429,3.429,0,0,1,17.9,53.358h1.359a2.078,2.078,0,0,0,1.867,2.234,2.078,2.078,0,0,0,1.867-2.234h1.359A3.429,3.429,0,0,1,21.125,56.952Z" transform="translate(-13.843 -41.268)" fill="#006caa"/>
  <path id="Path_1036" data-name="Path 1036" d="M78.514,56.952a3.429,3.429,0,0,1-3.227-3.594h1.359a1.9,1.9,0,1,0,3.735,0h1.359A3.429,3.429,0,0,1,78.514,56.952Z" transform="translate(-58.228 -41.268)" fill="#006caa"/>
</svg>
