<svg xmlns="http://www.w3.org/2000/svg" xmlns:xlink="http://www.w3.org/1999/xlink" width="47" height="47" viewBox="0 0 47 47">
  <defs>
    <filter id="Ellipse_22" x="0" y="0" width="47" height="47" filterUnits="userSpaceOnUse">
      <feOffset dy="3" input="SourceAlpha"/>
      <feGaussianBlur stdDeviation="3" result="blur"/>
      <feFlood flood-opacity="0.161"/>
      <feComposite operator="in" in2="blur"/>
      <feComposite in="SourceGraphic"/>
    </filter>
  </defs>
  <g id="Group_2994" data-name="Group 2994" transform="translate(-7485 -2000)">
    <g id="Group_1628" data-name="Group 1628" transform="translate(7494.281 2005.519)">
      <g transform="matrix(1, 0, 0, 1, -9.28, -5.52)" filter="url(#Ellipse_22)">
        <circle id="Ellipse_22-2" data-name="Ellipse 22" cx="14.5" cy="14.5" r="14.5" transform="translate(9 6)" fill="#fff"/>
      </g>
    </g>
    <g id="Group_2985" data-name="Group 2985" transform="translate(705.456 363.951)">
      <path id="Path_1372" data-name="Path 1372" d="M814.128,555.094c-.294,0-.588,0-.882,0-.2,0-.318-.1-.318-.272s.115-.271.319-.271q.776,0,1.552,0c.214,0,.31.1.31.314q0,.776,0,1.551c0,.2-.1.317-.276.315s-.266-.117-.268-.322c0-.29,0-.579-.006-.869,0,0-.008-.007-.022-.018-.042.039-.087.079-.129.121q-1.827,1.826-3.651,3.654a.514.514,0,0,1-.405.166c-.534-.009-1.068,0-1.609,0-.034.1-.063.2-.1.291a3.263,3.263,0,0,1-2.864,2.164.34.34,0,0,0-.186.091q-.7.694-1.4,1.4a.462.462,0,0,1-.361.15q-.912-.01-1.824,0a.393.393,0,0,0-.248.1c-.829.819-1.651,1.644-2.476,2.467-.055.055-.122.133-.187.136a.376.376,0,0,1-.283-.084.5.5,0,0,1-.03-.31c0-.045.068-.087.108-.127q1.289-1.29,2.578-2.582a.481.481,0,0,1,.376-.153c.6.007,1.2,0,1.807.005a.336.336,0,0,0,.266-.112c.333-.34.673-.674,1.03-1.03a3.283,3.283,0,0,1-2.308-1.743,3.157,3.157,0,0,1-.27-2.233,3.285,3.285,0,0,1,6.47,1.024,6.732,6.732,0,0,1,.864.007,1.224,1.224,0,0,0,1.117-.46c1.047-1.089,2.13-2.145,3.2-3.213a1.337,1.337,0,0,1,.135-.1l-.029-.049m-8.569,6.275a2.728,2.728,0,1,0-2.726-2.738,2.746,2.746,0,0,0,2.726,2.738" transform="translate(5996.017 1095)" fill="#006186" stroke="#006186" stroke-width="0.25"/>
      <path id="Path_1373" data-name="Path 1373" d="M1111.688,631.878v5.077c0,.3-.076.379-.383.379h-1.466c-.239,0-.333-.091-.333-.326q0-5.128,0-10.257c0-.236.092-.327.331-.327h1.516c.245,0,.333.091.333.342q0,2.556,0,5.111m-1.625,4.9h1.072v-9.8h-1.072Z" transform="translate(5699.438 1026.399)" fill="#006186" stroke="#006186" stroke-width="0.25"/>
      <path id="Path_1374" data-name="Path 1374" d="M1049.605,678.686q0-1.993,0-3.986c0-.28.081-.36.367-.36h1.482c.238,0,.332.092.332.326q0,4.037,0,8.075c0,.234-.094.326-.333.326h-1.482c-.285,0-.366-.08-.366-.361q0-2.01,0-4.02m1.625-3.788h-1.071v7.618h1.071Z" transform="translate(5756.611 980.665)" fill="#006186" stroke="#006186" stroke-width="0.25"/>
      <path id="Path_1375" data-name="Path 1375" d="M991.885,719.672q0,1.524,0,3.049c0,.281-.082.362-.365.362h-1.465c-.262,0-.351-.086-.351-.342q0-3.066,0-6.132c0-.259.087-.344.348-.344h1.482c.268,0,.351.085.351.359q0,1.524,0,3.049m-1.625,2.853h1.071v-5.708H990.26Z" transform="translate(5813.784 940.649)" fill="#006186" stroke="#006186" stroke-width="0.25"/>
      <path id="Path_1376" data-name="Path 1376" d="M929.8,766.5q0-.988,0-1.975c0-.257.087-.343.349-.343h1.482c.261,0,.35.086.35.342q0,1.975,0,3.95c0,.257-.089.343-.349.343h-1.482c-.267,0-.35-.086-.35-.359q0-.979,0-1.958m1.625-1.76h-1.071v3.526h1.071Z" transform="translate(5870.958 894.918)" fill="#006186" stroke="#006186" stroke-width="0.25"/>
      <path id="Path_1377" data-name="Path 1377" d="M872.08,789.914q0,.715,0,1.43c0,.246-.091.335-.34.335h-1.5c-.251,0-.342-.088-.343-.333q0-1.438,0-2.877c0-.246.09-.335.34-.335h1.5c.257,0,.343.088.343.349q0,.715,0,1.43m-1.628,1.21h1.071v-2.438h-1.071Z" transform="translate(5928.133 872.054)" fill="#006186" stroke="#006186" stroke-width="0.25"/>
      <path id="Path_1378" data-name="Path 1378" d="M812.164,819.161c0,.261,0,.522,0,.783a.268.268,0,0,1-.3.3q-.791,0-1.583,0a.263.263,0,0,1-.294-.294q0-.8,0-1.6a.259.259,0,0,1,.286-.285q.8,0,1.6,0a.264.264,0,0,1,.294.294c0,.267,0,.533,0,.8m-1.625.529h1.072v-1.071h-1.072Z" transform="translate(5985.321 843.485)" fill="#006186" stroke="#006186" stroke-width="0.25"/>
      <path id="Path_1379" data-name="Path 1379" d="M930.777,603.028c.1,0,.168,0,.241,0,.189,0,.3.1.3.268a.268.268,0,0,1-.3.275c-.159,0-.318,0-.477,0a.286.286,0,0,0-.314.267c0,.153.118.265.3.279a.821.821,0,0,1,.772.651.809.809,0,0,1-.422.887.18.18,0,0,0-.112.2,1.087,1.087,0,0,1,0,.2.262.262,0,0,1-.28.239.252.252,0,0,1-.259-.243,2.866,2.866,0,0,1,0-.3c-.095,0-.173,0-.25,0a.272.272,0,1,1-.007-.543c.159,0,.318,0,.477,0,.2,0,.325-.117.322-.277s-.122-.256-.313-.27a.82.82,0,0,1-.761-.643.8.8,0,0,1,.413-.89.187.187,0,0,0,.119-.212.988.988,0,0,1,0-.187.271.271,0,0,1,.541,0c.006.09,0,.18,0,.294" transform="translate(5871.072 1049.249)" fill="#006186" stroke="#006186" stroke-width="0.25"/>
    </g>
  </g>
</svg>
