<svg xmlns="http://www.w3.org/2000/svg" width="29.524" height="23.558" viewBox="0 0 29.524 23.558">
  <g id="Group_2991" data-name="Group 2991" transform="translate(-1068.5 -720.35)">
    <path id="gauge-high-svgrepo-com" d="M4.492,25a2.71,2.71,0,0,0,2.459,1.408H26.574A2.71,2.71,0,0,0,29.033,25,13.7,13.7,0,0,0,25.418,8.113m-9.737,9.568a1.529,1.529,0,1,1,0,2.162A1.529,1.529,0,0,1,15.681,17.681Zm0,0h1.049V4.85" transform="translate(1066.5 716.5)" fill="none" stroke="#000" stroke-linecap="round" stroke-linejoin="round" stroke-width="2"/>
    <path id="gauge-high-svgrepo-com-2" data-name="gauge-high-svgrepo-com" d="M29.254,12.979A13.793,13.793,0,0,1,29.033,25a2.71,2.71,0,0,1-2.459,1.408H6.951A2.71,2.71,0,0,1,4.492,25,13.7,13.7,0,0,1,3,18.762,13.884,13.884,0,0,1,8.021,8.132" transform="translate(1066.5 716.35)" fill="none" stroke="#000" stroke-linecap="round" stroke-linejoin="round" stroke-width="2"/>
  </g>
</svg>
