<svg xmlns="http://www.w3.org/2000/svg" width="21.044" height="21.102" viewBox="1151.499 752.949 21.044 21.102"><g data-name="Group 2974"><path d="m1155.81 770.99 5.326-2.194c.133-.09.266-.181.357-.267l8.77-10.693c.267-.405.224-.938-.133-1.252l-4.164-3.445c-.344-.254-.873-.293-1.208.133l-8.814 10.689c-.09.133-.133.267-.18.404l-1.119 5.682c-.056.972.723 1.14 1.166.942Zm9.709-15.933 2.817 2.327-7.643 9.338-2.792-2.31 7.618-9.355Zm-8.31 11.093 1.91 1.583-2.46 1.015.55-2.598Z" fill="#005f83" fill-rule="evenodd" data-name="Path 543"/><path d="M1171.648 772.241h-15.033s-3.118.146-3.235-.654c0-.043-.077-.24.327-.731.314-.404.267-.938-.09-1.252-.404-.314-.938-.266-1.252.09-.851 1.029-1.075 1.923-.67 2.732 1.096 2.043 4.787 1.561 4.963 1.604h14.99a.9.9 0 0 0 .895-.894.891.891 0 0 0-.895-.895Z" fill="#005f83" fill-rule="evenodd" data-name="Path 544"/></g></svg>