<svg xmlns="http://www.w3.org/2000/svg" width="23.737" height="23.455" viewBox="0 0 23.737 23.455">
  <g id="Group_1937" data-name="Group 1937" transform="translate(-850.041 5994.749)">
    <path id="Path_1207" data-name="Path 1207" d="M145.65,570.062a5.324,5.324,0,0,1,.411-.919,2.007,2.007,0,0,1,1.74-.888q5.629,0,11.259,0a2.129,2.129,0,0,1,1.919,3.207l-.067.129h.274q1.691,0,3.382,0a2.133,2.133,0,0,1,.321,4.247,2.2,2.2,0,0,1-.323.013c-.37,0-.74,0-1.131,0a.621.621,0,0,0,.424.462,7.672,7.672,0,0,1,5.4,6.189,7.831,7.831,0,0,1-6.186,9.038,7.686,7.686,0,0,1-7.156-2.166.574.574,0,0,0-.443-.181c-1.691.007-3.383-.014-5.073.011a2.2,2.2,0,0,1-2.1-1.348,2.127,2.127,0,0,1,.587-2.4.361.361,0,0,0,.038-.053,2.185,2.185,0,0,1,.008-3.348,2.155,2.155,0,0,1,.011-3.331,2.258,2.258,0,0,1-.769-1.314,2.145,2.145,0,0,1,1.988-2.48c.424-.01.848,0,1.309,0a2.208,2.208,0,0,1,0-2.413h-3.607a2.119,2.119,0,0,1-2.182-1.723.465.465,0,0,0-.039-.083Zm15.853,6.812a6.952,6.952,0,1,0,6.948,6.962,6.977,6.977,0,0,0-6.948-6.962m-8.063-5.282h.788c1.614,0,3.228,0,4.842,0a1.205,1.205,0,1,0,.036-2.408q-5.653,0-11.307,0l-.069,0a1.206,1.206,0,1,0,.126,2.408q2.792,0,5.584,0m5.463,3.337q2.815,0,5.63,0a1.207,1.207,0,1,0-.023-2.41H153.343c-.046,0-.093,0-.139,0a1.206,1.206,0,1,0,.116,2.408q2.792,0,5.584,0m3.057.986.006-.016c-.148-.015-.3-.043-.445-.043q-5.569,0-11.138,0c-.046,0-.093,0-.139,0a1.207,1.207,0,0,0-1.118,1.527,1.223,1.223,0,0,0,1.241.882c1.768,0,3.535,0,5.3,0a.566.566,0,0,0,.425-.17,7.626,7.626,0,0,1,4.233-2.058c.539-.076,1.087-.086,1.631-.126m-6.925,3.279c-1.58,0-3.2-.02-4.82.009a1.179,1.179,0,0,0-1.091,1.5,1.21,1.21,0,0,0,1.2.9c1.166,0,2.331,0,3.5,0a.988.988,0,0,0,.11-.012l-.058-.039,1.158-2.357m-1.179,6.672c-1.2,0-2.415-.02-3.625.007a1.186,1.186,0,0,0-1.105,1.509,1.217,1.217,0,0,0,1.232.892q2.222,0,4.443,0h.161c-.217-.4-.44-.772-.618-1.161s-.32-.815-.487-1.248m-.189-3.328a.333.333,0,0,0-.074-.01c-1.1,0-2.208,0-3.312,0a1.272,1.272,0,0,0-.405.079,1.191,1.191,0,0,0-.785,1.274,1.207,1.207,0,0,0,1.217,1.052c1.081.007,2.162,0,3.242,0a.667.667,0,0,0,.117-.019Z" transform="translate(704.391 -6563.004)" fill="#1a1818"/>
    <path id="Path_1208" data-name="Path 1208" d="M372.637,764.626c-.036.457-.186.661-.475.664s-.445-.205-.476-.65c-.143-.058-.3-.105-.437-.179a1.744,1.744,0,0,1-1.031-1.53.472.472,0,0,1,.447-.538.482.482,0,0,1,.476.492.939.939,0,0,0,.894.845.991.991,0,0,0,1.114-.693.882.882,0,0,0-.806-1.033,6.908,6.908,0,0,1-.687-.089,1.832,1.832,0,0,1-1.439-1.612,1.787,1.787,0,0,1,1.275-1.828.251.251,0,0,0,.21-.289.458.458,0,1,1,.915-.007c-.006.181.061.247.225.3a1.8,1.8,0,0,1,1.263,1.63.462.462,0,0,1-.439.519c-.274.013-.454-.16-.488-.47a.935.935,0,0,0-.769-.841,1.071,1.071,0,0,0-1.175.49.888.888,0,0,0,.818,1.237,3.051,3.051,0,0,1,.983.21,1.714,1.714,0,0,1,1.068,1.713,1.83,1.83,0,0,1-1.218,1.574c-.079.029-.16.052-.249.081" transform="translate(493.729 -6740.725)" fill="#1a1818"/>
    <path id="Path_1209" data-name="Path 1209" d="M304.31,773.407a6.323,6.323,0,0,1,.632-2.968c.177-.356.419-.473.693-.334s.317.393.15.738a5.051,5.051,0,0,0,1.088,6,9.04,9.04,0,0,0,1.187.834c.16.106.31.2.328.415a.463.463,0,0,1-.708.448,5.908,5.908,0,0,1-2.184-1.82,5.781,5.781,0,0,1-1.186-3.31" transform="translate(555.554 -6752.303)" fill="#1a1818"/>
    <path id="Path_1210" data-name="Path 1210" d="M437.007,736.559a6.224,6.224,0,0,1-.64,2.872c-.171.342-.408.456-.678.326s-.326-.393-.162-.734a5.063,5.063,0,0,0-1.076-6,13.883,13.883,0,0,0-1.181-.844,1.02,1.02,0,0,1-.33-.382.38.38,0,0,1,.163-.447.472.472,0,0,1,.524-.034,6.04,6.04,0,0,1,3.38,5.244" transform="translate(434.911 -6715.91)" fill="#1a1818"/>
    <path id="Path_1211" data-name="Path 1211" d="M405.892,723.387a.462.462,0,1,1-.011-.925.463.463,0,1,1,.011.925" transform="translate(460.708 -6707.664)" fill="#1a1818"/>
    <path id="Path_1212" data-name="Path 1212" d="M382.862,903.037a.463.463,0,1,1-.013-.925.462.462,0,1,1,.013.925" transform="translate(482.331 -6876.191)" fill="#1a1818"/>
  </g>
</svg>
