<svg xmlns="http://www.w3.org/2000/svg" width="18" height="15.427" viewBox="0 0 18 15.427">
  <g id="connection-svgrepo-com" transform="translate(-64 -128)">
    <path id="Path_796" data-name="Path 796" d="M263.714,384v1.286h-3.857a2.571,2.571,0,0,0-2.571,2.571v2.571A2.571,2.571,0,0,0,259.857,393h6.429a2.571,2.571,0,0,0,2.571-2.571v-2.571a2.571,2.571,0,0,0-1.286-2.227v-1.412a3.859,3.859,0,0,1,2.571,3.637v2.571a3.857,3.857,0,0,1-3.857,3.857h-6.429A3.857,3.857,0,0,1,256,390.427v-2.57A3.857,3.857,0,0,1,259.857,384Z" transform="translate(-188.143 -250.857)"/>
    <path id="Path_797" data-name="Path 797" d="M70.429,138.286V137h3.857a2.571,2.571,0,0,0,2.571-2.571v-2.571a2.571,2.571,0,0,0-2.571-2.571H67.857a2.571,2.571,0,0,0-2.571,2.571v2.571a2.571,2.571,0,0,0,1.286,2.227v1.412A3.858,3.858,0,0,1,64,134.429v-2.571A3.857,3.857,0,0,1,67.857,128h6.429a3.857,3.857,0,0,1,3.857,3.857v2.571a3.857,3.857,0,0,1-3.857,3.857Z"/>
  </g>
</svg>
