<svg xmlns="http://www.w3.org/2000/svg" width="15.965" height="15.97" viewBox="3.328 3.303 15.965 15.97"><g data-name="Group 2331"><g data-name="Group 2330" clip-path="url(&quot;#a&quot;)"><path d="m5.316 6 .706-.706.242-.19c.881-.706 1.856-1.235 2.952-1.516 2.465-.633 4.74-.213 6.817 1.263.19.134.37.28.555.42l.75.751c.117.15.238.298.351.451.916 1.233 1.483 2.609 1.582 4.145.198 3.056-.973 5.487-3.454 7.267a7.358 7.358 0 0 1-3.902 1.37c-2.756.167-5.028-.824-6.803-2.932a7.32 7.32 0 0 1-1.53-3.03c-.586-2.436-.162-4.684 1.302-6.727.138-.193.288-.378.432-.566m10.763 10.064a6.726 6.726 0 0 0 .014-9.528c-2.626-2.648-6.892-2.654-9.54-.013a6.73 6.73 0 0 0-.014 9.529 6.73 6.73 0 0 0 9.54.012" fill="#fff" fill-rule="evenodd" data-name="Path 1106"/><path d="M11.897 11.833c.018.088.04.145.04.202.002.743.002 1.486 0 2.23-.002.331-.147.556-.41.65-.417.148-.825-.144-.833-.607-.008-.431 0-.863-.001-1.294l-.002-1.15c-.06-.001-.114-.005-.169-.005-.748 0-1.497 0-2.245.002-.238 0-.44-.071-.572-.282a.614.614 0 0 1 .493-.955c.327-.014.655-.005.983-.005.498 0 .996.003 1.507.004.003-.07.007-.125.007-.18 0-.744.003-1.487.001-2.23 0-.266.09-.48.327-.61.423-.233.907.065.917.566.007.4 0 .8 0 1.201l.001 1.2c0 .01.005.02.008.09.056-.015.112-.042.168-.042a230.22 230.22 0 0 1 2.245-.003c.482.003.788.417.628.84-.097.259-.311.4-.624.401-.748.003-1.497.002-2.245.001-.057 0-.114-.012-.224-.024" fill="#fff" fill-rule="evenodd" data-name="Path 1110"/></g></g><defs><clipPath id="a"><path d="M0 0h22v23H0V0z" data-name="Rectangle 1352" transform="translate(.296 -.111)"/></clipPath></defs></svg>