<svg xmlns="http://www.w3.org/2000/svg" width="29.353" height="29.363" viewBox="0 0 29.353 29.363">
  <path id="call-out-svgrepo-com" d="M3.468,5.669V8.614A21.281,21.281,0,0,0,24.749,29.9h2.935a2.2,2.2,0,0,0,2.2-2.2V23.929a2.2,2.2,0,0,0-1.505-2.088l-4.672-1.557a2.2,2.2,0,0,0-2.528.867l-1.07,1.6a2.2,2.2,0,0,1-2.528.867l-2.239-.746a7.238,7.238,0,0,1-4.694-4.962l-.92-3.374a2.2,2.2,0,0,1,1.428-2.668l.884-.295A1.982,1.982,0,0,0,13.37,9.371l-.677-4.064a2.2,2.2,0,0,0-2.172-1.84H5.669A2.2,2.2,0,0,0,3.468,5.669ZM2,5.669A3.669,3.669,0,0,1,5.669,2h4.852A3.669,3.669,0,0,1,14.14,5.066l.677,4.064a3.45,3.45,0,0,1-2.312,3.84l-.884.295a.734.734,0,0,0-.476.889l.92,3.374a5.77,5.77,0,0,0,3.742,3.956l2.239.746a.734.734,0,0,0,.843-.289l1.07-1.6a3.669,3.669,0,0,1,4.213-1.446l4.672,1.557a3.669,3.669,0,0,1,2.509,3.481v3.765a3.669,3.669,0,0,1-3.669,3.669H24.749A22.749,22.749,0,0,1,2,8.614Z" transform="translate(-2 -2)"/>
</svg>
