<svg xmlns="http://www.w3.org/2000/svg" width="24.837" height="20.33" viewBox="0 0 24.837 20.33">
  <g id="mail-message-email-download-upload-svgrepo-com" transform="translate(-3.07 -8.32)">
    <path id="Path_1276" data-name="Path 1276" d="M25.546,28.65H5.431A2.365,2.365,0,0,1,3.07,26.289V10.681A2.365,2.365,0,0,1,5.431,8.32H25.546a2.365,2.365,0,0,1,2.361,2.361V26.289A2.365,2.365,0,0,1,25.546,28.65ZM5.431,9.608a1.073,1.073,0,0,0-1.073,1.073V26.289a1.073,1.073,0,0,0,1.073,1.073H25.546a1.073,1.073,0,0,0,1.073-1.073V10.681a1.073,1.073,0,0,0-1.073-1.073Z"/>
    <path id="Path_1277" data-name="Path 1277" d="M21.3,22.644a.858.858,0,0,1-.18-.021l-7.4-2.146a.646.646,0,0,1,.361-1.241L21.3,21.33l7.224-2.095a.646.646,0,0,1,.361,1.241l-7.4,2.146A.859.859,0,0,1,21.3,22.644Z" transform="translate(-5.807 -6.215)"/>
    <path id="Path_1278" data-name="Path 1278" d="M43.946,36.244A.644.644,0,0,1,43.3,35.6V32.08l-.262.262a.644.644,0,0,1-.91-.91l1.361-1.361a.644.644,0,0,1,1.1.459V35.6A.644.644,0,0,1,43.946,36.244Z" transform="translate(-22.195 -12.308)"/>
    <path id="Path_1279" data-name="Path 1279" d="M47.1,32.477a.64.64,0,0,1-.455-.189l-1.365-1.361a.648.648,0,0,1,0-.91.64.64,0,0,1,.91,0l1.365,1.361a.648.648,0,0,1,0,.91A.657.657,0,0,1,47.1,32.477Z" transform="translate(-23.985 -12.275)"/>
    <path id="Path_1280" data-name="Path 1280" d="M45.08,47.288H41.144a.644.644,0,1,1,0-1.288h3.932a.644.644,0,0,1,0,1.288Z" transform="translate(-21.363 -21.505)"/>
  </g>
</svg>
