<svg xmlns="http://www.w3.org/2000/svg" width="23.151" height="23.137" viewBox="0 0 23.151 23.137">
  <g id="Group_1934" data-name="Group 1934" transform="translate(-704.391 6543.583)">
    <path id="Path_1200" data-name="Path 1200" d="M0,211.377a1.067,1.067,0,0,1,.576-.536c.415-.194.823-.4,1.232-.61a2.061,2.061,0,0,1,1.807-.075.318.318,0,0,0,.264-.065c.467-.392.914-.808,1.387-1.193a4.773,4.773,0,0,1,5.821-.016c1,.788.65.632,1.808.642.888.008,1.777,0,2.665,0a2.02,2.02,0,0,1,2.027,1.327,1.025,1.025,0,0,0,.081.112,1.724,1.724,0,0,1,.143-.21c.583-.63,1.163-1.262,1.755-1.884a2.025,2.025,0,0,1,2.621-.383,1.98,1.98,0,0,1,.55,2.912c-1.106,1.53-2.237,3.044-3.408,4.526a4.528,4.528,0,0,1-3.711,1.732c-2.078.007-4.156,0-6.234,0h-1.7a2.028,2.028,0,0,1-.564,1.452,3.154,3.154,0,0,1-.671.485c-.42.233-.857.436-1.287.649a.707.707,0,0,1-1.089-.37q-2.029-4.06-4.057-8.122c0-.006-.012-.009-.018-.014v-.362M11.57,216.3h3.953a3.484,3.484,0,0,0,2.963-1.485c.478-.648.965-1.289,1.449-1.933.555-.74,1.113-1.479,1.665-2.222a.678.678,0,1,0-1.056-.847q-1.418,1.519-2.834,3.041a2.123,2.123,0,0,1-1.612.733q-1.92,0-3.84,0a.678.678,0,1,1,0-1.353c.617,0,1.235,0,1.852,0,.512,0,1.024.008,1.536,0a.678.678,0,0,0,.664-.913.708.708,0,0,0-.719-.441c-1.137,0-2.274-.008-3.411,0a2.133,2.133,0,0,1-1.357-.468q-.242-.186-.479-.377a3.369,3.369,0,0,0-4.357.026c-.4.332-.777.69-1.175,1.023a.217.217,0,0,0-.064.319q1.185,2.355,2.357,4.716a.291.291,0,0,0,.308.186c1.385-.006,2.771,0,4.156,0m-6.52,2.472c.268-.133.51-.252.75-.373a.712.712,0,0,0,.365-1.122l-1.2-2.4q-.77-1.542-1.542-3.083a.658.658,0,0,0-.844-.411c-.333.127-.647.306-.99.473l3.458,6.916" transform="translate(704.391 -6740.815)" fill="#1a1818"/>
    <path id="Path_1201" data-name="Path 1201" d="M148.943,19.421a6.628,6.628,0,0,1,.742.244,2.746,2.746,0,0,1,.954,4.275c-.024.028-.046.058-.079.1.058.044.108.085.161.12a4.09,4.09,0,0,1,1.925,3.547c0,.211,0,.422,0,.632a.658.658,0,0,1-.663.659q-3.422.006-6.843,0a.64.64,0,0,1-.662-.585,5.347,5.347,0,0,1,.24-2.158,4.155,4.155,0,0,1,1.65-2.057c.069-.045.137-.092.217-.145a2.885,2.885,0,0,1-.675-1.209,2.773,2.773,0,0,1,2.187-3.379.725.725,0,0,0,.123-.045Zm2.326,8.214a2.682,2.682,0,0,0-2.654-2.737,2.744,2.744,0,0,0-2.771,2.737Zm-2.676-4.1a1.379,1.379,0,0,0,1.342-1.367,1.417,1.417,0,0,0-1.362-1.386,1.46,1.46,0,0,0-1.391,1.416,1.417,1.417,0,0,0,1.41,1.337" transform="translate(568.102 -6563.004)" fill="#1a1818"/>
  </g>
</svg>
