<svg xmlns="http://www.w3.org/2000/svg" width="26.086" height="26.08" viewBox="0 0 26.086 26.08">
  <g id="Group_2801" data-name="Group 2801" transform="translate(-2607.806 -1424.727)">
    <path id="Path_6917" data-name="Path 6917" d="M2607.806,1638.959a.434.434,0,0,0,.047-.087,1.912,1.912,0,0,1,1.937-1.484q3.742,0,7.484,0a5.877,5.877,0,0,1,.788.018,1.907,1.907,0,0,1,1.71,1.973c0,1.035,0,2.07,0,3.1v8.016a1.932,1.932,0,0,1-1.534,2.078c-.015,0-.025.021-.038.032h-8.814a6.367,6.367,0,0,1-.777-.357,1.982,1.982,0,0,1-.8-1.222Zm1.629,6.037q0,2.762,0,5.523c0,.389.072.461.456.461h7.765c.413,0,.47-.057.47-.47q0-5.51,0-11.021c0-.4-.054-.458-.454-.458h-7.79c-.382,0-.447.065-.447.441Q2609.435,1642.234,2609.435,1645Z" transform="translate(0 -201.803)"/>
    <path id="Path_6918" data-name="Path 6918" d="M2607.806,1426.306c.031-.087.062-.174.091-.262a1.88,1.88,0,0,1,1.8-1.315q4.074,0,8.147,0a1.885,1.885,0,0,1,1.918,1.869q.027,2.469,0,4.938a1.886,1.886,0,0,1-1.88,1.888q-4.1.022-8.2,0a1.9,1.9,0,0,1-1.827-1.43,1.317,1.317,0,0,0-.056-.137Zm5.984.05h-3.92c-.354,0-.435.08-.435.431q0,2.277,0,4.555c0,.377.065.443.445.443h7.813c.37,0,.432-.062.432-.429q0-2.277,0-4.555c0-.38-.066-.446-.442-.446Z" transform="translate(0 0)"/>
    <path id="Path_6919" data-name="Path 6919" d="M2885.942,1773.828c-.054-.02-.106-.045-.162-.061a1.909,1.909,0,0,1-1.406-1.821c-.012-1.646-.015-3.292,0-4.938a1.889,1.889,0,0,1,1.89-1.879q4.1-.018,8.2,0a1.883,1.883,0,0,1,1.871,1.916q0,2.405,0,4.811a1.882,1.882,0,0,1-1.489,1.926.5.5,0,0,0-.09.044Zm4.407-1.629h3.919c.354,0,.437-.081.437-.43q0-2.277,0-4.555c0-.378-.065-.444-.444-.444h-7.813c-.372,0-.433.061-.434.427q0,2.277,0,4.555c0,.382.066.448.441.448Z" transform="translate(-262.444 -323.022)"/>
    <path id="Path_6920" data-name="Path 6920" d="M2896.42,1432.352q0,2.814,0,5.627a1.9,1.9,0,0,1-1.968,1.979q-4.012.006-8.023,0a1.917,1.917,0,0,1-1.972-1.984q0-5.627,0-11.254a1.9,1.9,0,0,1,1.99-1.982h8a1.888,1.888,0,0,1,1.976,1.987Q2896.421,1429.538,2896.42,1432.352Zm-10.32-.028q0,2.774,0,5.549c0,.383.059.441.445.442h7.79c.4,0,.456-.062.456-.459v-11.021c0-.4-.068-.469-.474-.469h-7.74c-.427,0-.478.052-.478.487Q2886.1,1429.588,2886.1,1432.324Z" transform="translate(-262.53 -0.009)"/>
  </g>
</svg>
