<svg xmlns="http://www.w3.org/2000/svg" width="22.871" height="20.357" viewBox="0 0 22.871 20.357">
  <g id="Group_2665" data-name="Group 2665" transform="translate(-37 -587.982)">
    <g id="dhis2-logo-svgrepo-com" transform="translate(31.086 580.5)">
      <path id="Path_915" data-name="Path 915" d="M7.263,20.455l-.751.463a1.259,1.259,0,0,0-.067,2.1L16.574,30.2a1.259,1.259,0,0,0,1.452,0L28.249,23.02a1.259,1.259,0,0,0-.067-2.1l-.907-.555-1.114.795,1.365.834L17.3,29.173,7.173,21.99l1.214-.749Zm15.98-1.083L17.3,15.74l-6,3.7-1.125-.785,6.46-3.985a1.259,1.259,0,0,1,1.318,0l6.4,3.911Z" transform="translate(0 -2.594)" fill-rule="evenodd"/>
      <path id="Path_916" data-name="Path 916" d="M17.3,8.74,7.173,14.989,17.3,22.173,27.526,14.99ZM6.512,13.918a1.259,1.259,0,0,0-.067,2.1L16.574,23.2a1.259,1.259,0,0,0,1.452,0L28.249,16.02a1.259,1.259,0,0,0-.067-2.1L17.958,7.666a1.259,1.259,0,0,0-1.318,0Z" transform="translate(0)" fill-rule="evenodd"/>
    </g>
  </g>
</svg>
