<svg xmlns="http://www.w3.org/2000/svg" width="24.358" height="24.358" viewBox="0 0 24.358 24.358">
  <g id="Group_1936" data-name="Group 1936" transform="translate(-1364 6022.184)">
    <path id="Path_1213" data-name="Path 1213" d="M681.255,565.178q-1.185-1.164-2.369-2.329c-.169-.167-.333-.338-.5-.5a4.439,4.439,0,0,1-.554.233,1.558,1.558,0,0,1-1.55-.343q-.568-.523-1.111-1.074a.252.252,0,0,0-.346-.057,10.309,10.309,0,0,1-5.139,1.016,10.7,10.7,0,0,1-9.971-9.062c-.044-.272-.074-.547-.111-.82v-1.522c.037-.273.067-.548.111-.82a10.57,10.57,0,0,1,2.949-5.883,10.422,10.422,0,0,1,5.622-3c.4-.075.809-.126,1.214-.189h1.522c.4.061.8.111,1.192.184a10.42,10.42,0,0,1,5.6,2.962,10.051,10.051,0,0,1,2.983,5.942,10.477,10.477,0,0,1-4.637,10.444c-.064.046-.129.088-.222.151.356.34.688.68,1.046.99a.6.6,0,0,0,.826-.042q1.224-1.2,2.422-2.421a.633.633,0,0,0,0-.9c-.066-.079-.139-.152-.2-.235a.5.5,0,0,1,.746-.679,1.721,1.721,0,0,1,.377,2.309.248.248,0,0,0-.017.054l2.832,2.893v.333a1.747,1.747,0,0,1-.409.322c-.224.087-.4-.059-.561-.218q-1.281-1.29-2.561-2.57l-1.31,1.31,2.532,2.532c.4.4.381.67-.069,1Zm-20.624-13.716a9.634,9.634,0,1,0,9.643-9.621,9.642,9.642,0,0,0-9.643,9.621" transform="translate(704.391 -6563.004)" fill="#1a1818"/>
    <rect id="Rectangle_1116" data-name="Rectangle 1116" width="0.994" height="1.006" transform="translate(1374.157 -5999.85)" fill="#1a1818"/>
    <rect id="Rectangle_1117" data-name="Rectangle 1117" width="0.982" height="1.006" transform="translate(1372.135 -5999.849)" fill="#1a1818"/>
    <rect id="Rectangle_1118" data-name="Rectangle 1118" width="0.99" height="1.006" transform="translate(1376.192 -5999.852)" fill="#1a1818"/>
    <path id="Path_1214" data-name="Path 1214" d="M790.324,642.3a2.345,2.345,0,0,1-.768-1.39,4.789,4.789,0,0,1,.2-2.593,2.529,2.529,0,0,1,4.809.921,12.291,12.291,0,0,1-.01,1.5,2.466,2.466,0,0,1-.794,1.565c.092.066.166.121.244.173.685.457,1.368.916,2.056,1.368a1.12,1.12,0,0,1,.551,1.034c-.014.515-.009,1.03,0,1.545a.666.666,0,0,1-.261.556,4.392,4.392,0,0,1-2.851,1.068q-1.45.013-2.9,0a4.4,4.4,0,0,1-2.855-1.059.682.682,0,0,1-.271-.575c.01-.483.023-.968,0-1.45a1.223,1.223,0,0,1,.638-1.18c.675-.429,1.333-.883,2-1.327.065-.044.13-.089.22-.151m1.721,4.707h0c.539,0,1.078.006,1.617,0a3.12,3.12,0,0,0,1.8-.645.334.334,0,0,0,.117-.231c.012-.4.013-.809,0-1.213a.352.352,0,0,0-.132-.245q-1.287-.874-2.589-1.727a.509.509,0,0,0-.258-.041q-.566-.007-1.132,0a.5.5,0,0,0-.257.046q-1.291.848-2.569,1.714a.38.38,0,0,0-.145.261c-.016.4-.013.793,0,1.189a.337.337,0,0,0,.108.236,3.1,3.1,0,0,0,1.774.655c.555.013,1.11,0,1.665,0m1.572-7.067-.038-.011c-.018-.26-.019-.523-.057-.78a1.485,1.485,0,0,0-1.48-1.251,1.465,1.465,0,0,0-1.48,1.245,7.04,7.04,0,0,0-.03,1.35,1.5,1.5,0,0,0,1.22,1.419,1.471,1.471,0,0,0,1.653-.867,5.934,5.934,0,0,0,.212-1.106" transform="translate(582.617 -6654.486)" fill="#1a1818"/>
    <path id="Path_1215" data-name="Path 1215" d="M702.5,591.762a8.648,8.648,0,0,1,5.975-7.817,8.248,8.248,0,0,1,2.592-.411.508.508,0,1,1,.013,1.012,8.114,8.114,0,0,0-2.778.551,7.586,7.586,0,0,0-3.943,3.578,7.8,7.8,0,0,0-.859,3.446.5.5,0,0,1-.668.512.444.444,0,0,1-.328-.4c-.013-.157,0-.316,0-.474" transform="translate(663.542 -6603.685)" fill="#1a1818"/>
    <path id="Path_1216" data-name="Path 1216" d="M881.992,754.99a8.444,8.444,0,0,1-1.571,4.58,8.571,8.571,0,0,1-4.379,3.228,8.288,8.288,0,0,1-2.614.418.522.522,0,0,1-.553-.5.513.513,0,0,1,.522-.508,8.183,8.183,0,0,0,2.824-.562,7.59,7.59,0,0,0,3.91-3.549,7.7,7.7,0,0,0,.865-3.468.512.512,0,0,1,.305-.5.43.43,0,0,1,.525.086.984.984,0,0,1,.178.418,1.34,1.34,0,0,1-.013.355" transform="translate(501.271 -6766.119)" fill="#1a1818"/>
  </g>
</svg>
