<svg xmlns="http://www.w3.org/2000/svg" width="20.608" height="22.915" viewBox="0 0 20.608 22.915">
  <g id="Group_1935" data-name="Group 1935" transform="translate(-1375.223 6563.249)">
    <path id="Path_1202" data-name="Path 1202" d="M674.178,22.419a7.022,7.022,0,0,1-1.033-.323,3.415,3.415,0,0,1-2.054-3.266q-.02-7.617,0-15.234a3.489,3.489,0,0,1,2.8-3.516,3.1,3.1,0,0,1,.671-.071q5.417-.006,10.835,0a3.45,3.45,0,0,1,3.45,3.249c.056,1.07.026,2.144.031,3.216,0,.773,0,1.547,0,2.32a.887.887,0,1,1-1.766.02c-.007-.613,0-1.226,0-1.839,0-1.131,0-2.262,0-3.393a1.71,1.71,0,0,0-1.3-1.751,2.195,2.195,0,0,0-.582-.073q-5.242-.006-10.484,0a1.765,1.765,0,0,0-1.822,1.3,1.978,1.978,0,0,0-.059.519q0,7.628,0,15.256a1.717,1.717,0,0,0,1.312,1.763,2.339,2.339,0,0,0,.584.066c.89.007,1.78,0,2.67,0a.882.882,0,0,1,.96.708.873.873,0,0,1-.627,1.013c-.013,0-.021.019-.032.029Z" transform="translate(704.391 -6563.004)" fill="#1a1818" stroke="#fff" stroke-width="0.5"/>
    <path id="Path_1203" data-name="Path 1203" d="M845.337,227.532a.913.913,0,0,1-.669-.8,1.116,1.116,0,0,1,.043-.385c.331-1.107.663-2.215,1.011-3.317a1.274,1.274,0,0,1,.3-.5q2.36-2.374,4.737-4.731a2.626,2.626,0,0,1,3.756,3.669c-.477.5-.977.983-1.467,1.472q-1.618,1.616-3.235,3.232a1.49,1.49,0,0,1-.688.4c-1.1.3-2.2.608-3.3.914a.66.66,0,0,0-.1.044Zm5.243-7.062c-.047.044-.105.1-.161.152-.727.725-1.425,1.484-2.191,2.166a3.582,3.582,0,0,0-1.235,2.081,5.283,5.283,0,0,1-.149.511c.612-.169,1.178-.323,1.741-.486.063-.018.112-.089.163-.14l2.923-2.919c.05-.05.1-.1.13-.14l-1.222-1.224m2.508-.066a.882.882,0,0,0,.384-.93.816.816,0,0,0-.668-.668.906.906,0,0,0-.937.382l1.221,1.217" transform="translate(540.324 -6768.117)" fill="#1a1818" stroke="#fff" stroke-width="0.5"/>
    <path id="Path_1204" data-name="Path 1204" d="M740.506,97.592q-2.243,0-4.487,0a.872.872,0,0,1-.381-1.658,1,1,0,0,1,.4-.087q4.487-.007,8.974,0a.874.874,0,1,1,0,1.747q-2.254,0-4.509,0" transform="translate(643.841 -6653.587)" fill="#1a1818" stroke="#fff" stroke-width="0.5"/>
    <path id="Path_1205" data-name="Path 1205" d="M740.507,161.467q-2.243,0-4.487,0a.872.872,0,0,1-.381-1.658,1,1,0,0,1,.4-.087q4.487-.007,8.974,0a.874.874,0,1,1,0,1.747q-2.254,0-4.509,0" transform="translate(643.84 -6713.96)" fill="#1a1818" stroke="#fff" stroke-width="0.5"/>
    <path id="Path_1206" data-name="Path 1206" d="M738.627,225.336q-1.334,0-2.668,0a.877.877,0,1,1,.007-1.749q2.7,0,5.4,0a.874.874,0,0,1,.209,1.724,1.207,1.207,0,0,1-.281.023q-1.334,0-2.668,0" transform="translate(643.961 -6774.327)" fill="#1a1818" stroke="#fff" stroke-width="0.5"/>
  </g>
</svg>
