<svg xmlns="http://www.w3.org/2000/svg" width="42" height="41" viewBox="0 0 42 41">
  <g id="Group_2569" data-name="Group 2569" transform="translate(485 -1983)">
    <g id="Group_2565" data-name="Group 2565" transform="translate(-1182.572 1689)" opacity="0.445">
      <g id="Rectangle_1329" data-name="Rectangle 1329" transform="translate(697.572 294)" fill="#fff" stroke="#707070" stroke-width="1">
        <rect width="42" height="41" rx="9" stroke="none"/>
        <rect x="0.5" y="0.5" width="41" height="40" rx="8.5" fill="none"/>
      </g>
    </g>
    <g id="Group_2566" data-name="Group 2566" transform="translate(-2208.153 1656)">
      <path id="Path_1044" data-name="Path 1044" d="M737.221,413.237a.749.749,0,0,1-.549-.525.669.669,0,0,1,.664-.875c1.07,0,2.14,0,3.21,0h7.562a.709.709,0,0,1,.74.8.656.656,0,0,1-.445.545c-.052.021-.1.039-.158.058Z" transform="translate(1001.368 -58.607)" stroke="#f0f0f0" stroke-width="0.5"/>
      <path id="Path_1045" data-name="Path 1045" d="M748.6,68.2a2.584,2.584,0,0,1-.769,1.865q-3.151,3.149-6.3,6.3a1.931,1.931,0,0,1-1.044.514q-1.224.238-2.447.488a1.479,1.479,0,0,1-1.733-1.237,3.177,3.177,0,0,1,.126-1.07c.134-.671.278-1.34.42-2.009a1.7,1.7,0,0,1,.463-.868q3.162-3.168,6.324-6.335a2.623,2.623,0,0,1,3.769.063q.235.249.472.5A2.565,2.565,0,0,1,748.6,68.2Zm-10.853,7.741c.051,0,.084,0,.116-.007.83-.139,1.66-.278,2.489-.422a.335.335,0,0,0,.169-.088q3.146-3.155,6.288-6.314a1.126,1.126,0,0,0,.006-1.677c-.175-.182-.355-.358-.535-.536a1.163,1.163,0,0,0-1.654,0q-3.145,3.146-6.285,6.3a.281.281,0,0,0-.082.128C738.087,74.184,737.919,75.052,737.747,75.937Z" transform="translate(1001.706 274.924)" stroke="#f0f0f0" stroke-width="0.5"/>
    </g>
  </g>
</svg>
