<svg xmlns="http://www.w3.org/2000/svg" width="333.525" height="84.178" viewBox="0 0 333.525 84.178">
  <g id="Group_1897" data-name="Group 1897" transform="translate(-1658.338 -31.874)">
    <g id="Group_1380" data-name="Group 1380" transform="translate(1715.777 31.874)">
      <g id="Group_970" data-name="Group 970" transform="translate(0 0)">
        <g id="Group_2" data-name="Group 2">
          <g id="Group_1" data-name="Group 1" transform="translate(0.923 50.219)">
            <path id="ower_House" data-name="ower House" d="M9.251-1.779V-9.77h4.222c3.087,0,4.4,1.544,4.4,4s-1.317,4-4.4,4Zm16.526-4c0-5.857-3.9-10.26-11.713-10.26H1.488V15.836H9.251V4.4h4.812C22.191,4.4,25.777-.508,25.777-5.774ZM53.7,3.17c0-8.036-5.72-13.03-13.166-13.03-7.4,0-13.166,4.994-13.166,13.03S33,16.2,40.446,16.2,53.7,11.205,53.7,3.17Zm-18.433,0c0-4.313,2.452-6.311,5.266-6.311,2.724,0,5.266,2,5.266,6.311,0,4.268-2.588,6.311-5.357,6.311C37.631,9.48,35.27,7.437,35.27,3.17ZM61.2,15.836h8.535L73.864-.6l4,16.435H86.44L93.3-9.5H85.986L82.445,8.527,78.132-9.5H69.915L65.647,8.618,62.06-9.5H54.3ZM106.511-3.64c2.588,0,4.767,1.589,4.767,4.358h-9.716A4.8,4.8,0,0,1,106.511-3.64ZM118.633,7.437H110.37a4.128,4.128,0,0,1-4.041,2.452c-2.5,0-4.54-1.544-4.812-4.858h17.57a19.617,19.617,0,0,0,.136-2.27C119.224-4.957,114-9.86,106.6-9.86c-7.536,0-12.8,4.994-12.8,13.03S99.157,16.2,106.6,16.2C112.913,16.2,117.407,12.386,118.633,7.437Zm11.536-3.36c0-4.358,2.134-5.63,5.811-5.63h2.134V-9.77a9.444,9.444,0,0,0-7.945,4.495V-9.5h-7.763V15.836h7.763Zm10.764,11.759H148.7V2.08c0-3.45,1.907-5.357,4.858-5.357s4.858,1.907,4.858,5.357V15.836h7.718V1.036c0-6.81-3.859-10.805-9.625-10.805A9.343,9.343,0,0,0,148.7-6.092V-17.76h-7.764ZM195.418,3.17c0-8.036-5.72-13.03-13.166-13.03-7.4,0-13.166,4.994-13.166,13.03s5.63,13.03,13.075,13.03S195.418,11.205,195.418,3.17Zm-18.433,0c0-4.313,2.452-6.311,5.266-6.311,2.724,0,5.266,2,5.266,6.311,0,4.268-2.588,6.311-5.357,6.311C179.346,9.48,176.985,7.437,176.985,3.17ZM223.661-9.5H215.9V4.259c0,3.45-1.907,5.357-4.9,5.357-2.906,0-4.858-1.907-4.858-5.357V-9.5h-7.718V5.3c0,6.765,3.95,10.805,9.807,10.805a9.231,9.231,0,0,0,7.673-3.723v3.45h7.763ZM248.907,8.481C248.771-.962,235.06,1.9,235.06-2.142c0-1.226,1-1.952,2.815-1.952,2.179,0,3.5,1.135,3.723,2.86h7.173c-.5-4.994-4.131-8.626-10.669-8.626-6.628,0-10.306,3.541-10.306,7.854,0,9.307,13.8,6.356,13.8,10.442,0,1.135-1.044,2.043-3.042,2.043-2.134,0-3.723-1.18-3.9-2.951h-7.673c.363,4.9,4.9,8.671,11.668,8.671C245,16.2,248.907,12.885,248.907,8.481ZM263.939-3.64c2.588,0,4.767,1.589,4.767,4.358H258.99A4.8,4.8,0,0,1,263.939-3.64ZM276.061,7.437H267.8a4.128,4.128,0,0,1-4.041,2.452c-2.5,0-4.54-1.544-4.812-4.858h17.57a19.621,19.621,0,0,0,.136-2.27c0-7.718-5.221-12.621-12.621-12.621-7.536,0-12.8,4.994-12.8,13.03s5.357,13.03,12.8,13.03C270.341,16.2,274.835,12.386,276.061,7.437Z" transform="translate(-1.488 17.76)" fill="#005f83"/>
          </g>
          <g id="Group_1-2" data-name="Group 1">
            <text id="ower_House-2" data-name="ower House" transform="translate(0 38)" font-size="36" font-family="Poppins-Light, Poppins" font-weight="300" letter-spacing="-0.02em"><tspan x="0" y="0">Insurance </tspan></text>
          </g>
        </g>
      </g>
    </g>
    <path id="Subtraction_2" data-name="Subtraction 2" d="M42.021,73.238H16.412l7.45-16.758H42.021V73.236ZM0,73.233H0V0H35.851ZM42.021,45.308H28.868L41.789,15.516l.232.545V45.307Z" transform="translate(1658.338 42.814)" fill="#005f83"/>
  </g>
</svg>
