<svg xmlns="http://www.w3.org/2000/svg" width="29.858" height="30.831" viewBox="0 0 29.858 30.831">
  <g id="Group_12" data-name="Group 12" transform="translate(0 0)">
    <path id="Path_96" data-name="Path 96" d="M774.916,324.27a11.265,11.265,0,0,1-1.26-.37,4.6,4.6,0,0,1-2.795-3.21c-.076-.288-.194-.343-.462-.341q-2.62.017-5.238,0A2.148,2.148,0,0,1,763,318.075a2.207,2.207,0,0,1,1.041-1.74,4.093,4.093,0,0,0,1.683-2.414,5.276,5.276,0,0,0,.154-1.248c.015-2.047,0-4.094.007-6.142a9.567,9.567,0,0,1,6.509-9.152.3.3,0,0,0,.241-.337,7.935,7.935,0,0,1,.051-1.26,2.821,2.821,0,0,1,5.6.39c.009.311-.006.623.01.934a.3.3,0,0,0,.124.228c.395.165.8.308,1.22.465.276-.488.553-.975.827-1.464a2.566,2.566,0,0,1,4.548-.016q2.761,4.883,5.516,9.768a2.414,2.414,0,0,1-1.43,3.571,3.086,3.086,0,0,1-.771.1c-1.083.01-2.166,0-3.24,0-.022.028-.046.042-.046.058.012,1.193-.042,2.391.055,3.578a3.925,3.925,0,0,0,1.779,2.941,2.216,2.216,0,0,1,1.042,1.8,2.143,2.143,0,0,1-2.134,2.216q-2.634.019-5.268,0c-.269,0-.381.057-.463.341a4.673,4.673,0,0,1-3.887,3.525,1.32,1.32,0,0,0-.166.055Zm8.31-14.512h-.373c-1.886,0-3.773,0-5.659,0a3.035,3.035,0,0,1-.83-.1,2.407,2.407,0,0,1-1.422-3.532c1.192-2.135,2.4-4.26,3.607-6.39.057-.1.11-.206.171-.321-.065-.032-.107-.056-.152-.074a7.549,7.549,0,0,0-4.649-.5,7.754,7.754,0,0,0-6.229,7.666q-.007,3.039,0,6.08a6.178,6.178,0,0,1-2.639,5.267.594.594,0,0,0-.221.435c.014.222.227.266.436.266q10.19,0,20.38,0c.209,0,.423-.041.439-.263a.593.593,0,0,0-.217-.438,6.162,6.162,0,0,1-2.644-5.323C783.233,311.616,783.225,310.7,783.225,309.758Zm-.513-1.806h5.568c.71,0,.972-.453.621-1.074q-2.714-4.8-5.426-9.608a.778.778,0,0,0-1.464,0q-2.709,4.806-5.426,9.608c-.352.624-.093,1.074.618,1.074Zm-4.466,12.42h-5.581a2.907,2.907,0,0,0,5.581,0ZM776.472,296.9a5.912,5.912,0,0,0-.007-.774,1.017,1.017,0,0,0-1.68-.618c-.451.392-.359.906-.334,1.392Z" transform="translate(-761.008 -293.439)"/>
    <path id="Path_97" data-name="Path 97" d="M760.936,299.538a5.739,5.739,0,0,1,5.6-5.536.908.908,0,1,1,.036,1.805,3.93,3.93,0,0,0-3.827,3.77c-.019.656-.389,1.067-.939,1.045S760.923,300.18,760.936,299.538Z" transform="translate(-760.936 -293.458)"/>
    <path id="Path_98" data-name="Path 98" d="M764.429,299.766a2.358,2.358,0,0,1,2.283-2.271.9.9,0,0,1,.129,1.8c-.433.052-.563.178-.61.594a.9.9,0,1,1-1.8-.126Z" transform="translate(-761.057 -293.579)"/>
    <path id="Path_99" data-name="Path 99" d="M784.322,301.6c0,.391.006.781,0,1.172a.9.9,0,1,1-1.8,0q-.01-1.186,0-2.373a.9.9,0,1,1,1.8,0C784.329,300.8,784.322,301.2,784.322,301.6Z" transform="translate(-761.683 -293.648)"/>
    <path id="Path_100" data-name="Path 100" d="M783.416,304.979a.9.9,0,1,1-.9.9A.912.912,0,0,1,783.416,304.979Z" transform="translate(-761.683 -293.839)"/>
  </g>
</svg>
