<svg xmlns="http://www.w3.org/2000/svg" width="42" height="41" viewBox="0 0 42 41">
  <g id="Group_2570" data-name="Group 2570" transform="translate(429 -1986)">
    <g id="Group_2567" data-name="Group 2567" transform="translate(-2198 1461)">
      <g id="Group_2480" data-name="Group 2480" transform="translate(1071.428 231)" opacity="0.45">
        <g id="Rectangle_1329" data-name="Rectangle 1329" transform="translate(697.572 294)" fill="#fff" stroke="#707070" stroke-width="1">
          <rect width="42" height="41" rx="9" stroke="none"/>
          <rect x="0.5" y="0.5" width="41" height="40" rx="8.5" fill="none"/>
        </g>
      </g>
      <g id="Group_2484" data-name="Group 2484" transform="translate(-1 198)">
        <g id="Group_2051" data-name="Group 2051" transform="translate(-79 -355)">
          <path id="Path_1047" data-name="Path 1047" d="M119.487,247.446H110.5a.381.381,0,0,0-.064-.027,1.573,1.573,0,0,1-1.306-1.627q0-1.061,0-2.122v-.192c-.184,0-.342,0-.5,0a2.641,2.641,0,0,1-2.541-1.964c-.031-.117-.058-.235-.086-.353v-4.846a.264.264,0,0,0,.028-.061,2.628,2.628,0,0,1,2.69-2.256h.408c0-.086,0-.15,0-.213,0-.591-.008-1.182,0-1.773a2.614,2.614,0,0,1,2.514-2.537q3.345-.03,6.691,0a2.569,2.569,0,0,1,2.481,2.236c.07.684.032,1.379.042,2.069,0,.068,0,.137,0,.22.2,0,.38,0,.56,0a2.626,2.626,0,0,1,2.561,2.546q.024,2.194,0,4.389a2.609,2.609,0,0,1-2.251,2.511c-.282.036-.569.033-.87.049,0,.064,0,.126,0,.189,0,.737.005,1.475,0,2.212a1.567,1.567,0,0,1-1.05,1.458C119.7,247.39,119.593,247.416,119.487,247.446Zm1.378-5.022h.431a1.579,1.579,0,0,0,1.632-1.626q0-2.063,0-4.125a1.575,1.575,0,0,0-1.617-1.622q-6.321,0-12.641,0a1.575,1.575,0,0,0-1.616,1.623c0,1.375,0,2.75,0,4.125a1.638,1.638,0,0,0,2.066,1.6v-1.732c-.118,0-.228.006-.337,0a.533.533,0,0,1-.495-.466.519.519,0,0,1,.38-.559.979.979,0,0,1,.26-.025h12.132c.041,0,.082,0,.123,0a.526.526,0,0,1,0,1.052c-.1,0-.208,0-.319,0Zm-10.686-1.748v.184q0,2.448,0,4.9c0,.437.2.636.628.636h8.356c.445,0,.64-.2.64-.641q0-2.44,0-4.879v-.2Zm.028-6.692H119.8c0-.678.025-1.345-.006-2.01a1.545,1.545,0,0,0-1.53-1.45q-3.273-.013-6.546,0a1.491,1.491,0,0,0-1.495,1.3C110.157,232.534,110.208,233.256,110.208,233.984Z" transform="translate(1755 464.541)" stroke="#f0f0f0" stroke-width="0.25"/>
        </g>
        <path id="Path_1050" data-name="Path 1050" d="M156.048,375.116c-.269,0-.537,0-.806,0a.527.527,0,1,1-.006-1.052q.815,0,1.629,0a.526.526,0,1,1,.006,1.052C156.6,375.119,156.322,375.116,156.048,375.116Z" transform="translate(1629.604 -28.278)" fill="#fff" stroke="#000" stroke-width="0.5"/>
        <path id="Path_1051" data-name="Path 1051" d="M258.428,494.908c-.444,0-.888,0-1.332,0a.529.529,0,1,1-.006-1.053q1.35,0,2.7,0a.529.529,0,1,1,.006,1.053C259.34,494.91,258.884,494.908,258.428,494.908Z" transform="translate(1532.553 -142.452)" fill="#fff" stroke="#000" stroke-width="0.5"/>
        <path id="Path_1052" data-name="Path 1052" d="M258.44,542.82c-.45,0-.9,0-1.35,0a.529.529,0,1,1,.005-1.053h2.682a.53.53,0,1,1-.005,1.053Z" transform="translate(1532.553 -188.116)" fill="#fff" stroke="#000" stroke-width="0.5"/>
      </g>
    </g>
  </g>
</svg>
