<svg id="Group_2775" data-name="Group 2775" xmlns="http://www.w3.org/2000/svg" xmlns:xlink="http://www.w3.org/1999/xlink" width="24.13" height="24.133" viewBox="0 0 24.13 24.133">
  <defs>
    <clipPath id="clip-path">
      <rect id="Rectangle_1503" data-name="Rectangle 1503" width="24.13" height="24.133" transform="translate(0 0)" fill="#005f83"/>
    </clipPath>
  </defs>
  <g id="Group_2774" data-name="Group 2774" transform="translate(0 0)" clip-path="url(#clip-path)">
    <path id="Path_1265" data-name="Path 1265" d="M19.089,17.061c1.521,1.521,3.027,3.03,4.538,4.535a1.44,1.44,0,0,1,.461,1.425,1.424,1.424,0,0,1-2.4.692c-.774-.742-1.52-1.512-2.278-2.27l-2.354-2.356a10.5,10.5,0,0,1-8.647,1.929,10.263,10.263,0,0,1-6.365-4.128,10.627,10.627,0,1,1,17.045.172M10.61,18.374a7.748,7.748,0,1,0-7.732-7.779,7.726,7.726,0,0,0,7.732,7.779" transform="translate(0 0)" fill="#005f83"/>
  </g>
</svg>
