<svg xmlns="http://www.w3.org/2000/svg" xmlns:xlink="http://www.w3.org/1999/xlink" width="23.972" height="23.99" viewBox="0 0 23.972 23.99">
  <defs>
    <clipPath id="clip-path">
      <rect id="Rectangle_1119" data-name="Rectangle 1119" width="23.972" height="23.99" fill="none"/>
    </clipPath>
  </defs>
  <g id="Group_1939" data-name="Group 1939" transform="translate(0 31)">
    <g id="Group_1938" data-name="Group 1938" transform="translate(0 -31)" clip-path="url(#clip-path)">
      <path id="Path_1217" data-name="Path 1217" d="M173.982,8.006a4.935,4.935,0,0,1-.388.678,1.577,1.577,0,0,1-1.132.48.431.431,0,0,0-.358.271.655.655,0,0,0,.1.853,1.334,1.334,0,0,1,.337.947,1.271,1.271,0,0,1-.326.854c-.232.252-.469.5-.724.731a1.343,1.343,0,0,1-1.682.146.93.93,0,0,1-.192-.132.593.593,0,0,0-.81-.1c-.148.085-.26.14-.282.344a1.528,1.528,0,0,1-1.874,1.548,4.358,4.358,0,0,1-.721-.046,1.373,1.373,0,0,1-1.07-1.191.175.175,0,0,1-.006-.046c.039-.482-.3-.633-.669-.733-.071-.019-.171.036-.249.075a7.17,7.17,0,0,1-.928.464,1.111,1.111,0,0,1-1.087-.269,7.917,7.917,0,0,1-.8-.79,1.321,1.321,0,0,1-.141-1.586.935.935,0,0,1,.141-.214.653.653,0,0,0,.092-.894.38.38,0,0,0-.31-.227,3.833,3.833,0,0,1-.593-.123,1.321,1.321,0,0,1-.943-1.184,9.154,9.154,0,0,1-.013-.959,1.4,1.4,0,0,1,1.313-1.418c.469-.078.606-.2.7-.67a.394.394,0,0,0-.088-.246,2.4,2.4,0,0,1-.473-.926,1.266,1.266,0,0,1,.279-1.07,8.4,8.4,0,0,1,.824-.828,1.346,1.346,0,0,1,1.51-.147.943.943,0,0,1,.236.15.652.652,0,0,0,.943.089.532.532,0,0,0,.192-.252c.056-.177.062-.368.11-.548A1.373,1.373,0,0,1,165.83.06c.049-.018.1-.04.146-.06h1.4a1.442,1.442,0,0,1,.875.644,3.942,3.942,0,0,1,.272.907.422.422,0,0,0,.248.318.636.636,0,0,0,.869-.1.907.907,0,0,1,.193-.13,1.367,1.367,0,0,1,1.663.164c.19.173.367.36.549.542a1.361,1.361,0,0,1,.164,1.967.737.737,0,0,0-.08.933.339.339,0,0,0,.252.2,4.7,4.7,0,0,1,.933.27,1.433,1.433,0,0,1,.663.888Zm-3.408,3.964a1.172,1.172,0,0,0,.157-.108c.163-.157.319-.321.482-.478a.23.23,0,0,0,.029-.348c-.171-.232-.329-.474-.5-.708a.68.68,0,0,1-.058-.726q.236-.532.445-1.077a.689.689,0,0,1,.583-.471c.269-.041.536-.1.805-.138a.246.246,0,0,0,.246-.278c0-.2-.011-.406,0-.608a.278.278,0,0,0-.275-.33c-.269-.043-.536-.1-.805-.139a.676.676,0,0,1-.564-.49c-.129-.35-.272-.695-.429-1.033a.7.7,0,0,1,.066-.767c.161-.22.309-.45.471-.669a.239.239,0,0,0-.022-.367q-.24-.223-.463-.463a.239.239,0,0,0-.367-.022c-.232.172-.471.333-.708.5a.664.664,0,0,1-.686.059c-.371-.159-.743-.316-1.119-.464a.651.651,0,0,1-.442-.526c-.043-.253-.094-.505-.135-.758-.05-.309-.082-.341-.384-.341-.179,0-.359.005-.538,0a.255.255,0,0,0-.3.248c-.04.269-.1.536-.138.805a.694.694,0,0,1-.5.588c-.35.129-.7.27-1.033.428a.7.7,0,0,1-.767-.064c-.214-.156-.439-.3-.648-.461a.266.266,0,0,0-.421.042,5.482,5.482,0,0,1-.413.414.261.261,0,0,0-.028.406c.168.224.325.458.483.689a.647.647,0,0,1,.06.683c-.168.367-.32.742-.466,1.119a.647.647,0,0,1-.524.442c-.276.048-.551.1-.828.144-.179.029-.28.1-.265.308a5.591,5.591,0,0,1,0,.632c-.007.177.074.252.241.277.269.04.536.1.805.138a.692.692,0,0,1,.582.473c.14.362.283.724.446,1.076a.673.673,0,0,1-.062.725c-.162.229-.319.462-.485.688a.254.254,0,0,0,.038.388c.149.137.293.281.43.43a.254.254,0,0,0,.388.036c.232-.171.47-.335.708-.5a.646.646,0,0,1,.684-.055c.36.165.728.313,1.1.454a.69.69,0,0,1,.472.582c.041.269.1.536.138.805a.238.238,0,0,0,.28.238,4.613,4.613,0,0,1,.608,0c.228.02.3-.095.333-.292.039-.262.1-.52.135-.782a.672.672,0,0,1,.468-.558c.362-.141.723-.284,1.076-.446a.675.675,0,0,1,.726.065c.223.157.446.315.671.468a2.274,2.274,0,0,0,.211.114" transform="translate(-150.01)" fill="#1a1818"/>
      <path id="Path_1218" data-name="Path 1218" d="M1.824,124.908a1.455,1.455,0,0,1,.4-.979.932.932,0,0,0,.174-1.193.758.758,0,0,0-.669-.505,1.9,1.9,0,0,1-1.252-.5A1.564,1.564,0,0,1,0,120.617c0-.351,0-.7,0-1.053a1.592,1.592,0,0,1,1.354-1.628,2.038,2.038,0,0,0,.809-.175c.189-.142.22-.48.352-.714a.4.4,0,0,0-.054-.519,4.416,4.416,0,0,1-.388-.556,1.549,1.549,0,0,1,.165-1.923,10.451,10.451,0,0,1,.953-.932,1.528,1.528,0,0,1,1.77-.139c.254.151.494.327.734.5a.249.249,0,0,0,.294.033,5.9,5.9,0,0,1,.688-.289.286.286,0,0,0,.209-.27,7.342,7.342,0,0,1,.135-.734.619.619,0,0,1,.712-.458.637.637,0,0,1,.476.705c-.067.415-.137.83-.214,1.243a.666.666,0,0,1-.452.52q-.715.281-1.42.587a.688.688,0,0,1-.727-.055q-.458-.325-.919-.644c-.271-.187-.408-.176-.638.05s-.434.427-.645.646a.376.376,0,0,0-.05.563q.322.474.659.938a.712.712,0,0,1,.053.787c-.2.429-.383.867-.542,1.312a.757.757,0,0,1-.658.544c-.354.053-.706.12-1.058.185a.394.394,0,0,0-.381.445q-.008.468,0,.936a.406.406,0,0,0,.384.447c.36.065.719.136,1.081.187a.724.724,0,0,1,.624.518c.168.451.35.9.552,1.334a.713.713,0,0,1-.057.787c-.215.3-.423.6-.63.9-.182.264-.174.395.043.618s.427.434.646.645a.388.388,0,0,0,.6.045q.462-.318.919-.645a.7.7,0,0,1,.767-.058c.444.2.9.391,1.355.563a.714.714,0,0,1,.508.605c.054.362.123.721.187,1.081a.412.412,0,0,0,.458.4c.312.005.624.006.936,0a.389.389,0,0,0,.435-.366c.066-.344.137-.688.184-1.034a.789.789,0,0,1,.6-.712,9.258,9.258,0,0,0,1.225-.509.743.743,0,0,1,.849.054c.288.213.584.416.879.62a.4.4,0,0,0,.618-.05c.217-.213.433-.428.645-.646a.389.389,0,0,0,.051-.582q-.316-.464-.645-.919a.732.732,0,0,1-.053-.81c.2-.422.382-.851.537-1.29a.736.736,0,0,1,.648-.549c.378-.051.751-.133,1.128-.193a.63.63,0,0,1,.717.456.618.618,0,0,1-.463.73,7.427,7.427,0,0,1-.735.133.271.271,0,0,0-.263.218,1.032,1.032,0,0,1-.134.347.7.7,0,0,0,.094.947,2.5,2.5,0,0,1,.459.9,1.481,1.481,0,0,1-.438,1.434c-.24.246-.48.491-.729.727a1.586,1.586,0,0,1-2.093.177c-.195-.129-.391-.259-.574-.4a.258.258,0,0,0-.316-.025,3.077,3.077,0,0,1-.579.244.391.391,0,0,0-.313.394,5.874,5.874,0,0,1-.134.71,1.464,1.464,0,0,1-1.27,1.18,6.375,6.375,0,0,1-1.633,0,1.54,1.54,0,0,1-1.3-1.35,3.913,3.913,0,0,1-.088-.529.393.393,0,0,0-.329-.407c-.2-.058-.383-.174-.582-.237a.39.39,0,0,0-.286.03c-.24.144-.458.325-.7.469a1.53,1.53,0,0,1-1.864-.158c-.332-.294-.639-.618-.942-.943a1.527,1.527,0,0,1-.373-1.1" transform="translate(-0.001 -105.196)" fill="#1a1818"/>
      <path id="Path_1219" data-name="Path 1219" d="M89.988,192.412a4.071,4.071,0,0,1-.349-8.127,1.507,1.507,0,0,1,.652.081.541.541,0,0,1,.293.606.615.615,0,0,1-.5.493c-.215.034-.435.038-.649.079a2.841,2.841,0,1,0,3.381,2.921.757.757,0,0,1,.23-.59.56.56,0,0,1,.631-.1.616.616,0,0,1,.379.6,4.064,4.064,0,0,1-3.42,3.975c-.215.032-.433.046-.65.069" transform="translate(-80.868 -173.473)" fill="#1a1818"/>
      <path id="Path_1220" data-name="Path 1220" d="M237.454,80.9a2.908,2.908,0,1,1,2.913-2.884,2.9,2.9,0,0,1-2.913,2.884m0-1.225A1.686,1.686,0,1,0,235.778,78a1.7,1.7,0,0,0,1.679,1.68" transform="translate(-220.799 -70.684)" fill="#1a1818"/>
    </g>
  </g>
</svg>
