<svg xmlns="http://www.w3.org/2000/svg" xmlns:xlink="http://www.w3.org/1999/xlink" width="17.972" height="17.993" viewBox="0 0 17.972 17.993">
  <defs>
    <clipPath id="clip-path">
      <rect id="Rectangle_1119" data-name="Rectangle 1119" width="17.972" height="17.993" transform="translate(10)" fill="none"/>
    </clipPath>
  </defs>
  <g id="Group_1940" data-name="Group 1940" transform="translate(-10)">
    <g id="Group_1938" data-name="Group 1938" clip-path="url(#clip-path)">
      <path id="Path_1217" data-name="Path 1217" d="M176.423,9.342a5.757,5.757,0,0,1-.453.791,1.841,1.841,0,0,1-1.321.56.5.5,0,0,0-.417.316.765.765,0,0,0,.12,1,1.557,1.557,0,0,1,.393,1.1,1.483,1.483,0,0,1-.38,1c-.271.294-.548.586-.845.853a1.566,1.566,0,0,1-1.963.171,1.085,1.085,0,0,1-.224-.154.692.692,0,0,0-.945-.113c-.173.1-.3.164-.329.4a1.782,1.782,0,0,1-2.187,1.806,5.085,5.085,0,0,1-.841-.054,1.6,1.6,0,0,1-1.249-1.39.2.2,0,0,1-.006-.054c.046-.563-.345-.739-.78-.856-.083-.022-.2.042-.29.087a8.368,8.368,0,0,1-1.083.542,1.3,1.3,0,0,1-1.269-.314,9.238,9.238,0,0,1-.929-.921,1.542,1.542,0,0,1-.165-1.85,1.092,1.092,0,0,1,.164-.25.762.762,0,0,0,.107-1.043.444.444,0,0,0-.361-.265,4.473,4.473,0,0,1-.692-.144,1.541,1.541,0,0,1-1.1-1.382,10.678,10.678,0,0,1-.016-1.119A1.631,1.631,0,0,1,160.9,6.4c.547-.091.708-.235.818-.782a.46.46,0,0,0-.1-.288,2.8,2.8,0,0,1-.552-1.081A1.477,1.477,0,0,1,161.384,3a9.8,9.8,0,0,1,.962-.966,1.57,1.57,0,0,1,1.762-.171,1.1,1.1,0,0,1,.275.175.761.761,0,0,0,1.1.1.621.621,0,0,0,.225-.294c.065-.206.072-.43.128-.64A1.6,1.6,0,0,1,166.91.07c.058-.021.114-.046.171-.07h1.639a1.682,1.682,0,0,1,1.021.751,4.6,4.6,0,0,1,.318,1.058.492.492,0,0,0,.289.372.743.743,0,0,0,1.014-.114,1.059,1.059,0,0,1,.226-.151,1.6,1.6,0,0,1,1.94.192c.222.2.429.42.64.633a1.588,1.588,0,0,1,.191,2.3.86.86,0,0,0-.093,1.089.4.4,0,0,0,.294.229,5.489,5.489,0,0,1,1.089.315,1.673,1.673,0,0,1,.774,1.036Zm-3.977,4.626a1.365,1.365,0,0,0,.183-.126c.19-.183.372-.375.563-.557a.269.269,0,0,0,.034-.406c-.2-.271-.384-.553-.58-.826a.793.793,0,0,1-.067-.848q.276-.621.519-1.256a.8.8,0,0,1,.68-.55c.314-.048.625-.114.94-.161A.287.287,0,0,0,175,8.913c0-.237-.013-.474,0-.71a.324.324,0,0,0-.321-.385c-.314-.05-.625-.114-.939-.163a.789.789,0,0,1-.658-.572c-.15-.408-.317-.811-.5-1.205a.816.816,0,0,1,.077-.895c.187-.257.36-.525.55-.781a.279.279,0,0,0-.026-.429q-.28-.26-.541-.54a.279.279,0,0,0-.429-.026c-.27.2-.55.388-.826.581a.775.775,0,0,1-.8.068c-.433-.186-.867-.369-1.306-.542a.759.759,0,0,1-.515-.613c-.05-.3-.11-.589-.158-.885-.059-.36-.1-.4-.449-.4-.209,0-.419.006-.628,0a.3.3,0,0,0-.351.29c-.046.314-.114.625-.161.94a.81.81,0,0,1-.578.686c-.408.151-.812.316-1.206.5a.814.814,0,0,1-.895-.074c-.25-.182-.512-.348-.756-.538a.311.311,0,0,0-.492.049,6.4,6.4,0,0,1-.482.483.3.3,0,0,0-.033.474c.2.262.379.534.564.8a.755.755,0,0,1,.069.8c-.2.428-.373.866-.543,1.305a.756.756,0,0,1-.612.516c-.322.056-.643.116-.966.168-.208.034-.327.121-.309.359a6.524,6.524,0,0,1,0,.737c-.009.206.086.294.281.323.314.047.625.114.94.161a.808.808,0,0,1,.679.552c.163.423.331.845.52,1.256a.785.785,0,0,1-.073.847c-.189.267-.372.539-.566.8a.3.3,0,0,0,.045.452c.174.16.342.328.5.5a.3.3,0,0,0,.453.042c.271-.2.548-.391.826-.58a.753.753,0,0,1,.8-.064c.42.193.849.365,1.281.53a.806.806,0,0,1,.551.679c.048.314.115.625.161.94a.278.278,0,0,0,.327.278,5.383,5.383,0,0,1,.709,0c.266.024.354-.111.388-.341.046-.305.113-.607.158-.912a.784.784,0,0,1,.546-.651c.422-.165.844-.331,1.256-.52a.788.788,0,0,1,.847.076c.26.183.52.367.783.546a2.654,2.654,0,0,0,.246.133" transform="translate(-148.451)" fill="#1a1818"/>
      <path id="Path_1220" data-name="Path 1220" d="M237.938,81.872a3.393,3.393,0,1,1,3.4-3.365,3.386,3.386,0,0,1-3.4,3.365m0-1.43a1.967,1.967,0,1,0-1.96-1.96,1.981,1.981,0,0,0,1.96,1.96" transform="translate(-218.504 -69.949)" fill="#1a1818"/>
    </g>
  </g>
</svg>
