<svg xmlns="http://www.w3.org/2000/svg" width="17.935" height="23.99" viewBox="0 0 17.935 23.99">
  <g id="Group_2669" data-name="Group 2669" transform="translate(-65.038 -895.671)">
    <path id="insurance-svgrepo-com_4_" data-name="insurance-svgrepo-com (4)" d="M60.379,18.363a.563.563,0,0,1-.564.564H57.679a.564.564,0,0,1,0-1.127h2.136A.563.563,0,0,1,60.379,18.363ZM63.991,7.711h2.136a.564.564,0,1,0,0-1.127H63.991a.564.564,0,1,0,0,1.127Zm0,2.387h2.136a.564.564,0,1,0,0-1.127H63.991a.564.564,0,1,0,0,1.127Zm-2.447,1.235H57.679a.564.564,0,0,0,0,1.127h3.864a.564.564,0,0,0,0-1.127Zm-.037,4.092H57.679a.564.564,0,0,0,0,1.127h3.827a.564.564,0,1,0,0-1.127Zm10.162.869V19.97a4.019,4.019,0,0,1-6.744,2.956H54.3a.563.563,0,0,1-.563-.564V.564A.563.563,0,0,1,54.3,0H65.64a.561.561,0,0,1,.4.161h0l3.864,3.864h0a.563.563,0,0,1,.152.285h0v0h0v0h0a.562.562,0,0,1,.01.11V15.568q.573.069,1.134.171A.563.563,0,0,1,71.669,16.293ZM66.208,3.864h1.94l-1.94-1.94ZM63.627,19.97V16.293a.563.563,0,0,1,.463-.554,20.007,20.007,0,0,1,3.558-.315q.652,0,1.3.041V4.991h-3.3a.563.563,0,0,1-.563-.564v-3.3H54.861V21.8h9.206A4,4,0,0,1,63.627,19.97Zm6.915-3.2a19.224,19.224,0,0,0-5.788,0v3.2a2.894,2.894,0,0,0,5.788,0ZM66.127,12.46a.564.564,0,1,0,0-1.127H63.991a.564.564,0,1,0,0,1.127ZM61.543,8.971H57.679a.564.564,0,0,0,0,1.127h3.864a.564.564,0,0,0,0-1.127Zm0-2.387H57.679a.564.564,0,0,0,0,1.127h3.864a.564.564,0,0,0,0-1.127Z" transform="translate(11.304 895.671)"/>
    <path id="Path_1270" data-name="Path 1270" d="M5.6,2.722H6.866v3.85H8.031V2.722H9.3V1.788H5.6Z" transform="translate(71.558 911)"/>
  </g>
</svg>
