<svg xmlns="http://www.w3.org/2000/svg" width="71.702" height="71.702" viewBox="0 0 71.702 71.702">
  <g id="Group_2633" data-name="Group 2633" transform="translate(-11180 -3684)">
    <circle id="Ellipse_450" data-name="Ellipse 450" cx="33.851" cy="33.851" r="33.851" transform="translate(11182 3686)" fill="none" stroke="#398934" stroke-miterlimit="10" stroke-width="4"/>
    <path id="Path_1262" data-name="Path 1262" d="M15.517,35.56c.964-.99,1.88-1.948,2.826-2.875.087-.085.41-.038.549.057,1.669,1.144,3.323,2.308,4.982,3.466,1.49,1.041,2.981,2.08,4.526,3.157.5-.627.987-1.233,1.47-1.839A112.568,112.568,0,0,1,40.9,25.506a77.238,77.238,0,0,1,9.609-7.811,2.1,2.1,0,0,1,1.279-.387c1.275.025,2.551.008,3.826.008H56.1l.082.133a3.276,3.276,0,0,0-.361.252A89.116,89.116,0,0,0,45.436,29.123,228.206,228.206,0,0,0,28.814,53.815c-.1.174-.208.346-.348.58-4.023-6.526-8.508-12.671-12.949-18.835" transform="translate(11180 3684)" fill="#398934"/>
  </g>
</svg>
