<svg xmlns="http://www.w3.org/2000/svg" width="29" height="29" viewBox="43.737 3.606 29 29"><g data-name="Group 1385"><path d="M43.737 18.056a14.5 14.5 0 1 1 0 .1z" fill="#199e52" fill-rule="evenodd" data-name="Ellipse 21"/><g data-name="Group 727"><g data-name="Group 773"><g data-name="Path 456"><path d="M58.814 10.41c.31.042.621.073.929.128 1.88.334 3.453 1.222 4.718 2.648a7.908 7.908 0 0 1 2.002 4.567c.207 2.12-.327 4.052-1.617 5.753-1.229 1.623-2.853 2.66-4.847 3.074-1.975.41-3.86.116-5.629-.858a.595.595 0 0 0-.52-.057c-.955.307-1.916.596-2.874.893-.15.047-.294.066-.414-.063-.097-.105-.093-.227-.056-.359.285-1.022.565-2.048.851-3.07a.342.342 0 0 0-.037-.297 8.09 8.09 0 0 1-1.08-3.06c-.031-.226-.052-.453-.078-.679v-.926l.04-.345c.191-1.724.841-3.25 1.99-4.552 1.266-1.438 2.846-2.333 4.735-2.67.308-.054.619-.085.929-.127h.958Zm-7.567 15.397c.078-.02.134-.032.186-.048.772-.237 1.549-.46 2.312-.721.327-.112.58-.067.879.1 1.798 1.013 3.711 1.261 5.699.716a7.503 7.503 0 0 0 5.537-6.78c.12-1.811-.335-3.486-1.44-4.929-1.923-2.507-4.483-3.516-7.59-2.941-2.13.393-3.77 1.592-4.913 3.432-1.075 1.728-1.362 3.608-.943 5.593.177.838.503 1.622.965 2.345.101.16.127.315.072.498-.118.392-.222.787-.332 1.181l-.432 1.554Z" fill="#fff" fill-rule="evenodd"/><path d="M58.814 10.41c.31.042.621.073.929.128 1.88.334 3.453 1.222 4.718 2.648a7.908 7.908 0 0 1 2.002 4.567c.207 2.12-.327 4.052-1.617 5.753-1.229 1.623-2.853 2.66-4.847 3.074-1.975.41-3.86.116-5.629-.858a.595.595 0 0 0-.52-.057c-.955.307-1.916.596-2.874.893-.15.047-.294.066-.414-.063-.097-.105-.093-.227-.056-.359.285-1.022.565-2.048.851-3.07a.342.342 0 0 0-.037-.297 8.09 8.09 0 0 1-1.08-3.06c-.031-.226-.052-.453-.078-.679v-.926l.04-.345c.191-1.724.841-3.25 1.99-4.552 1.266-1.438 2.846-2.333 4.735-2.67.308-.054.619-.085.929-.127h.958Zm-7.567 15.397c.078-.02.134-.032.186-.048.772-.237 1.549-.46 2.312-.721.327-.112.58-.067.879.1 1.798 1.013 3.711 1.261 5.699.716a7.503 7.503 0 0 0 5.537-6.78c.12-1.811-.335-3.486-1.44-4.929-1.923-2.507-4.483-3.516-7.59-2.941-2.13.393-3.77 1.592-4.913 3.432-1.075 1.728-1.362 3.608-.943 5.593.177.838.503 1.622.965 2.345.101.16.127.315.072.498-.118.392-.222.787-.332 1.181l-.432 1.554Z" stroke-linejoin="round" stroke-linecap="round" stroke-width=".25" stroke="#fff" fill="transparent"/></g><g data-name="Path 458"><path d="M60.54 23.54c-1.484-.052-2.794-.575-3.959-1.465-1.406-1.075-2.438-2.446-3.15-4.065-.52-1.183-.404-2.32.223-3.42.175-.308.407-.583.62-.868a.376.376 0 0 1 .185-.142c.332-.079.672-.14 1.01-.057.121.03.259.121.327.225.423.652.798 1.33 1.066 2.063.119.326.043.635-.139.91-.145.222-.321.423-.493.624-.064.074-.082.138-.05.228.133.393.383.71.658 1.008.725.783 1.57 1.413 2.5 1.933.268.15.315.15.516-.078.282-.318.552-.647.813-.982.231-.295.503-.391.853-.247.155.064.301.157.445.245.53.326 1.055.658 1.585.982.286.176.311.224.247.558-.104.55-.294 1.064-.645 1.508-.492.622-1.161.907-1.929.996-.226.026-.455.029-.683.043Zm.098-.641c.494.003.976-.054 1.423-.286.651-.338.943-.922 1.09-1.602.006-.032-.029-.09-.06-.11-.566-.357-1.135-.71-1.703-1.065-.106-.067-.174-.057-.26.053-.266.337-.521.692-.833.984-.54.505-.724.458-1.22.198-1.16-.604-2.176-1.391-2.996-2.415-.24-.301-.428-.634-.53-1.01-.07-.254-.05-.472.158-.669.165-.155.304-.34.442-.523.139-.185.185-.387.068-.61-.272-.517-.543-1.034-.807-1.555-.07-.139-.16-.182-.312-.177-.255.008-.46.07-.59.314-.164.304-.37.587-.508.9-.337.764-.371 1.544-.036 2.322.693 1.61 1.704 2.977 3.117 4.025 1.053.78 2.237 1.21 3.557 1.226Z" fill="#fff" fill-rule="evenodd"/><path d="M60.54 23.54c-1.484-.052-2.794-.575-3.959-1.465-1.406-1.075-2.438-2.446-3.15-4.065-.52-1.183-.404-2.32.223-3.42.175-.308.407-.583.62-.868a.376.376 0 0 1 .185-.142c.332-.079.672-.14 1.01-.057.121.03.259.121.327.225.423.652.798 1.33 1.066 2.063.119.326.043.635-.139.91-.145.222-.321.423-.493.624-.064.074-.082.138-.05.228.133.393.383.71.658 1.008.725.783 1.57 1.413 2.5 1.933.268.15.315.15.516-.078.282-.318.552-.647.813-.982.231-.295.503-.391.853-.247.155.064.301.157.445.245.53.326 1.055.658 1.585.982.286.176.311.224.247.558-.104.55-.294 1.064-.645 1.508-.492.622-1.161.907-1.929.996-.226.026-.455.029-.683.043Zm.098-.641c.494.003.976-.054 1.423-.286.651-.338.943-.922 1.09-1.602.006-.032-.029-.09-.06-.11-.566-.357-1.135-.71-1.703-1.065-.106-.067-.174-.057-.26.053-.266.337-.521.692-.833.984-.54.505-.724.458-1.22.198-1.16-.604-2.176-1.391-2.996-2.415-.24-.301-.428-.634-.53-1.01-.07-.254-.05-.472.158-.669.165-.155.304-.34.442-.523.139-.185.185-.387.068-.61-.272-.517-.543-1.034-.807-1.555-.07-.139-.16-.182-.312-.177-.255.008-.46.07-.59.314-.164.304-.37.587-.508.9-.337.764-.371 1.544-.036 2.322.693 1.61 1.704 2.977 3.117 4.025 1.053.78 2.237 1.21 3.557 1.226Z" stroke-linejoin="round" stroke-linecap="round" stroke-width=".25" stroke="#fff" fill="transparent"/></g></g></g></g></svg>