<svg xmlns="http://www.w3.org/2000/svg" width="29" height="29" viewBox="44.738 4.537 29 29"><g data-name="Group 1386"><path d="M44.738 18.987a14.5 14.5 0 1 1 0 .1z" fill="#43b0ff" fill-rule="evenodd" data-name="Ellipse 22"/><g data-name="Group 774"><g data-name="Path 460"><path d="M59.277 13.828h6.36c1.019 0 1.69.67 1.692 1.69v7.784c-.001 1.008-.676 1.686-1.68 1.687-4.253 0-8.505.001-12.757-.001-.994 0-1.672-.68-1.673-1.675-.002-2.607-.002-5.213 0-7.82.001-.993.683-1.665 1.68-1.665h6.378Zm7.022 10.37-4.502-5.13-.159.138c-.698.615-1.395 1.232-2.094 1.847-.215.189-.326.187-.544-.005l-1.053-.93-1.183-1.042-4.501 5.13c.193.14.394.172.608.171 1.442-.002 2.884 0 4.326 0l8.45.001c.226 0 .441-.028.652-.18Zm-7.025-3.714 6.812-6.012c-.191-.016-.328-.039-.465-.039-3.07-.002-6.138-.002-9.207-.002-1.17 0-2.342 0-3.512.002-.128.001-.255.025-.432.043l6.804 6.008Zm-7.409 3.256 4.446-5.066-4.304-3.798-.068.005c-.036.194-.103.388-.104.582-.007 2.632-.005 5.262-.004 7.893 0 .11.02.218.034.384Zm14.743-8.857-.076.002-4.282 3.78 4.397 5.01.046-.015c.008-.126.023-.251.023-.377l.001-5.711c0-.702.008-1.405-.005-2.106-.004-.195-.068-.389-.104-.583Z" fill="#fff" fill-rule="evenodd"/><path d="M59.277 13.828h6.36c1.019 0 1.69.67 1.692 1.69v7.784c-.001 1.008-.676 1.686-1.68 1.687-4.253 0-8.505.001-12.757-.001-.994 0-1.672-.68-1.673-1.675-.002-2.607-.002-5.213 0-7.82.001-.993.683-1.665 1.68-1.665h6.378Zm7.022 10.37-4.502-5.13-.159.138c-.698.615-1.395 1.232-2.094 1.847-.215.189-.326.187-.544-.005l-1.053-.93-1.183-1.042-4.501 5.13c.193.14.394.172.608.171 1.442-.002 2.884 0 4.326 0l8.45.001c.226 0 .441-.028.652-.18Zm-7.025-3.714 6.812-6.012c-.191-.016-.328-.039-.465-.039-3.07-.002-6.138-.002-9.207-.002-1.17 0-2.342 0-3.512.002-.128.001-.255.025-.432.043l6.804 6.008Zm-7.409 3.256 4.446-5.066-4.304-3.798-.068.005c-.036.194-.103.388-.104.582-.007 2.632-.005 5.262-.004 7.893 0 .11.02.218.034.384Zm14.743-8.857-.076.002-4.282 3.78 4.397 5.01.046-.015c.008-.126.023-.251.023-.377l.001-5.711c0-.702.008-1.405-.005-2.106-.004-.195-.068-.389-.104-.583Z" stroke-linejoin="round" stroke-linecap="round" stroke-width=".25" stroke="#fff" fill="transparent"/></g></g></g></svg>