<svg xmlns="http://www.w3.org/2000/svg" width="29" height="30" viewBox="6.053 313.95 29 30"><g data-name="Group 2959"><g data-name="Group 1559"><path d="M6.053 328.9a14.5 15 0 1 1 0 .1z" fill="#fff" fill-rule="evenodd" data-name="Ellipse 22"/></g><g data-name="point-of-sale-pay-svgrepo-com"><g data-name="Group 1605"><g data-name="Group 1604"><path d="M28.32 324.35h-2.243a.244.244 0 0 0 0 .488h2.243c.134 0 .244.11.244.244v.894H22.68v-1.138h1.771a.244.244 0 0 0 0-.488H22.68v-.829a.732.732 0 0 0-.732-.731h-.764v-.374a.732.732 0 0 0-.731-.731h-4.876a.732.732 0 0 0-.732.731v.374h-.764a.732.732 0 0 0-.731.731v4.389a.244.244 0 0 0 .487 0v-4.389c0-.134.11-.244.244-.244h.764v3.934h-.341a.244.244 0 0 0 0 .488h7.022a.244.244 0 0 0 0-.488h-.342v-3.934h.764c.135 0 .244.11.244.244v12.938c0 .135-.11.244-.244.244h-7.867a.244.244 0 0 1-.244-.244v-6.794a.244.244 0 0 0-.487 0v6.794c0 .404.328.732.731.732h7.867a.732.732 0 0 0 .732-.732v-4.99h5.64a.732.732 0 0 0 .731-.731v-5.656a.732.732 0 0 0-.731-.732Zm-7.623 2.86h-5.364v-4.794c0-.134.11-.244.244-.244h4.876c.134 0 .244.11.244.244v4.795Zm7.867 3.528c0 .134-.11.244-.244.244h-5.64v-3.218h5.884v2.974Zm0-3.462H22.68v-.813h5.884v.813Z" fill="#005f83" fill-rule="evenodd" data-name="Path 982"/></g></g><g data-name="Group 1607"><g data-name="Group 1606"><path d="M27.117 329.942h-3.12a.244.244 0 1 0 0 .487h3.12a.244.244 0 0 0 0-.487Z" fill="#005f83" fill-rule="evenodd" data-name="Path 983"/></g></g><g data-name="Group 1609"><g data-name="Group 1608"><path d="M20.908 328.251H15.12a.732.732 0 0 0-.731.732v1.755c0 .403.328.731.731.731h5.787a.732.732 0 0 0 .731-.731v-1.755a.732.732 0 0 0-.731-.732Zm.244 2.487c0 .135-.11.244-.244.244H15.12a.244.244 0 0 1-.243-.244v-1.755c0-.135.109-.244.243-.244h5.787c.134 0 .244.11.244.244v1.755Z" fill="#005f83" fill-rule="evenodd" data-name="Path 984"/></g></g><g data-name="Group 1611"><g data-name="Group 1610"><path d="M15.674 332.217a.96.96 0 0 0 0 1.918.96.96 0 0 0 0-1.918Zm0 1.43a.472.472 0 1 1 .001-.943.472.472 0 0 1 0 .944Z" fill="#005f83" fill-rule="evenodd" data-name="Path 985"/></g></g><g data-name="Group 1613"><g data-name="Group 1612"><path d="M20.355 332.217a.96.96 0 0 0 0 1.918.96.96 0 0 0 0-1.918Zm0 1.43a.472.472 0 1 1 .001-.943.472.472 0 0 1 0 .944Z" fill="#005f83" fill-rule="evenodd" data-name="Path 986"/></g></g><g data-name="Group 1615"><g data-name="Group 1614"><path d="M18.015 332.217a.96.96 0 0 0 0 1.918.96.96 0 0 0 0-1.918Zm0 1.43a.472.472 0 1 1 0-.943.472.472 0 0 1 0 .944Z" fill="#005f83" fill-rule="evenodd" data-name="Path 987"/></g></g><g data-name="Group 1617"><g data-name="Group 1616"><path d="M15.674 334.428a.96.96 0 0 0 0 1.918.96.96 0 0 0 0-1.918Zm0 1.43a.472.472 0 1 1 .001-.944.472.472 0 0 1 0 .944Z" fill="#005f83" fill-rule="evenodd" data-name="Path 988"/></g></g><g data-name="Group 1619"><g data-name="Group 1618"><path d="M20.355 334.428a.96.96 0 0 0 0 1.918.96.96 0 0 0 0-1.918Zm0 1.43a.472.472 0 1 1 .001-.944.472.472 0 0 1 0 .944Z" fill="#005f83" fill-rule="evenodd" data-name="Path 989"/></g></g><g data-name="Group 1621"><g data-name="Group 1620"><path d="M18.015 334.428a.96.96 0 0 0 0 1.918.96.96 0 0 0 0-1.918Zm0 1.43a.472.472 0 1 1 0-.944.472.472 0 0 1 0 .944Z" fill="#005f83" fill-rule="evenodd" data-name="Path 990"/></g></g><g data-name="Group 1623"><g data-name="Group 1622"><path d="M18.275 322.79h-1.82a.244.244 0 0 0 0 .487h1.82a.244.244 0 0 0 0-.487Z" fill="#005f83" fill-rule="evenodd" data-name="Path 991"/></g></g><g data-name="Group 1625"><g data-name="Group 1624"><path d="M19.575 324.35h-3.12a.244.244 0 0 0 0 .488h3.12a.244.244 0 0 0 0-.488Z" fill="#005f83" fill-rule="evenodd" data-name="Path 992"/></g></g><g data-name="Group 1627"><g data-name="Group 1626"><path d="M19.575 325.976h-3.12a.244.244 0 1 0 0 .487h3.12a.244.244 0 0 0 0-.487Z" fill="#005f83" fill-rule="evenodd" data-name="Path 993"/></g></g></g></g></svg>