<svg xmlns="http://www.w3.org/2000/svg" width="29" height="29" viewBox="45.738 3.189 29 29"><g data-name="Group 1388"><g data-name="Group 1387"><path d="M45.738 17.639a14.5 14.5 0 1 1 0 .1z" fill="#8918a5" fill-rule="evenodd" data-name="Ellipse 22"/></g><g data-name="phone-svgrepo-com (2)"><path d="M67.926 22.109c-.606-1.146-2.71-2.388-2.803-2.443-.385-.22-.785-.288-1.123-.195-.255.071-.462.232-.602.467-.308.368-.69.799-.783.865-.614.417-1.12.43-1.643.034l-.05-.038a2.577 2.577 0 0 1-.206-.185l-3.468-3.467c-.616-.618-.673-1.186-.19-1.9.067-.093.498-.474.866-.783.235-.14.396-.347.467-.602.094-.338.024-.738-.197-1.126-.052-.09-1.295-2.194-2.44-2.8a1.482 1.482 0 0 0-1.75.263l-.766.766c-1.211 1.21-1.65 2.584-1.304 4.08.289 1.247 1.13 2.574 2.5 3.945l4.438 4.438c1.37 1.37 2.698 2.211 3.945 2.5.33.076.655.115.973.115 1.122 0 2.164-.475 3.107-1.42l.766-.765c.465-.465.571-1.168.263-1.75Zm-.69 1.322-.765.766c-1.07 1.07-2.22 1.443-3.518 1.143-1.136-.263-2.365-1.05-3.654-2.339l-4.438-4.438c-1.29-1.29-2.076-2.519-2.339-3.654-.3-1.298.074-2.448 1.143-3.517l.766-.766a.883.883 0 0 1 1.04-.156c.994.526 2.19 2.551 2.2 2.568.136.238.187.486.138.663a.405.405 0 0 1-.206.252l-.046.032c-.257.215-.87.734-.999.924a2.448 2.448 0 0 0-.386.865 4.355 4.355 0 0 1-.53-1.634.305.305 0 0 0-.331-.27.302.302 0 0 0-.27.332c.218 2.099 1.85 3.465 1.92 3.522.007.006.015.008.023.013l3.252 3.252c.01.012.014.026.025.037.057.057 1.42 1.379 3.501 1.595a5.263 5.263 0 0 1-1.442-.995c.208-.071.42-.177.633-.322.19-.128.71-.74.924-.998l.032-.046a.406.406 0 0 1 .252-.206c.177-.05.425.002.66.136.02.012 2.045 1.208 2.571 2.202a.88.88 0 0 1-.156 1.04Z" fill="#fff" fill-rule="evenodd" data-name="Path 922"/><path d="M60.74 17.285a.3.3 0 0 0 .115.024h3.622a.302.302 0 1 0 0-.604h-2.893l4.616-4.616a.302.302 0 1 0-.427-.427l-4.616 4.616v-2.893a.302.302 0 1 0-.603 0v3.622a.305.305 0 0 0 .186.278Z" fill="#fff" fill-rule="evenodd" data-name="Path 923"/></g></g></svg>